<?xml version="1.0" encoding="utf-8"?>
<!-- Generator: Adobe Illustrator 19.0.0, SVG Export Plug-In . SVG Version: 6.00 Build 0)  -->
<svg version="1.1" baseProfile="tiny" xmlns="http://www.w3.org/2000/svg" xmlns:xlink="http://www.w3.org/1999/xlink" x="0px"
	 y="0px" width="222.932px" height="211.162px" viewBox="0 0 222.932 211.162" xml:space="preserve">
<g id="Layer_2">
</g>
<g id="Layer_1">
	<g id="XMLID_2_">
		<path id="XMLID_3_" fill="none" d="M56.631,55.235l3.566,1.549c3.76,1.632,7.649,3.32,11.467,5.002
			c0.099,0.044,0.182,0.069,0.227,0.069c0.038,0,0.101-0.014,0.176-0.041c1.091-0.38,2.198-0.736,3.268-1.081
			c0.229-0.074,0.458-0.147,0.686-0.221l-4.673-10.867l-5.433-12.633l-2.676-6.229c-1.645-3.831-3.29-7.661-4.94-11.489
			c-5.579,4.854-21.821,19.304-27.688,24.63l21.735,9.449L56.631,55.235z"/>
		<path id="XMLID_166_" fill="none" d="M131.71,28.477l-0.39-4.394c-0.099-1.12-0.195-2.24-0.291-3.36
			c-0.092-1.073-0.185-2.147-0.279-3.22l-0.463-5.23l-0.443-5.003l-0.22-2.534c-0.068-0.794-0.137-1.587-0.207-2.38L70.813,14.743
			c14.533,5.891,51.844,20.754,61.842,24.617c-0.143-1.723-0.289-3.445-0.439-5.167C132.049,32.288,131.88,30.383,131.71,28.477z"/>
		<path id="XMLID_167_" fill="none" d="M119.151,46.492l0.981-0.319l2.12-0.689c1.509-0.49,3.018-0.98,4.526-1.472l-22.587-8.963
			L65.588,19.731c5.559,12.918,11.118,25.834,16.679,38.751C94.561,54.486,106.856,50.489,119.151,46.492z"/>
		<path id="XMLID_171_" fill="none" d="M139.251,39.948l17.481-5.685c11.372-3.698,22.707-7.383,34.05-11.077
			c-13.798-4.906-27.598-9.805-41.398-14.704c-4.434-1.574-8.868-3.146-13.303-4.715c0.476,5.497,0.961,10.989,1.446,16.479
			C138.107,26.814,138.688,33.38,139.251,39.948z"/>
		<path id="XMLID_172_" fill="none" d="M132.262,84.647c-2.556,0.06-5.112,0.121-7.669,0.18c3.557,1.569,7.986,3.489,12.273,5.307
			c0.504-1.876,1.006-3.753,1.506-5.63L132.262,84.647z"/>
		<path id="XMLID_173_" fill="none" d="M110.632,78.638l0.064-0.002c1.283-0.059,2.347-0.097,3.348-0.119l13.925-0.305l10.822-0.237
			l-0.212-1.247c-1.505-8.857-2.996-17.628-4.488-26.392c-10.383,8.342-20.764,16.688-31.141,25.037l2.004,0.873
			c1.776,0.774,3.552,1.547,5.328,2.323C110.392,78.618,110.497,78.638,110.632,78.638z"/>
		<path id="XMLID_174_" fill="none" d="M144.672,73.644c0.228,1.372,0.461,2.778,0.71,4.157c20.939-0.46,41.912-0.924,63.036-1.392
			c-22.621-8.973-45.239-17.942-67.862-26.909c0.142,0.837,0.286,1.67,0.427,2.491c0.144,0.835,0.289,1.67,0.43,2.505
			c0.271,1.604,0.547,3.207,0.823,4.81c0.201,1.167,0.402,2.334,0.601,3.501c0.216,1.266,0.43,2.532,0.644,3.798
			c0.255,1.506,0.51,3.011,0.767,4.517C144.393,71.962,144.533,72.804,144.672,73.644z"/>
		<path id="XMLID_175_" fill="none" d="M6.861,166.384c0.005-0.004,0.01-0.008,0.016-0.011c0.624-0.452,1.237-0.919,1.866-1.399
			c0.288-0.22,0.58-0.442,0.877-0.667l1.452-1.096l1.229,1.341c0.694,0.758,1.286,1.54,1.858,2.296
			c0.125,0.165,0.249,0.329,0.372,0.49c0.197-0.214,0.396-0.427,0.597-0.637c0.274-0.285,0.561-0.471,0.715-0.571l1.32-0.968
			l0.427,0.389l-0.027-0.215c-0.756-5.995-1.506-11.946-2.267-17.91c-2.213,3.753-4.422,7.507-6.631,11.261l-1.857,3.156
			l-0.16,0.274c-0.06,0.104-0.121,0.208-0.182,0.312c0.121,1.181,0.238,2.359,0.354,3.538
			C6.833,166.106,6.847,166.245,6.861,166.384z"/>
		<path id="XMLID_176_" fill="none" d="M28.553,61.163c0.129,3.079,0.251,6.159,0.372,9.239c0.07,1.784,0.141,3.568,0.213,5.352
			c6.79-2.204,13.579-4.41,20.368-6.615l2.625-0.853c3.465-1.126,6.93-2.251,10.394-3.381c-6.766-2.944-13.532-5.887-20.299-8.83
			l-5.916-2.573l-2.263-0.985c-1.997-0.869-3.993-1.738-5.992-2.604l0.113,2.515C28.299,55.34,28.43,58.251,28.553,61.163z"/>
		<path id="XMLID_177_" fill="none" d="M17.972,107.844c0.014,0.172,0.029,0.345,0.043,0.517c0.637,0.064,1.272,0.127,1.907,0.19
			c-0.38-1.556-0.763-3.118-1.151-4.695c-0.335,0.481-0.67,0.962-1.007,1.442c-0.003,0-0.013,0.044-0.002,0.163
			C17.839,106.255,17.906,107.05,17.972,107.844z"/>
		<path id="XMLID_178_" fill="none" d="M11.261,126.705l1,1.021c0.347,0.355,0.695,0.709,1.042,1.064
			c-0.26-3.168-0.629-7.226-0.949-10.433l-0.393,0.954l-2.353,5.705c0.446,0.458,0.893,0.914,1.34,1.371L11.261,126.705z"/>
		<path id="XMLID_179_" fill="none" d="M20.111,87.177c-0.172,0.003-0.344,0.007-0.517,0.012c0.112,0.204,0.225,0.408,0.337,0.612
			c0.945,1.716,1.922,3.491,2.863,5.254c0.009,0.017,0.018,0.032,0.025,0.044c0,0,0,0,0.001,0c0.177,0.037,0.35,0.077,0.521,0.118
			c-0.048-1.844-0.156-4.387-0.26-6.051c-0.365-0.001-0.729-0.002-1.091-0.002C21.361,87.164,20.736,87.167,20.111,87.177z"/>
		<path id="XMLID_180_" fill="none" d="M22.201,66.596c-1.111,4.169-2.221,8.34-3.33,12.51c1.341-0.431,2.802-0.921,3.786-1.269
			C22.506,74.09,22.354,70.343,22.201,66.596z"/>
		<path id="XMLID_181_" fill="none" d="M39.357,171.608l0.685-0.564l0.497-0.412c0.41-0.34,0.819-0.68,1.237-1.009
			c0.15-0.118,0.295-0.244,0.442-0.369c0.438-0.376,0.935-0.802,1.594-1.168l1.555-0.864l1.039,1.444l0.249,0.343
			c0.186,0.255,0.359,0.492,0.523,0.734c0.334,0.492,0.667,0.985,1,1.478c0.228,0.337,0.456,0.675,0.684,1.012
			c1.851-2.007,3.704-4.018,5.554-6.032l-0.29-0.498c-4.941-8.481-9.871-16.944-14.802-25.402c-0.14,1.151-0.28,2.306-0.419,3.46
			l-0.586,4.873c-0.324,2.705-0.648,5.41-0.979,8.115c-0.329,2.686-0.662,5.372-0.995,8.057c-0.28,2.255-0.56,4.51-0.837,6.765
			c0.26,0.166,0.517,0.332,0.774,0.498c0.481,0.31,0.947,0.611,1.413,0.903l0.646-0.53L39.357,171.608z"/>
		<path id="XMLID_182_" fill="none" d="M156.359,105.708c-2.238-0.974-4.476-1.947-6.715-2.919c0.317,1.879,0.635,3.758,0.954,5.636
			l1.093,6.423l1.224,7.191l0.692,4.083c0.301,1.777,0.602,3.555,0.904,5.332c2.017-1.622,4.03-3.24,6.039-4.856
			c5.146-4.137,10.27-8.256,15.382-12.384c-3.234-1.407-6.469-2.812-9.704-4.218l-5.82-2.529L156.359,105.708z"/>
		<path id="XMLID_183_" fill="none" d="M18.613,114.984c0.052,0.57,0.102,1.135,0.151,1.701l0.424,4.884
			c0.203,2.347,0.406,4.694,0.612,7.041c0.944-1.211,1.888-2.423,2.833-3.636l0.298-0.382c-0.596-3.355-1.49-7.434-1.998-9.403
			c-0.528-0.063-1.034-0.117-1.533-0.137C19.127,115.041,18.862,115.015,18.613,114.984z"/>
		<path id="XMLID_184_" fill="none" d="M80.842,104.712c1.111-5.177,2.22-10.355,3.326-15.533l-12.537,7.78l-6.913,4.29
			l-4.516,2.802c-5.301,3.289-10.602,6.579-15.9,9.873c0.006,0.035,0.013,0.069,0.019,0.104c0.158,0.837,0.319,1.673,0.481,2.509
			c0.38,1.973,0.774,4.012,1.119,6.037c0.051,0.02,0.1,0.042,0.15,0.065l4.264,1.863l24.009,10.488
			c0.095-0.444,0.189-0.889,0.284-1.333l0.44-2.065l2.369-11.023L80.842,104.712z"/>
		<path id="XMLID_185_" fill="none" d="M181.676,109.605l25.214-20.281l8.113-6.526c-0.863,0.022-1.727,0.043-2.59,0.062
			l-13.213,0.298l-8.675,0.195l-9.142,0.207l-12.38,0.28l-9.8,0.219c-4.234,0.094-8.468,0.188-12.702,0.284
			c0.615,3.673,1.208,7.2,1.84,10.766c0.091,0.042,0.182,0.083,0.274,0.122l8.095,3.52l5.136,2.233l4.909,2.135
			c4.941,2.149,9.882,4.298,14.826,6.443C181.612,109.575,181.644,109.59,181.676,109.605z"/>
		<path id="XMLID_186_" fill="none" d="M203.905,38.789c-1.611-3.815-3.223-7.629-4.842-11.44l-25.632,8.337l-27.446,8.927
			c24.172,9.589,48.345,19.175,72.52,28.758C213.641,61.843,208.773,50.315,203.905,38.789z"/>
		<path id="XMLID_187_" fill="none" d="M71.546,68.824c-0.005,0-0.051,0.001-0.164,0.039c-2.212,0.744-4.464,1.473-6.642,2.177
			l-2.44,0.79l-2.595,0.844c-7.793,2.534-15.587,5.068-23.38,7.602c0.734-0.016,1.468-0.033,2.202-0.049l8.307-0.19
			c4.363-0.1,8.727-0.2,13.09-0.297c4.701-0.104,9.402-0.207,14.103-0.309l10.035-0.219c-0.152-0.355-0.305-0.709-0.457-1.064
			c-0.716-1.666-1.433-3.332-2.132-5.006c-0.001-0.003-0.002-0.005-0.002-0.007c-0.021-0.012-0.059-0.033-0.122-0.06
			c-3.682-1.578-6.753-2.915-9.664-4.206C71.6,68.833,71.556,68.824,71.546,68.824z"/>
		<path id="XMLID_188_" fill="none" d="M86.413,68.194c0.003,0.001,0.006,0.002,0.008,0.004c2.159,0.925,4.313,1.861,6.467,2.797
			c1.092,0.475,2.184,0.949,3.277,1.422l0.734-0.59c7.856-6.31,15.7-12.61,23.54-18.909c-5.068,1.647-10.136,3.295-15.203,4.944
			l-4.815,1.566l-3.625,1.179c-3.986,1.296-7.972,2.592-11.955,3.895C85.364,65.71,85.899,66.953,86.413,68.194
			C86.413,68.193,86.413,68.193,86.413,68.194z"/>
		<path id="XMLID_189_" fill="none" d="M62.191,165.522c0.545,0.453,1.07,0.932,1.58,1.405l0.502-0.425
			c1.22-1.031,2.439-2.062,3.651-3.103c0.15-0.129,0.277-0.234,0.384-0.322c0.027-0.138,0.06-0.301,0.103-0.497
			c1.53-7.034,3.055-14.171,4.532-21.084c-9.718-4.238-19.437-8.476-29.156-12.711c-0.737,0.755-1.605,1.717-2.205,2.424L46,138.795
			c4.538,7.789,9.231,15.843,13.824,23.779C60.572,163.864,61.323,164.801,62.191,165.522z"/>
		<path id="XMLID_190_" fill="none" d="M25.655,166.762l1.244-0.861l1.167,0.964l0.307,0.251c0.24,0.195,0.47,0.383,0.693,0.578
			c0.094,0.082,0.187,0.163,0.28,0.245c1.004-7.69,3.334-26.416,4.081-32.821c-3.808,1.338-9.926,3.61-12.522,4.636
			c1.178,9.31,2.359,18.62,3.543,27.93C24.829,167.369,25.227,167.058,25.655,166.762z"/>
		<path id="XMLID_191_" fill="none" d="M28.555,129.995l-1.099-0.574c-0.326,0.4-0.701,0.872-1.097,1.375
			C27.092,130.53,27.824,130.263,28.555,129.995z"/>
		<path id="XMLID_192_" fill="none" d="M42.268,86.693l-5.314,0.127c-2.443,0.058-4.886,0.116-7.328,0.178
			c0.038,0.879,0.078,1.758,0.117,2.638c0.099,2.199,0.198,4.398,0.275,6.598c0.006,0.177,0.015,0.23,0.181,0.403
			c2.68,2.792,5.347,5.597,8.014,8.401l2.979,3.131c11.958-7.416,23.915-14.835,35.871-22.256
			c-7.015,0.151-14.029,0.302-21.043,0.459C51.436,86.473,46.852,86.583,42.268,86.693z"/>
		<path id="XMLID_193_" fill="none" d="M7.128,113.892c-0.314-0.03-0.628-0.06-0.941-0.089c0.124,0.507,0.248,1.014,0.372,1.521
			C6.761,114.823,6.954,114.337,7.128,113.892z"/>
		<path id="XMLID_194_" fill="none" d="M181.819,123.74c-4.726,12.78-9.451,25.56-14.175,38.341
			c-1.057,2.86-2.114,5.721-3.169,8.581c9.262-3.705,18.541-7.417,27.82-11.132c-2.948-10.078-5.895-20.157-8.845-30.234
			C182.907,127.444,182.364,125.592,181.819,123.74z"/>
		<path id="XMLID_195_" fill="none" d="M192.457,121.405l-2.405-1.047c-0.929-0.404-1.857-0.809-2.786-1.213
			c1.507,5.154,3.015,10.309,4.525,15.462l4.602,15.699l1.157,3.946c4.342-5.67,13.823-18.248,17.385-23.072l-14.576-6.34
			L192.457,121.405z"/>
		<path id="XMLID_196_" fill="none" d="M92.274,185.157l3.13,3.315c1.872,1.983,3.744,3.965,5.618,5.945
			c4.509-10.087,9.008-20.152,13.504-30.22c-12.449,1.636-24.868,3.275-37.394,4.936c3.367,3.567,6.736,7.131,10.106,10.696
			L92.274,185.157z"/>
		<path id="XMLID_197_" fill="none" d="M204.069,119.349l5.271,2.292l2.235,0.973c1.789,0.779,3.579,1.558,5.37,2.332
			c0.089-0.88,0.177-1.761,0.26-2.642c0.164-1.75,0.326-3.501,0.487-5.252c0.194-2.104,0.387-4.209,0.587-6.313
			c0.205-2.162,0.416-4.324,0.627-6.485c0.165-1.692,0.331-3.383,0.493-5.075c0.399-4.164,0.793-8.328,1.185-12.492
			c-10.676,8.577-21.362,17.165-32.173,25.854C193.631,114.811,198.85,117.08,204.069,119.349z"/>
		<path id="XMLID_198_" fill="none" d="M128.064,93.403c-6.156-2.676-12.312-5.352-18.465-8.035
			c-0.321-0.14-0.617-0.202-0.958-0.202l-0.079,0.001c-2.511,0.068-5.022,0.124-7.533,0.18c-1.568,0.035-3.136,0.07-4.704,0.108
			c-0.811,0.02-1.621,0.044-2.448,0.072c7.874,18.322,15.75,36.644,23.627,54.965l1.792,4.168l0.644,1.499
			c0.412,0.96,0.825,1.92,1.238,2.88c2.633-9.872,5.265-19.745,7.896-29.617c2.036-7.641,4.069-15.282,6.099-22.925L128.064,93.403z
			"/>
		<path id="XMLID_199_" fill="none" d="M78.475,179.983l-1.684-1.778c-1.066-1.126-2.132-2.252-3.199-3.376l-2.519,10.412
			l-3.698,15.285c-0.3,1.239-0.602,2.478-0.905,3.717c-0.303,1.243-0.607,2.486-0.908,3.73c10.409-2.814,20.827-5.634,31.382-8.491
			l-13.345-14.089L78.475,179.983z"/>
		<path id="XMLID_200_" fill="none" d="M145.388,116.696l-2.898-17.015c-0.021-0.01-0.043-0.019-0.064-0.029
			c-0.408-0.185-0.808-0.366-1.206-0.54c-3.516,12.899-7.029,25.798-10.54,38.698c-1.216,4.469-2.429,8.939-3.64,13.409
			c6.423-4.444,18.222-12.734,21.636-15.22L145.388,116.696z"/>
		<path id="XMLID_201_" fill="none" d="M156.043,140.433c1.324,7.754,2.657,15.563,3.994,23.384
			c4.984-13.486,9.966-26.973,14.944-40.461c-6.404,5.162-12.807,10.324-19.21,15.487L156.043,140.433z"/>
		<path id="XMLID_202_" fill="none" d="M75.07,162.743c11.998-1.547,23.992-3.096,35.988-4.646
			c-9.127-4.03-26.19-11.431-32.052-13.893C77.575,150.59,75.855,158.747,75.07,162.743z"/>
		<path id="XMLID_203_" fill="none" d="M129.856,157.399c8.512,4.238,16.592,8.252,24.534,12.189
			c-1.69-9.989-3.136-18.483-4.48-26.314C143.272,147.947,136.623,152.631,129.856,157.399z"/>
		<path id="XMLID_204_" fill="none" d="M80.433,137.661l15.029,6.568l11.229,4.908l3.598,1.574c1.827,0.799,3.655,1.599,5.483,2.397
			c-5.196-12.257-20.126-47.102-25.75-60.101c-1.852,8.6-3.693,17.186-5.533,25.764C83.137,125.07,81.786,131.366,80.433,137.661z"
			/>
		<path id="XMLID_205_" fill="none" d="M63.971,180.177l-0.734,0.582l-1.248,0.991l-1.245-0.996
			c-0.798-0.639-1.496-1.319-2.171-1.977c-0.303-0.296-0.599-0.584-0.894-0.859l-2.744,1.733c-1.533,0.969-3.066,1.937-4.601,2.903
			c-0.03,0.019-0.059,0.04-0.089,0.061c-0.315,0.223-0.971,0.686-1.95,0.686c-0.077,0-0.156-0.003-0.238-0.009l-0.93-0.071
			l-0.544-0.757c-0.415-0.578-0.791-1.182-1.155-1.766c-0.232-0.373-0.466-0.749-0.711-1.117c-0.235-0.354-0.457-0.716-0.68-1.081
			c-0.047-0.076-0.093-0.152-0.139-0.227c-12.276,9.039-24.559,18.086-36.839,27.134c1.164,0.084,2.328,0.168,3.493,0.253
			l4.408,0.319c1.332,0.095,2.663,0.189,3.995,0.282c1.312,0.092,2.623,0.184,3.935,0.278c1.628,0.116,3.256,0.235,4.884,0.353
			l4.387,0.317l3.422,0.243c1.462,0.103,2.925,0.206,4.387,0.312c1.614,0.117,3.228,0.237,4.842,0.357l3.818,0.283l1.267,0.093
			c2.624,0.193,5.248,0.385,7.873,0.566c0.175,0.012,0.35,0.027,0.526,0.043c0.087,0.008,0.173,0.015,0.257,0.022l0.259-1.084
			c2.332-9.776,4.665-19.551,6.995-29.328c-0.076,0.061-0.152,0.122-0.229,0.183C65.049,179.323,64.518,179.744,63.971,180.177z"/>
		<path id="XMLID_206_" fill="none" d="M27.797,179.948l-0.232-0.345c-0.172-0.255-0.333-0.495-0.489-0.74l-0.838-1.322
			c-0.269-0.425-0.537-0.849-0.807-1.273l-1.659,0.982c-1.19,0.705-2.381,1.409-3.573,2.109c-0.276,0.162-0.542,0.273-0.755,0.363
			c-0.071,0.03-0.144,0.06-0.218,0.094l-1.163,0.525l-0.966-0.833l-6.532-5.635c-0.255,0.182-0.51,0.364-0.765,0.546
			c-1.001,0.715-2.002,1.43-3.009,2.136c-0.244,1.544-0.503,3.055-0.791,4.726l-1.727,10.002l-1.574,9.119
			c8.917-6.511,17.848-13.034,26.782-19.561l-1.079,0.016L27.797,179.948z"/>
		<path id="XMLID_209_" fill="#FFFFFF" d="M140.929,44.759c26.929,10.683,53.859,21.363,80.791,32.038
			c0.011,0.004,0.022,0.006,0.035,0.006c0.058,0,0.139-0.039,0.256-0.064c-0.03-0.445-0.264-0.829-0.431-1.225
			c-5.274-12.502-10.553-25.003-15.832-37.503c-1.696-4.017-3.394-8.033-5.099-12.046c-0.153-0.36-0.196-0.803-0.669-1.018
			c-19.806,6.442-39.635,12.891-59.727,19.426C140.66,44.608,140.787,44.702,140.929,44.759z M173.431,35.686l25.632-8.337
			c1.618,3.811,3.231,7.625,4.842,11.44c4.868,11.527,9.736,23.054,14.599,34.582c-24.175-9.583-48.347-19.169-72.52-28.758
			L173.431,35.686z"/>
		<path id="XMLID_212_" fill="#FFFFFF" d="M137.326,96.183c0.07-0.263,0.085-0.54,0.129-0.832c-0.346-0.168-0.632-0.321-0.928-0.449
			c-8.71-3.789-17.423-7.572-26.13-11.368c-0.572-0.25-1.139-0.369-1.758-0.369c-0.044,0-0.089,0.001-0.133,0.002
			c-4.076,0.111-8.154,0.189-12.23,0.287c-1.709,0.041-3.418,0.106-5.276,0.165c0.115,0.706,0.398,1.204,0.619,1.719
			c8.611,20.037,17.225,40.074,25.839,60.11c1.24,2.884,2.476,5.769,3.729,8.647c0.093,0.213,0.098,0.56,0.476,0.56
			c0.022,0,0.046-0.001,0.071-0.004c0.108-0.383,0.223-0.772,0.328-1.164c2.983-11.184,5.965-22.368,8.945-33.552
			C133.117,112.018,135.224,104.101,137.326,96.183z M121.179,149.037c-0.413-0.96-0.826-1.92-1.238-2.88l-0.644-1.499l-1.792-4.168
			c-7.877-18.321-15.753-36.643-23.627-54.965c0.826-0.027,1.637-0.052,2.448-0.072c1.568-0.038,3.136-0.073,4.704-0.108
			c2.511-0.056,5.022-0.112,7.533-0.18l0.079-0.001c0.342,0,0.637,0.062,0.958,0.202c6.153,2.683,12.309,5.359,18.465,8.035
			l7.111,3.092c-2.03,7.642-4.063,15.284-6.099,22.925C126.444,129.292,123.812,139.164,121.179,149.037z"/>
		<path id="XMLID_215_" fill="#FFFFFF" d="M134.818,42.236c0-0.393,0.022-0.711-0.004-1.026c-0.196-2.397-0.396-4.794-0.606-7.191
			c-0.294-3.371-0.6-6.741-0.897-10.112c-0.193-2.193-0.377-4.387-0.57-6.58c-0.3-3.411-0.605-6.822-0.906-10.234
			c-0.182-2.071-0.356-4.143-0.542-6.214c-0.028-0.313,0.002-0.666-0.404-0.88c-22.16,4.684-44.363,9.378-66.801,14.121
			c1.295,0.741,64.223,25.813,69.95,27.905C134.26,42.107,134.495,42.15,134.818,42.236z M70.813,14.743l58.604-12.388
			c0.07,0.793,0.138,1.587,0.207,2.38l0.22,2.534l0.443,5.003l0.463,5.23c0.094,1.073,0.187,2.147,0.279,3.22
			c0.096,1.12,0.193,2.24,0.291,3.36l0.39,4.394c0.17,1.905,0.34,3.81,0.506,5.716c0.15,1.722,0.296,3.444,0.439,5.167
			C122.656,35.497,85.346,20.634,70.813,14.743z"/>
		<path id="XMLID_218_" fill="#FFFFFF" d="M181.997,111.796c0.05,0,0.102-0.002,0.155-0.008
			c12.735-10.243,25.534-20.538,38.333-30.833c-0.028-0.079-0.056-0.176-0.083-0.255c-0.246-0.011-0.492-0.051-0.738-0.051
			c-0.028,0-0.055,0-0.083,0c-2.405,0-4.809,0.14-7.214,0.194c-7.296,0.166-14.592,0.337-21.888,0.502
			c-7.174,0.162-14.347,0.331-21.521,0.492c-7.826,0.176-15.652,0.35-23.478,0.527c-0.399,0.009-0.798,0.053-1.323,0.088
			c0.792,4.734,1.566,9.382,2.396,14.028c0.456,0.212,0.856,0.408,1.263,0.586c4.41,1.919,8.821,3.835,13.232,5.753
			c6.578,2.86,13.155,5.724,19.736,8.578C181.149,111.555,181.497,111.796,181.997,111.796z M161.845,100.984l-5.136-2.233
			l-8.095-3.52c-0.091-0.04-0.182-0.081-0.274-0.122c-0.631-3.566-1.225-7.093-1.84-10.766c4.234-0.096,8.468-0.19,12.702-0.284
			l9.8-0.219l12.38-0.28l9.142-0.207l8.675-0.195l13.213-0.298c0.863-0.02,1.727-0.041,2.59-0.062l-8.113,6.526l-25.214,20.281
			c-0.032-0.015-0.064-0.029-0.097-0.043c-4.943-2.144-9.884-4.293-14.826-6.443L161.845,100.984z"/>
		<path id="XMLID_221_" fill="#FFFFFF" d="M68.907,173.792c-0.939,0.487-1.615,1.2-2.381,1.786c-0.745,0.57-1.463,1.174-2.196,1.759
			c-0.761,0.608-1.526,1.212-2.337,1.856c-1.467-1.174-2.647-2.589-4.105-3.737c-0.378,0.226-0.729,0.425-1.069,0.64
			c-2.517,1.588-5.031,3.181-7.55,4.766c-0.284,0.179-0.538,0.441-0.974,0.441c-0.028,0-0.057-0.001-0.086-0.003
			c-0.635-0.885-1.196-1.877-1.825-2.824c-0.65-0.979-1.193-2.031-1.974-2.988c-0.201,0.12-0.379,0.206-0.534,0.32
			c-14.017,10.32-28.032,20.643-42.044,30.969c-0.019,0.014-0.002,0.078-0.002,0.174c0.481,0.172,1.004,0.183,1.52,0.221
			c0.773,0.057,1.547,0.087,2.32,0.143c3.05,0.218,6.099,0.443,9.148,0.661c2.643,0.189,5.287,0.37,7.93,0.559
			c3.09,0.221,6.18,0.448,9.27,0.67c2.602,0.187,5.205,0.366,7.808,0.555c2.887,0.209,5.773,0.428,8.659,0.64
			c3.049,0.223,6.098,0.449,9.148,0.66c0.519,0.036,1.04,0.104,1.584,0.104c0.3,0,0.608-0.021,0.927-0.079
			c2.921-12.242,5.842-24.484,8.759-36.728C68.938,174.205,68.907,174.039,68.907,173.792z M58.813,208.044l-0.259,1.084
			c-0.084-0.007-0.17-0.015-0.257-0.022c-0.176-0.016-0.351-0.031-0.526-0.043c-2.625-0.181-5.249-0.374-7.873-0.566l-1.267-0.093
			l-3.818-0.283c-1.614-0.12-3.228-0.24-4.842-0.357c-1.462-0.106-2.925-0.209-4.387-0.312l-3.422-0.243l-4.387-0.317
			c-1.628-0.118-3.256-0.236-4.884-0.353c-1.312-0.094-2.623-0.186-3.935-0.278c-1.332-0.093-2.663-0.187-3.995-0.282l-4.408-0.319
			c-1.164-0.085-2.328-0.169-3.493-0.253c12.281-9.049,24.564-18.095,36.839-27.134c0.046,0.075,0.092,0.151,0.139,0.227
			c0.223,0.365,0.445,0.727,0.68,1.081c0.245,0.368,0.479,0.744,0.711,1.117c0.364,0.584,0.74,1.188,1.155,1.766l0.544,0.757
			l0.93,0.071c0.081,0.006,0.161,0.009,0.238,0.009c0.98,0,1.635-0.464,1.95-0.686c0.03-0.021,0.059-0.042,0.089-0.061
			c1.535-0.966,3.068-1.934,4.601-2.903l2.744-1.733c0.296,0.276,0.591,0.564,0.894,0.859c0.675,0.658,1.372,1.338,2.171,1.977
			l1.245,0.996l1.248-0.991l0.734-0.582c0.547-0.434,1.078-0.855,1.608-1.278c0.076-0.061,0.152-0.122,0.229-0.183
			C63.477,188.493,61.145,198.269,58.813,208.044z"/>
		<path id="XMLID_224_" fill="#FFFFFF" d="M62.325,17.208c6.233,14.486,12.467,28.971,18.703,43.455
			c0.015,0.034,0.056,0.059,0.088,0.083c0.032,0.023,0.068,0.04,0.196,0.114c0.349-0.103,0.776-0.218,1.195-0.354
			c12.748-4.142,25.495-8.287,38.242-12.431c3.487-1.134,6.976-2.262,10.458-3.412c0.356-0.117,0.813-0.108,1.073-0.619
			c-23.36-9.27-46.682-18.524-70.042-27.794c-0.099,0.199-0.123,0.231-0.131,0.266c-0.008,0.039-0.011,0.085,0.002,0.121
			C62.178,16.829,62.244,17.021,62.325,17.208z M104.191,35.049l22.587,8.963c-1.508,0.492-3.017,0.982-4.526,1.472l-2.12,0.689
			l-0.981,0.319c-12.294,3.997-24.589,7.994-36.884,11.99c-5.561-12.917-11.12-25.833-16.679-38.751L104.191,35.049z"/>
		<path id="XMLID_227_" fill="#FFFFFF" d="M137.522,42.613c19.827-6.45,39.463-12.828,59.145-19.24
			c-0.356-0.474-0.831-0.512-1.235-0.656c-15.124-5.379-30.252-10.75-45.379-16.12c-4.991-1.772-9.984-3.542-14.977-5.307
			c-0.306-0.108-0.602-0.28-0.989-0.28c-0.079,0-0.162,0.007-0.249,0.024c1.124,13.096,2.312,26.158,3.432,39.225
			C137.332,40.985,137.424,41.709,137.522,42.613z M149.383,8.482c13.8,4.899,27.6,9.798,41.398,14.704
			c-11.343,3.694-22.678,7.379-34.05,11.077l-17.481,5.685c-0.563-6.567-1.143-13.133-1.724-19.702
			c-0.485-5.489-0.971-10.981-1.446-16.479C140.516,5.336,144.95,6.908,149.383,8.482z"/>
		<path id="XMLID_230_" fill="#FFFFFF" d="M144.007,79.649c0.001,0,0.002,0,0.002,0c24.533,0,49.067-0.991,73.831-1.539
			c-0.282-0.242-0.357-0.302-0.459-0.342c-26.326-10.444-52.653-20.862-78.983-31.297c-0.011-0.004-0.023,0.005-0.036,0.005
			c-0.06,0-0.15,0.045-0.31,0.077c0.424,2.759,0.922,5.515,1.389,8.273c0.469,2.772,0.951,5.544,1.424,8.315
			c0.473,2.771,0.938,5.545,1.412,8.316c0.473,2.762,0.899,5.442,1.421,8.128C143.865,79.671,143.937,79.649,144.007,79.649z
			 M142.838,62.807c-0.199-1.167-0.4-2.334-0.601-3.501c-0.276-1.603-0.552-3.206-0.823-4.81c-0.141-0.835-0.286-1.67-0.43-2.505
			c-0.142-0.821-0.286-1.654-0.427-2.491c22.623,8.967,45.241,17.935,67.862,26.909c-21.124,0.468-42.097,0.932-63.036,1.392
			c-0.25-1.379-0.483-2.786-0.71-4.157c-0.139-0.84-0.279-1.682-0.423-2.523c-0.258-1.505-0.512-3.011-0.767-4.517
			C143.268,65.339,143.054,64.073,142.838,62.807z"/>
		<path id="XMLID_233_" fill="#FFFFFF" d="M76.001,136.792c0.345-1.592,0.678-3.187,1.021-4.78c1.925-8.96,3.852-17.92,5.775-26.88
			c1.376-6.412,2.748-12.824,4.117-19.238c0.044-0.208,0.23-0.445-0.1-0.676c-0.366,0.215-0.753,0.432-1.13,0.666
			c-7.341,4.554-14.681,9.111-22.022,13.666c-6.821,4.233-13.644,8.464-20.461,12.703c-0.37,0.23-0.819,0.377-1.061,0.845
			c0.069,0.42,0.133,0.862,0.215,1.301c0.537,2.842,1.111,5.677,1.596,8.527c0.134,0.785,0.436,1.279,1.192,1.492
			c0.039,0.011,0.075,0.031,0.113,0.047c9.781,4.273,19.562,8.547,29.343,12.819c0.332,0.145,0.672,0.273,1.126,0.456
			C75.846,137.334,75.942,137.067,76.001,136.792z M74.626,133.657c-0.094,0.445-0.189,0.889-0.284,1.333l-24.009-10.488
			l-4.264-1.863c-0.049-0.023-0.099-0.045-0.15-0.065c-0.345-2.024-0.739-4.064-1.119-6.037c-0.161-0.836-0.323-1.672-0.481-2.509
			c-0.007-0.035-0.013-0.069-0.019-0.104c5.298-3.294,10.599-6.583,15.9-9.873l4.516-2.802l6.913-4.29l12.537-7.78
			c-1.106,5.178-2.215,10.356-3.326,15.533l-3.407,15.857l-2.369,11.023L74.626,133.657z"/>
		<path id="XMLID_236_" fill="#FFFFFF" d="M89.295,86.882c-3.699,17.147-7.35,34.23-11.022,51.308
			c-0.041,0.192-0.023,0.396-0.036,0.665c0.442,0.206,0.771,0.366,1.107,0.513c8.848,3.868,17.697,7.734,26.545,11.601
			c4.181,1.828,8.36,3.661,12.545,5.48c0.263,0.115,0.522,0.313,0.838,0.313c0.059,0,0.12-0.007,0.184-0.023
			c-0.206-0.749-29.242-68.515-29.809-69.569C89.598,87.077,89.473,87.024,89.295,86.882z M115.772,153.108
			c-1.828-0.798-3.655-1.597-5.483-2.397l-3.598-1.574l-11.229-4.908l-15.029-6.568c1.353-6.295,2.704-12.591,4.055-18.891
			c1.84-8.578,3.682-17.164,5.533-25.764C95.645,106.005,110.576,140.851,115.772,153.108z"/>
		<path id="XMLID_239_" fill="#FFFFFF" d="M55.833,57.069c5.01,2.178,10.025,4.344,15.024,6.547c0.36,0.159,0.694,0.239,1.033,0.239
			c0.269,0,0.542-0.05,0.834-0.152c1.655-0.576,3.331-1.092,4.995-1.64c0.299-0.099,0.583-0.241,0.947-0.393
			c-0.208-0.509-0.383-0.959-0.574-1.403c-3.446-8.015-6.895-16.028-10.34-24.043c-2.721-6.329-5.435-12.662-8.163-18.988
			c-0.169-0.391-0.249-0.851-0.621-1.131c-0.86,0.564-31.116,27.465-31.932,28.414c0.553,0.253,0.989,0.462,1.431,0.654
			C37.588,49.139,46.711,53.104,55.833,57.069z M58.299,19.293c1.649,3.829,3.294,7.659,4.94,11.489l2.676,6.229l5.433,12.633
			l4.673,10.867c-0.229,0.074-0.457,0.147-0.686,0.221c-1.071,0.344-2.177,0.701-3.268,1.081c-0.076,0.026-0.138,0.041-0.176,0.041
			c-0.045,0-0.127-0.025-0.227-0.069c-3.818-1.682-7.706-3.37-11.467-5.002l-3.566-1.549l-4.284-1.862l-21.735-9.449
			C36.478,38.598,52.72,24.148,58.299,19.293z"/>
		<path id="XMLID_242_" fill="#FFFFFF" d="M185.369,128.735c-0.996-3.402-1.994-6.803-3.005-10.2
			c-0.071-0.24-0.002-0.604-0.464-0.677c-0.19,0.478-0.393,0.96-0.574,1.45c-5.187,14.026-10.372,28.052-15.557,42.079
			c-1.455,3.937-2.909,7.874-4.359,11.812c-0.091,0.247-0.323,0.5,0.023,0.834c10.864-4.346,21.757-8.703,32.648-13.063
			c0.183-0.073,0.349-0.188,0.606-0.329c-0.128-0.465-0.221-0.819-0.324-1.171C191.365,149.226,188.368,138.98,185.369,128.735z
			 M164.475,170.662c1.055-2.861,2.112-5.721,3.169-8.581c4.724-12.781,9.449-25.561,14.175-38.341
			c0.546,1.852,1.089,3.704,1.631,5.557c2.95,10.077,5.898,20.156,8.845,30.234C183.016,163.246,173.736,166.958,164.475,170.662z"
			/>
		<path id="XMLID_245_" fill="#FFFFFF" d="M55.975,84.302c-6.356,0.143-12.712,0.333-19.068,0.483
			c-2.852,0.068-5.704,0.152-8.555,0.227c-0.23,0.006-0.459,0.072-0.75,0.115c0,0.513-0.016,0.96,0.003,1.4
			c0.139,3.257,0.302,6.516,0.416,9.774c0.025,0.7,0.252,1.214,0.737,1.719c3.81,3.97,7.594,7.965,11.389,11.949
			c0.22,0.232,0.467,0.438,0.692,0.646c0.168-0.049,0.296-0.059,0.394-0.119c14.096-8.742,28.189-17.487,42.28-26.235
			c0.093-0.058,0.156-0.233,0.396-0.497c-0.446-0.021-0.715-0.117-0.969-0.117c-0.024,0-0.048,0-0.072,0
			C73.902,83.649,64.938,84.101,55.975,84.302z M41.192,108.168l-2.979-3.131c-2.667-2.805-5.334-5.609-8.014-8.401
			c-0.166-0.173-0.175-0.227-0.181-0.403c-0.077-2.2-0.176-4.399-0.275-6.598c-0.04-0.879-0.079-1.758-0.117-2.638
			c2.443-0.062,4.885-0.12,7.328-0.178l5.314-0.127c4.584-0.11,9.167-0.219,13.751-0.322c7.014-0.157,14.028-0.309,21.043-0.459
			C65.107,93.333,53.15,100.752,41.192,108.168z"/>
		<path id="XMLID_248_" fill="#FFFFFF" d="M222.748,82.5c-0.092,0.037-0.215,0.057-0.3,0.125
			c-12.549,10.08-25.094,20.164-37.827,30.397c0.602,0.285,0.993,0.483,1.394,0.657c7.508,3.267,15.018,6.531,22.528,9.796
			c2.989,1.3,5.975,2.606,8.969,3.892c0.257,0.11,0.513,0.305,0.824,0.305c0.11,0,0.226-0.024,0.352-0.085
			c0.17-1.696,0.349-3.395,0.509-5.096c0.362-3.854,0.708-7.709,1.073-11.563c0.365-3.854,0.75-7.705,1.12-11.558
			c0.405-4.218,0.803-8.437,1.201-12.656c0.115-1.217,0.221-2.435,0.319-3.653C222.925,82.877,222.998,82.656,222.748,82.5z
			 M219.4,99.178c-0.162,1.692-0.328,3.384-0.493,5.075c-0.211,2.162-0.422,4.323-0.627,6.485c-0.2,2.104-0.393,4.208-0.587,6.313
			c-0.161,1.751-0.322,3.501-0.487,5.252c-0.083,0.881-0.171,1.762-0.26,2.642c-1.792-0.773-3.581-1.553-5.37-2.332l-2.235-0.973
			l-5.271-2.292c-5.219-2.269-10.438-4.538-15.657-6.809c10.811-8.689,21.497-17.277,32.173-25.854
			C220.193,90.851,219.799,95.015,219.4,99.178z"/>
		<path id="XMLID_251_" fill="#FFFFFF" d="M60.912,167.06c0.937,0.779,1.809,1.636,2.775,2.518c0.344-0.273,0.57-0.443,0.786-0.626
			c1.586-1.343,3.177-2.681,4.754-4.036c1.065-0.915,0.829-0.492,1.138-1.911c1.558-7.164,3.089-14.333,4.621-21.502
			c0.083-0.386,0.252-0.781,0.068-1.234c-0.197-0.097-0.41-0.212-0.63-0.309c-10.305-4.495-20.611-8.987-30.917-13.479
			c-0.021-0.009-0.046-0.012-0.071-0.012c-0.016,0-0.033,0.001-0.049,0.003c-0.04,0.004-0.079,0.019-0.119,0.029
			c-1.148,1.03-3.605,3.756-4.084,4.541c0.192,0.339,0.389,0.695,0.594,1.046c6.11,10.493,12.232,20.979,18.315,31.488
			C58.86,164.899,59.734,166.08,60.912,167.06z M41.582,131.209c0.6-0.707,1.468-1.67,2.205-2.424
			c9.719,4.236,19.438,8.473,29.156,12.711c-1.477,6.913-3.002,14.05-4.532,21.084c-0.043,0.196-0.076,0.36-0.103,0.497
			c-0.107,0.088-0.234,0.193-0.384,0.322c-1.211,1.041-2.431,2.072-3.651,3.103l-0.502,0.425c-0.51-0.473-1.035-0.952-1.58-1.405
			c-0.867-0.721-1.619-1.658-2.366-2.949c-4.594-7.936-9.286-15.99-13.824-23.779L41.582,131.209z"/>
		<path id="XMLID_254_" fill="#FFFFFF" d="M110.632,80.638c0.052,0,0.104-0.001,0.157-0.004c1.099-0.051,2.2-0.093,3.3-0.118
			c8.641-0.192,17.283-0.377,25.924-0.568c0.32-0.007,0.64-0.046,1.129-0.083c-1.839-10.823-3.654-21.504-5.473-32.185
			c-0.046-0.271-0.135-0.536-0.212-0.83c-0.169,0.057-0.303,0.066-0.389,0.135c-11.888,9.55-23.772,19.105-35.653,28.664
			c-0.049,0.04-0.043,0.148-0.074,0.265c0.122,0.075,0.247,0.174,0.388,0.236c3.25,1.419,6.502,2.831,9.751,4.251
			C109.854,80.565,110.232,80.638,110.632,80.638z M102.95,75.373c10.378-8.349,20.758-16.694,31.141-25.037
			c1.492,8.764,2.983,17.535,4.488,26.392l0.212,1.247l-10.822,0.237l-13.925,0.305c-1.001,0.022-2.065,0.06-3.348,0.119
			l-0.064,0.002c-0.135,0-0.24-0.021-0.351-0.069c-1.775-0.776-3.551-1.549-5.328-2.323L102.95,75.373z"/>
		<path id="XMLID_257_" fill="#FFFFFF" d="M74.448,169.203c5.454,5.78,10.915,11.552,16.372,17.328
			c3.275,3.465,6.544,6.936,9.825,10.396c0.293,0.31,0.533,0.709,1.062,0.859c5.297-11.851,10.582-23.674,15.862-35.499
			c0.045-0.102,0.026-0.233,0.051-0.514c-14.81,1.945-29.563,3.892-44.484,5.872C73.564,168.368,74.034,168.764,74.448,169.203z
			 M114.526,164.197c-4.496,10.067-8.995,20.133-13.504,30.22c-1.875-1.98-3.747-3.962-5.618-5.945l-3.13-3.315l-5.036-5.328
			c-3.369-3.564-6.739-7.129-10.106-10.696C89.658,167.472,102.078,165.833,114.526,164.197z"/>
		<path id="XMLID_260_" fill="#FFFFFF" d="M144.283,98.294c-1.453-0.642-2.827-1.318-4.351-1.84
			c-0.256,0.543-0.35,1.064-0.487,1.566c-3.568,13.088-7.132,26.176-10.694,39.265c-1.605,5.896-3.204,11.794-4.8,17.692
			c-0.068,0.25-0.08,0.515-0.127,0.834c0.93-0.467,25.67-17.81,27.029-18.946C148.661,124.003,146.474,111.16,144.283,98.294z
			 M130.68,137.81c3.511-12.9,7.024-25.799,10.54-38.698c0.398,0.174,0.798,0.355,1.206,0.54c0.021,0.01,0.042,0.019,0.064,0.029
			l2.898,17.015l3.288,19.303c-3.413,2.486-15.213,10.776-21.636,15.22C128.251,146.749,129.464,142.279,130.68,137.81z"/>
		<path id="XMLID_263_" fill="#FFFFFF" d="M79.927,178.607c-2.215-2.338-4.427-4.679-6.647-7.011c-0.19-0.2-0.333-0.501-0.697-0.501
			c-0.038,0-0.078,0.003-0.122,0.01c-0.109,0.414-0.229,0.841-0.333,1.271c-2.233,9.226-4.463,18.453-6.696,27.678
			c-0.757,3.128-1.529,6.252-2.279,9.381c-0.089,0.373-0.279,0.755-0.138,1.199c0.21-0.016,0.374-0.003,0.524-0.044
			c12.306-3.327,24.611-6.658,37.124-10.045c-0.462-0.51-0.753-0.843-1.056-1.163C93.047,192.457,86.487,185.532,79.927,178.607z
			 M65.563,207.972c0.301-1.244,0.604-2.487,0.908-3.73c0.302-1.239,0.605-2.478,0.905-3.717l3.698-15.285l2.519-10.412
			c1.067,1.125,2.133,2.25,3.199,3.376l1.684,1.778l5.125,5.41l13.345,14.089C86.39,202.338,75.972,205.158,65.563,207.972z"/>
		<path id="XMLID_266_" fill="#FFFFFF" d="M26.555,61.247c0.209,4.97,0.397,9.94,0.598,14.91c0.021,0.529,0.059,1.059,0.106,1.586
			c0.017,0.194,0.082,0.384,0.142,0.649c0.442-0.133,0.83-0.241,1.214-0.366c7.17-2.327,14.34-4.656,21.509-6.986
			c5.464-1.775,10.929-3.548,16.39-5.335c0.436-0.143,0.933-0.192,1.357-0.611c-0.437-0.208-0.795-0.391-1.163-0.551
			c-9.866-4.293-19.733-8.584-29.6-12.876c-3.401-1.479-6.8-2.963-10.206-4.431c-0.19-0.082-0.382-0.232-0.617-0.232
			c-0.101,0-0.209,0.027-0.328,0.099c0,0.221-0.009,0.462,0.001,0.703C26.156,52.287,26.366,56.767,26.555,61.247z M34.047,52.517
			l2.263,0.985l5.916,2.573c6.766,2.943,13.533,5.886,20.299,8.83c-3.464,1.13-6.929,2.256-10.394,3.381l-2.625,0.853
			c-6.789,2.206-13.578,4.411-20.368,6.615c-0.072-1.784-0.142-3.568-0.213-5.352c-0.121-3.08-0.243-6.159-0.372-9.239
			c-0.122-2.912-0.254-5.824-0.385-8.735l-0.113-2.515C30.053,50.778,32.05,51.648,34.047,52.517z"/>
		<path id="XMLID_269_" fill="#FFFFFF" d="M193.255,119.571c-2.691-1.171-5.38-2.345-8.074-3.51
			c-0.204-0.088-0.409-0.233-0.666-0.233c-0.083,0-0.172,0.015-0.267,0.052c0.134,0.484,0.247,0.913,0.372,1.338
			c1.75,5.984,3.5,11.969,5.253,17.952c2.188,7.47,4.379,14.939,6.568,22.408c0.087,0.297,0.109,0.628,0.396,0.832
			c0.682-0.676,20.308-26.684,21.154-28.049c-0.46-0.213-0.821-0.388-1.189-0.548C208.953,126.398,201.104,122.985,193.255,119.571z
			 M197.549,154.253l-1.157-3.946l-4.602-15.699c-1.51-5.154-3.017-10.308-4.525-15.462c0.929,0.404,1.857,0.808,2.786,1.213
			l2.405,1.047l7.901,3.437l14.576,6.34C211.372,136.005,201.891,148.584,197.549,154.253z"/>
		<path id="XMLID_272_" fill="#FFFFFF" d="M148.089,99.934c-0.212-0.092-0.418-0.241-0.686-0.241c-0.085,0-0.176,0.015-0.275,0.051
			c0.024,0.193,0.04,0.388,0.072,0.58c0.474,2.812,0.948,5.624,1.426,8.435c0.771,4.538,1.546,9.076,2.317,13.614
			c0.675,3.976,1.344,7.952,2.025,11.927c0.037,0.214,0.158,0.414,0.284,0.733c8.756-7.049,17.434-14.005,26.082-20.997
			c0.083-0.067,0.122-0.19,0.228-0.364c-0.424-0.206-0.809-0.412-1.207-0.585c-5.716-2.487-11.433-4.969-17.15-7.454
			C156.833,103.734,152.463,101.83,148.089,99.934z M175.931,114.214c-5.112,4.128-10.236,8.247-15.382,12.384
			c-2.009,1.615-4.022,3.234-6.039,4.856c-0.302-1.777-0.603-3.555-0.904-5.332l-0.692-4.083l-1.224-7.191l-1.093-6.423
			c-0.319-1.879-0.637-3.757-0.954-5.636c2.239,0.972,4.477,1.945,6.715,2.919l4.048,1.76l5.82,2.529
			C169.462,111.402,172.697,112.808,175.931,114.214z"/>
		<path id="XMLID_275_" fill="#FFFFFF" d="M77.634,141.493c-0.1,0.339-0.219,0.676-0.298,1.022
			c-1.882,8.308-4.64,21.491-4.686,22.426c0.149,0.045,0.227,0.091,0.293,0.091c0.006,0,0.011,0,0.017-0.001
			c14.921-1.923,29.842-3.851,44.762-5.78c0.038-0.005,0.081-0.028,0.107-0.056c0.02-0.022,0.019-0.064,0.041-0.155
			c-0.11-0.074-0.229-0.178-0.366-0.244C113.524,156.896,78.789,141.815,77.634,141.493z M75.07,162.743
			c0.786-3.996,2.505-12.153,3.936-18.539c5.862,2.462,22.925,9.863,32.052,13.893C99.061,159.647,87.068,161.196,75.07,162.743z"/>
		<path id="XMLID_278_" fill="#FFFFFF" d="M71.546,66.824c-0.257,0-0.519,0.048-0.802,0.144c-3.012,1.014-6.04,1.978-9.063,2.961
			c-11.043,3.59-22.177,7.18-33.22,10.774c-0.379,0.123-0.196,0.28-1.196,0.415c0,0.44,0,0.796,0,1.291
			c1,0.015,0.801,0.037,1.087,0.037c0.034,0,0.113,0,0.147-0.001c3.342-0.07,6.707-0.143,10.049-0.219
			c7.132-0.161,14.276-0.328,21.408-0.487c8.64-0.192,17.287-0.377,25.927-0.567c0.318-0.007,0.638-0.044,1.055-0.074
			c-0.118-0.371-0.188-0.681-0.31-0.969c-1.103-2.587-2.227-5.164-3.312-7.758c-0.242-0.578-0.625-0.895-1.181-1.133
			c-3.221-1.381-6.437-2.775-9.64-4.196C72.166,66.896,71.859,66.824,71.546,66.824z M81.471,73.136
			c0,0.001,0.001,0.004,0.002,0.007c0.699,1.673,1.416,3.339,2.132,5.006c0.152,0.354,0.305,0.709,0.457,1.064l-10.035,0.219
			c-4.701,0.102-9.402,0.205-14.103,0.309c-4.363,0.097-8.727,0.197-13.09,0.297l-8.307,0.19c-0.734,0.017-1.468,0.033-2.202,0.049
			c7.793-2.535,15.587-5.069,23.38-7.602l2.595-0.844l2.44-0.79c2.178-0.704,4.43-1.432,6.642-2.177
			c0.113-0.038,0.159-0.039,0.164-0.039c0.01,0,0.053,0.008,0.139,0.047c2.911,1.291,5.981,2.628,9.664,4.206
			C81.412,73.104,81.45,73.124,81.471,73.136z"/>
		<path id="XMLID_281_" fill="#FFFFFF" d="M35.874,178.457c-2.139,0.045-4.264,0.351-6.412,0.383
			c-0.252-0.378-0.482-0.711-0.698-1.051c-0.766-1.204-1.524-2.413-2.297-3.612c-0.124-0.192-0.312-0.343-0.49-0.534
			c-0.472,0.271-0.896,0.51-1.316,0.758c-1.825,1.078-3.648,2.161-5.476,3.234c-0.237,0.139-0.502,0.231-0.783,0.358
			c-2.56-2.208-5.087-4.388-7.649-6.598c-0.248,0.115-0.369,0.15-0.465,0.218c-1.596,1.133-3.182,2.279-4.786,3.401
			c-0.401,0.281-0.594,0.627-0.669,1.103c-0.253,1.61-0.529,3.217-0.806,4.823c-1.33,7.71-2.664,15.42-3.992,23.13
			c-0.031,0.182-0.021,0.372-0.035,0.673c0.276-0.155,0.46-0.234,0.618-0.35c11.753-8.58,23.504-17.162,35.253-25.747
			C35.891,178.632,35.874,178.57,35.874,178.457z M2.698,200.401l1.574-9.119l1.727-10.002c0.288-1.67,0.547-3.182,0.791-4.726
			c1.007-0.706,2.008-1.421,3.009-2.136c0.255-0.182,0.51-0.364,0.765-0.546l6.532,5.635l0.966,0.833l1.163-0.525
			c0.074-0.034,0.147-0.064,0.218-0.094c0.213-0.089,0.479-0.201,0.755-0.363c1.193-0.7,2.383-1.405,3.573-2.109l1.659-0.982
			c0.27,0.424,0.539,0.848,0.807,1.273l0.838,1.322c0.156,0.245,0.318,0.486,0.489,0.74l0.232,0.345l0.604,0.907l1.079-0.016
			C20.546,187.367,11.615,193.89,2.698,200.401z"/>
		<path id="XMLID_284_" fill="#FFFFFF" d="M39.613,173.988c0.567-0.466,1.133-0.933,1.7-1.399c0.567-0.466,1.126-0.941,1.702-1.395
			c0.568-0.448,1.079-0.976,1.769-1.359c0.274,0.38,0.516,0.7,0.741,1.032c0.893,1.315,1.777,2.636,2.676,3.946
			c0.125,0.182,0.322,0.314,0.499,0.483c0.178-0.165,0.305-0.267,0.414-0.386c2.432-2.637,4.864-5.274,7.289-7.916
			c0.157-0.171,0.266-0.386,0.427-0.624c-6.129-10.52-12.24-21.011-18.355-31.499c-0.057-0.097-0.168-0.162-0.328-0.31
			c-0.091,0.32-0.199,0.57-0.232,0.83c-0.339,2.709-0.668,5.419-0.995,8.129c-0.523,4.328-1.035,8.658-1.565,12.985
			c-0.609,4.974-1.233,9.946-1.844,14.92c-0.049,0.397-0.046,0.799-0.068,1.207c1.51,0.936,2.915,1.899,4.424,2.784
			C38.483,174.913,39.049,174.451,39.613,173.988z M36.284,172.069c-0.257-0.166-0.515-0.332-0.774-0.498
			c0.277-2.255,0.557-4.51,0.837-6.765c0.333-2.686,0.667-5.371,0.995-8.057c0.331-2.704,0.655-5.41,0.979-8.115l0.586-4.873
			c0.139-1.154,0.279-2.309,0.419-3.46c4.931,8.459,9.861,16.921,14.802,25.402l0.29,0.498c-1.85,2.014-3.703,4.025-5.554,6.032
			c-0.228-0.337-0.456-0.674-0.684-1.012c-0.333-0.493-0.666-0.986-1-1.478c-0.165-0.242-0.337-0.479-0.523-0.734l-0.249-0.343
			l-1.039-1.444l-1.555,0.864c-0.658,0.366-1.155,0.792-1.594,1.168c-0.147,0.126-0.292,0.251-0.442,0.369
			c-0.418,0.33-0.828,0.669-1.237,1.009l-0.497,0.412l-0.685,0.564l-1.013,0.834l-0.646,0.53
			C37.231,172.68,36.765,172.379,36.284,172.069z"/>
		<path id="XMLID_287_" fill="#FFFFFF" d="M179.035,117.703c-0.149,0.043-0.236,0.049-0.299,0.091
			c-0.169,0.113-0.332,0.236-0.491,0.364c-8.156,6.573-16.311,13.147-24.465,19.723c-0.03,0.024-0.048,0.066-0.066,0.102
			c-0.017,0.036-0.025,0.076-0.078,0.24c1.831,10.724,3.681,21.563,5.536,32.402c0.024,0.141,0.105,0.273,0.185,0.47
			c0.117-0.161,0.213-0.246,0.253-0.352c6.497-17.576,12.989-35.154,19.477-52.733C179.111,117.947,179.064,117.857,179.035,117.703
			z M160.038,163.817c-1.337-7.821-2.67-15.63-3.994-23.384l-0.271-1.59c6.403-5.163,12.806-10.325,19.21-15.487
			C170.003,136.843,165.022,150.331,160.038,163.817z"/>
		<path id="XMLID_290_" fill="#FFFFFF" d="M151.376,139.993c-0.203,0.048-0.339,0.043-0.427,0.105
			c-8.261,5.813-16.519,11.632-24.986,17.596c10.325,5.142,20.426,10.039,30.533,15.047c0.054,0.027,0.119-0.093,0.202-0.093
			c0.024,0,0.049,0,0.076,0c0.045,0,0.094,0.123,0.148,0.127c-0.031-0.31-0.043-0.526-0.089-0.797
			C155.029,161.304,153.216,150.693,151.376,139.993z M129.856,157.399c6.768-4.768,13.417-9.452,20.055-14.124
			c1.344,7.83,2.79,16.324,4.48,26.314C146.448,165.651,138.368,161.637,129.856,157.399z"/>
		<path id="XMLID_293_" fill="#FFFFFF" d="M23.03,171.463c1.34-0.97,2.427-2.132,3.763-3.057c0.339,0.279,0.655,0.529,0.958,0.794
			c0.86,0.75,1.712,1.51,2.572,2.259c0.113,0.098,0.226,0.224,0.38,0.224c0.045,0,0.095-0.011,0.148-0.036
			c0.207-0.838,4.692-36.785,4.804-38.534c0.015-0.236,0.002-0.473,0.002-0.776c-0.284,0.056-0.483,0.075-0.668,0.135
			c-3.638,1.187-15.182,5.465-16.174,5.995c-0.011,0.136-0.052,0.298-0.032,0.452c1.349,10.669,2.703,21.338,4.061,32.007
			C22.865,171.072,22.942,171.212,23.03,171.463z M33.428,135.118c-0.747,6.405-3.077,25.13-4.081,32.821
			c-0.093-0.082-0.187-0.164-0.28-0.245c-0.223-0.195-0.453-0.383-0.693-0.578l-0.307-0.251l-1.167-0.964l-1.244,0.861
			c-0.428,0.296-0.826,0.607-1.205,0.922c-1.184-9.31-2.365-18.619-3.543-27.93C23.502,138.728,29.62,136.456,33.428,135.118z"/>
		<path id="XMLID_296_" fill="#FFFFFF" d="M85.634,70.036c3.371,1.444,6.729,2.915,10.094,4.371
			c0.253,0.109,0.528,0.168,0.828,0.261c10.955-8.799,21.885-17.577,32.811-26.359c0.089-0.071,0.134-0.197,0.211-0.313
			c-0.09-0.026-0.176-0.037-0.259-0.037c-0.338,0-0.63,0.179-0.927,0.276c-9.532,3.09-19.06,6.192-28.589,9.292
			c-5.462,1.777-10.925,3.549-16.383,5.337c-0.408,0.134-0.9,0.14-1.203,0.609c0.781,1.817,1.584,3.643,2.347,5.486
			C84.784,69.486,85.109,69.811,85.634,70.036z M96.796,60.607l3.625-1.179l4.815-1.566c5.068-1.649,10.135-3.297,15.203-4.944
			c-7.84,6.299-15.684,12.599-23.54,18.909l-0.734,0.59c-1.093-0.473-2.185-0.948-3.277-1.422c-2.154-0.936-4.308-1.872-6.467-2.797
			c-0.003-0.001-0.006-0.002-0.008-0.004c0,0,0-0.001,0-0.001c-0.513-1.24-1.049-2.482-1.572-3.691
			C88.824,63.198,92.81,61.903,96.796,60.607z"/>
		<path id="XMLID_299_" fill="#FFFFFF" d="M4.651,161.567c-0.174,0.29-0.224,0.593-0.189,0.935c0.234,2.27,0.45,4.541,0.681,6.811
			c0.02,0.192,0.111,0.377,0.187,0.625c1.031-0.553,1.835-1.306,2.718-1.945c0.921-0.667,1.818-1.367,2.776-2.09
			c1.303,1.422,2.278,3.03,3.591,4.425c0.255-0.243,0.467-0.425,0.657-0.627c0.502-0.535,0.988-1.085,1.497-1.614
			c0.156-0.162,0.363-0.274,0.458-0.344c0.581,0.529,1.094,0.993,1.603,1.461c0.493,0.454,0.856,1.059,1.622,1.473
			c-1.228-9.73-2.429-19.298-3.669-28.946c-0.541,0.267-0.675,0.72-0.891,1.086c-3.543,6-7.075,12.006-10.609,18.011
			C4.939,161.074,4.798,161.322,4.651,161.567z M6.647,162.117l0.16-0.274l1.857-3.156c2.209-3.754,4.419-7.509,6.631-11.261
			c0.761,5.964,1.511,11.915,2.267,17.91l0.027,0.215l-0.427-0.389l-1.32,0.968c-0.154,0.1-0.441,0.286-0.715,0.571
			c-0.202,0.21-0.4,0.423-0.597,0.637c-0.123-0.161-0.247-0.324-0.372-0.49c-0.572-0.756-1.164-1.538-1.858-2.296l-1.229-1.341
			l-1.452,1.096c-0.297,0.225-0.589,0.447-0.877,0.667c-0.629,0.48-1.242,0.947-1.866,1.399c-0.005,0.004-0.01,0.008-0.016,0.011
			c-0.014-0.139-0.027-0.278-0.041-0.418c-0.116-1.178-0.233-2.356-0.354-3.538C6.527,162.325,6.587,162.221,6.647,162.117z"/>
		<path id="XMLID_302_" fill="#FFFFFF" d="M138.103,92.772c0.097-0.151,0.191-0.244,0.221-0.354
			c0.847-3.145,1.688-6.292,2.524-9.441c0.029-0.111,0.004-0.236,0.004-0.503c-0.325,0-0.606-0.003-0.871-0.003
			c-0.153,0-0.3,0.001-0.447,0.005c-5.825,0.135-11.649,0.275-17.474,0.409c-1.629,0.037-3.259,0.055-4.889,0.089
			c-0.302,0.006-0.628-0.03-0.873,0.247c0.873,0.56,11.833,5.396,20.908,9.229C137.497,92.572,137.801,92.664,138.103,92.772z
			 M124.594,84.827c2.556-0.059,5.112-0.12,7.669-0.18l6.111-0.143c-0.5,1.877-1.002,3.754-1.506,5.63
			C132.58,88.316,128.151,86.396,124.594,84.827z"/>
		<path id="XMLID_305_" fill="#FFFFFF" d="M24.608,79.229c0.034-0.073,0.101-0.147,0.098-0.218
			c-0.326-8.108-0.657-16.216-0.991-24.324c-0.008-0.191-0.048-0.38-0.078-0.606c-0.108,0.091-0.202,0.128-0.217,0.187
			c-2.439,9.136-4.873,18.273-7.302,27.411c-0.017,0.064,0.04,0.148,0.087,0.305C17.499,81.7,23.738,79.648,24.608,79.229z
			 M22.201,66.596c0.153,3.747,0.305,7.494,0.456,11.241c-0.983,0.348-2.444,0.838-3.786,1.269
			C19.98,74.936,21.09,70.766,22.201,66.596z"/>
		<path id="XMLID_308_" fill="#FFFFFF" d="M17.208,112.838c-0.259,0-0.523,0.02-0.791,0.073c0.122,1.358,0.242,2.652,0.355,3.948
			c0.361,4.142,0.716,8.285,1.08,12.427c0.107,1.218,0.23,2.435,0.36,3.651c0.019,0.176-0.037,0.418,0.252,0.503
			c0.087-0.066,0.199-0.121,0.268-0.209c2.107-2.697,4.21-5.398,6.32-8.107c-0.673-4.008-2.123-10.635-2.58-11.766
			c-0.973-0.104-1.979-0.262-2.99-0.304C18.735,113.023,17.991,112.838,17.208,112.838z M22.931,124.593l-0.298,0.382
			c-0.945,1.213-1.889,2.425-2.833,3.636c-0.206-2.347-0.409-4.694-0.612-7.041l-0.424-4.884c-0.049-0.565-0.1-1.13-0.151-1.701
			c0.249,0.03,0.514,0.057,0.787,0.068c0.498,0.021,1.005,0.074,1.533,0.137C21.44,117.159,22.335,121.237,22.931,124.593z"/>
		<path id="XMLID_311_" fill="#FFFFFF" d="M7.784,126.006c0.68,0.703,1.365,1.4,2.049,2.098c1.711,1.746,3.419,3.494,5.138,5.231
			c0.153,0.154,0.261,0.422,0.521,0.422c0.044,0,0.092-0.008,0.146-0.025c0.008-2.211-1.695-20.742-1.973-21.097
			c-0.232-0.022-0.509,0.013-0.788,0.013c-0.002,0-0.003,0-0.005,0c-0.069,0-0.144-0.017-0.318,0.065
			c-1.734,4.203-3.5,8.445-5.273,12.745C7.471,125.684,7.617,125.834,7.784,126.006z M11.961,119.31l0.393-0.954
			c0.32,3.207,0.689,7.266,0.949,10.433c-0.347-0.355-0.695-0.709-1.042-1.064l-1-1.021l-0.313-0.319
			c-0.447-0.456-0.895-0.913-1.34-1.371L11.961,119.31z"/>
		<path id="XMLID_314_" fill="#FFFFFF" d="M20.079,85.177c-1.139,0.018-2.277,0.096-3.416,0.151
			c-0.037,0.002-0.08,0.028-0.107,0.056c-0.025,0.026-0.031,0.07-0.078,0.187c0.112,0.234,0.237,0.528,0.389,0.807
			c1.389,2.539,2.799,5.067,4.163,7.619c0.318,0.595,0.733,0.923,1.378,1.059c0.757,0.159,1.5,0.385,2.253,0.562
			c0.131,0.031,0.27,0.091,0.408,0.091c0.092,0,0.184-0.027,0.272-0.109c0.108-1.146-0.228-9.421-0.437-10.429
			c-0.99,0-1.957-0.007-2.914-0.007C21.35,85.164,20.714,85.167,20.079,85.177z M23.341,93.217
			c-0.171-0.041-0.345-0.081-0.521-0.118c0,0,0,0-0.001,0c-0.007-0.012-0.015-0.026-0.025-0.044
			c-0.941-1.763-1.918-3.538-2.863-5.254c-0.112-0.204-0.225-0.408-0.337-0.612c0.172-0.005,0.344-0.01,0.517-0.012
			c0.625-0.01,1.25-0.013,1.879-0.013c0.362,0,0.725,0.001,1.091,0.002C23.185,88.83,23.293,91.373,23.341,93.217z"/>
		<path id="XMLID_317_" fill="#FFFFFF" d="M16.121,109.676c0.014,0.153,0.089,0.3,0.159,0.522c1.833,0.183,3.65,0.367,5.468,0.544
			c0.071,0.007,0.142,0.009,0.214,0.009c0.125,0,0.252-0.007,0.382-0.007c0.034-0.194,0.094-0.316,0.069-0.419
			c-0.887-3.64-1.782-7.279-2.711-11.061c-0.255,0.215-0.366,0.275-0.43,0.368c-1.051,1.504-2.092,3.015-3.146,4.517
			c-0.324,0.461-0.409,0.953-0.355,1.505C15.902,106.994,16,108.336,16.121,109.676z M17.764,105.299
			c0.337-0.48,0.672-0.961,1.007-1.442c0.387,1.578,0.77,3.139,1.151,4.695c-0.635-0.063-1.27-0.127-1.907-0.19
			c-0.014-0.172-0.029-0.345-0.043-0.517c-0.066-0.795-0.132-1.589-0.209-2.383C17.751,105.343,17.761,105.299,17.764,105.299z"/>
		<path id="XMLID_320_" fill="#FFFFFF" d="M20.862,134.816c0.253-0.046,0.45-0.054,0.627-0.118c3.716-1.349,7.43-2.703,11.141-4.065
			c0.198-0.073,0.368-0.22,0.681-0.413c-2.189-1.143-4.243-2.214-6.338-3.308C26.012,127.9,21.384,133.887,20.862,134.816z
			 M28.555,129.995c-0.732,0.267-1.464,0.535-2.196,0.802c0.396-0.503,0.771-0.975,1.097-1.375L28.555,129.995z"/>
		<path id="XMLID_323_" fill="#FFFFFF" d="M5.885,120.943c0.033,0.134,0.151,0.247,0.247,0.399c0.699-1.281,3.493-8.134,3.701-9.068
			c-0.097-0.052-0.197-0.121-0.305-0.132c-1.821-0.181-3.642-0.494-5.464-0.494c-0.007,0-0.014,0-0.021,0
			c-0.103,0-0.214,0.04-0.358,0.083c0.015,0.167,0.01,0.313,0.046,0.462C4.444,115.116,5.16,118.024,5.885,120.943z M7.128,113.892
			c-0.174,0.445-0.367,0.931-0.569,1.431c-0.124-0.507-0.248-1.014-0.372-1.521C6.5,113.833,6.814,113.862,7.128,113.892z"/>
		<path id="XMLID_324_" fill="#FFFFFF" d="M93.38,77.212c0.19-0.153,0.368-0.32,0.548-0.484c0.029-0.026,0.052-0.068,0.057-0.106
			c0.005-0.037-0.016-0.078-0.026-0.117c-0.054-0.058-0.096-0.141-0.162-0.17c-2.24-0.981-4.481-1.959-6.726-2.927
			c-0.068-0.029-0.147-0.034-0.232-0.034c-0.041,0-0.084,0.001-0.128,0.001c-0.033,0-0.066-0.001-0.099-0.003
			c0.276,1.099,2.356,5.918,2.983,6.88C90.904,79.201,92.143,78.208,93.38,77.212z"/>
		<path id="XMLID_325_" fill="#FFFFFF" d="M103.236,80.68c0.005-0.081,0.01-0.163,0.016-0.244c-2.115-0.919-4.229-1.838-6.251-2.716
			c-0.205,0.068-0.297,0.074-0.356,0.121c-1.143,0.913-2.285,1.827-3.419,2.753c-0.068,0.055-0.061,0.202-0.108,0.378
			c3.224-0.026,6.391-0.061,9.556-0.188C102.862,80.775,103.048,80.715,103.236,80.68z"/>
		<path id="XMLID_326_" fill="#FFFFFF" d="M143.068,94.995c0.094,0.04,0.19,0.095,0.297,0.095c0.094,0,0.195-0.042,0.31-0.173
			c-0.334-2.301-0.739-4.652-1.194-6.995c-0.011-0.058-0.115-0.099-0.239-0.198c-0.606,1.91-1.056,3.831-1.56,5.737
			c-0.037,0.142,0.016,0.307,0.03,0.506C141.51,94.317,142.288,94.659,143.068,94.995z"/>
		<path id="XMLID_327_" fill="#FFFFFF" d="M24.944,98.383c-0.877-0.393-1.838-0.542-2.928-0.815c0,0.3-0.031,0.461,0.005,0.605
			c0.482,1.978,0.971,3.954,1.471,5.927c0.032,0.127,0.168,0.228,0.289,0.385C24.349,102.326,24.904,99.418,24.944,98.383z"/>
		<path id="XMLID_329_" fill="#FFFFFF" d="M75.921,65.314c-0.098,0.033-0.17,0.145-0.26,0.226c0.776,0.524,4.378,2.12,5.665,2.497
			c-0.422-1.405-1.193-3.137-1.737-3.901C78.363,64.465,77.145,64.899,75.921,65.314z"/>
		<path id="XMLID_330_" fill="#FFFFFF" d="M11.595,108.339c0.146-0.401,0.426-0.771,0.384-1.249c-0.892,0.21-3.68,1.453-4.846,2.185
			c1.41,0.267,2.649,0.353,3.898,0.36C11.243,109.155,11.444,108.756,11.595,108.339z"/>
		<path id="XMLID_331_" fill="#FFFFFF" d="M14.375,110.669c0.004-1.128-0.079-2.186-0.311-3.297c-0.566,0.839-1.09,2.082-1.34,3.167
			c0.331,0.132,0.663,0.216,1.02,0.216C13.945,110.755,14.153,110.728,14.375,110.669z"/>
		<path id="XMLID_335_" fill="#FFFFFF" d="M23.476,82.544c0.266,0,0.501,0.019,0.72,0.019c0.142,0,0.276-0.008,0.407-0.034
			c0.3-0.059,0.343-0.283,0.044-0.538C24.294,82.148,23.83,82.109,23.476,82.544z"/>
	</g>
</g>
</svg>
