<?xml version="1.0" encoding="utf-8"?>
<!-- Generator: Adobe Illustrator 25.4.1, SVG Export Plug-In . SVG Version: 6.00 Build 0)  -->
<svg version="1.1" id="Layer_1" xmlns="http://www.w3.org/2000/svg" xmlns:xlink="http://www.w3.org/1999/xlink" x="0px" y="0px"
	 viewBox="0 0 300 300" enable-background="new 0 0 300 300" xml:space="preserve">
<g>
	<g>
		<path fill="#FFFFFF" d="M118.173,248.84c-0.026-0.026-0.052-0.052-0.078-0.078c-3.314-3.392-6.132-7.281-8.272-11.56
			c-2.166,4.279-4.958,8.168-8.272,11.534c0,0-0.026,0-0.052,0.026c-0.444,0.444-0.887,0.887-1.331,1.305
			c-2.14,2.323-3.418,5.402-3.418,8.768c0,7.202,5.845,13.047,13.047,13.047c7.228,0,13.047-5.845,13.047-13.047
			c0-3.366-1.279-6.445-3.392-8.768C119.034,249.675,118.591,249.257,118.173,248.84z"/>
		<path fill="#FFFFFF" d="M158.21,248.84c-0.026-0.026-0.052-0.052-0.078-0.078c-3.314-3.392-6.132-7.281-8.272-11.56
			c-2.166,4.279-4.958,8.168-8.272,11.534c0,0-0.026,0-0.052,0.026c-0.444,0.444-0.887,0.887-1.331,1.305
			c-2.14,2.323-3.418,5.402-3.418,8.768c0,7.202,5.845,13.047,13.047,13.047c7.228,0,13.047-5.845,13.047-13.047
			c0-3.366-1.279-6.445-3.392-8.768C159.071,249.675,158.628,249.257,158.21,248.84z"/>
		<path fill="#FFFFFF" d="M197.303,248.84c-0.026-0.026-0.052-0.052-0.078-0.078c-3.314-3.392-6.132-7.281-8.272-11.56
			c-2.166,4.279-4.958,8.168-8.272,11.534c0,0-0.026,0-0.052,0.026c-0.444,0.444-0.887,0.887-1.331,1.305
			c-2.14,2.323-3.418,5.402-3.418,8.768c0,7.202,5.845,13.047,13.047,13.047c7.228,0,13.047-5.845,13.047-13.047
			c0-3.366-1.279-6.445-3.392-8.768C198.164,249.675,197.721,249.257,197.303,248.84z"/>
	</g>
	<path fill="#FFFFFF" d="M149.833,2.309h-0.011c-0.61,0-1.209,0.011-1.829,0.011C81.705,3.235,27.537,54.355,21.243,118.922
		c-0.446,4.617-0.653,9.288-0.599,14.024c0.033,3.354,0.207,6.685,0.501,9.984c1.296,14.895,5.161,29.268,11.258,42.54
		c6.217,13.534,14.764,25.947,25.337,36.661c4.127,4.192,8.558,8.123,13.284,11.759l0.12,25.163c0,1.568,0.196,3.081,0.555,4.551
		c1.296,11.062,7.219,20.72,15.766,26.992c3.136,2.319,6.631,4.159,10.376,5.455c4.007,1.383,8.297,2.134,12.761,2.134
		c2.657,0,5.248-0.261,7.763-0.773c4.236-0.86,8.221-2.395,11.857-4.497c5.771,3.343,12.478,5.27,19.61,5.27
		c7.132,0,13.839-1.927,19.599-5.27c2.047,1.176,4.214,2.189,6.479,2.994c4.116,1.47,8.536,2.276,13.142,2.276
		c5.923,0,11.552-1.318,16.583-3.68c6.522-3.06,12.064-7.861,16.006-13.806c3.364-5.009,5.597-10.823,6.337-17.094
		c0.338-1.448,0.534-2.983,0.534-4.551l0.098-18.445l0.033-6.707c22.974-17.661,39.089-42.214,46.231-69.772
		c2.733-10.507,4.148-21.45,4.148-32.621C279.022,60.278,221.074,2.309,149.833,2.309z M209.097,223.732l-0.152,33.84l-0.011,1.416
		h-0.283c0,10.834-8.776,19.61-19.599,19.61c-10.834,0-19.621-8.776-19.621-19.61c0,10.834-8.776,19.61-19.599,19.61
		c-10.834,0-19.61-8.776-19.61-19.61c0,10.834-8.787,19.61-19.621,19.61c-10.823,0-19.599-8.776-19.599-19.61h-0.283l-0.142-35.256
		c-29.986-19.305-49.922-52.797-50.347-90.993c-0.12-10.551,1.285-20.786,4.007-30.498c5.303-19.011,15.646-36.007,29.496-49.411
		l7.197,7.121L69.837,72.103l-2.972,3.266l2.101,2.385l2.885,3.266l17.236,19.544L77.96,77.1l12.794-7.458l13.349,13.186l3.68,3.626
		l3.245-3.277l17.465-17.682l18.162,51.36l-13.697-58.295l-1.143-4.889l-4.192,3.386l-19.174,15.592L93.944,54.823l-9.211-11.324
		c17.824-13.273,39.775-21.265,63.533-21.591c0.523,0,1.045-0.022,1.557-0.022c54.452,0,99.627,39.698,108.163,91.733
		c0.958,5.814,1.459,11.792,1.459,17.889C259.445,170.206,239.378,204.231,209.097,223.732z"/>
	<g>
		<path fill="#FFFFFF" d="M129.093,134.363c-0.718-1.288-1.41-2.534-2.16-3.682c-0.796-1.121-1.483-2.242-2.298-3.211
			c-1.541-1.993-3.108-3.67-4.569-5.064c-1.444-1.408-2.839-2.49-3.972-3.368c-1.13-0.881-2.115-1.467-2.755-1.885
			c-0.653-0.399-1.019-0.591-1.019-0.591s0.745,1.431,2.049,3.936c0.548,1.075,1.163,2.369,1.829,3.812
			c-1.541-0.835-3.175-1.558-4.904-2.145l-11.563-3.927c-18.74-6.365-38.596,6.095-41.017,25.737l-0.363,2.945
			c-1.868,15.159,7.507,29.443,22.158,33.759l10.58,3.117c4.279,1.261,8.658,1.554,12.881,0.999
			c-1.794,1.174-3.565,2.123-5.165,2.98c-1.669,0.841-3.165,1.599-4.436,2.141c-2.536,1.115-4.082,1.718-4.082,1.718
			s0.402,0.098,1.164,0.208c0.759,0.094,1.893,0.286,3.331,0.309c1.443,0.058,3.212,0.062,5.24-0.133
			c2.02-0.22,4.319-0.567,6.778-1.27c1.244-0.308,2.487-0.807,3.81-1.263c1.278-0.559,2.633-1.1,3.945-1.846
			c2.695-1.39,5.288-3.277,7.824-5.614c0.634-0.639,1.285-1.282,1.907-1.961l0.471-0.508l0.36-0.444l0.713-0.887l0.718-0.892
			l0.36-0.448l0.525-0.761c0.499-0.735,0.961-1.498,1.414-2.273c1.81-3.102,3.14-6.541,4.008-10.057
			c0.404-1.765,0.703-3.549,0.895-5.304c0.199-1.652,0.168-3.534,0.243-5.264c-0.127-3.52-0.555-6.97-1.483-10.137
			C131.711,139.885,130.402,136.997,129.093,134.363z"/>
		<path fill="#FFFFFF" d="M240.946,143.975c-2.421-19.643-22.277-32.102-41.017-25.737l-11.563,3.927
			c-1.728,0.587-3.362,1.31-4.903,2.145c0.666-1.443,1.281-2.737,1.829-3.812c1.304-2.505,2.049-3.936,2.049-3.936
			s-0.366,0.193-1.019,0.591c-0.64,0.417-1.625,1.004-2.755,1.885c-1.133,0.878-2.528,1.96-3.972,3.368
			c-1.46,1.395-3.027,3.071-4.569,5.064c-0.815,0.969-1.502,2.089-2.298,3.211c-0.75,1.148-1.442,2.394-2.16,3.682
			c-1.309,2.634-2.617,5.521-3.417,8.726c-0.928,3.167-1.356,6.617-1.483,10.137c0.075,1.73,0.043,3.612,0.243,5.264
			c0.192,1.755,0.49,3.539,0.895,5.304c0.868,3.516,2.198,6.955,4.008,10.057c0.453,0.775,0.915,1.538,1.414,2.273l0.525,0.761
			l0.36,0.448l0.718,0.892l0.713,0.887l0.36,0.444l0.471,0.508c0.623,0.679,1.274,1.322,1.907,1.961
			c2.536,2.337,5.129,4.225,7.824,5.614c1.312,0.746,2.668,1.286,3.945,1.846c1.324,0.456,2.566,0.954,3.81,1.263
			c2.459,0.704,4.758,1.05,6.778,1.27c2.028,0.194,3.796,0.19,5.24,0.133c1.438-0.023,2.572-0.215,3.331-0.309
			c0.761-0.11,1.164-0.208,1.164-0.208s-1.546-0.603-4.082-1.718c-1.271-0.543-2.767-1.301-4.436-2.141
			c-1.6-0.857-3.371-1.806-5.165-2.98c4.223,0.556,8.601,0.262,12.881-0.999l10.58-3.117c14.651-4.316,24.026-18.6,22.158-33.759
			L240.946,143.975z"/>
		<path fill="#FFFFFF" d="M152.971,215.601h7.69c1.34,0,2.178-1.844,1.508-3.318l-7.69-16.924c-0.891-1.96-3.249-1.157-3.249,1.106
			v16.923C151.23,214.611,152.009,215.601,152.971,215.601z"/>
		<path fill="#FFFFFF" d="M139.006,213.833h7.69c0.962,0,1.741-0.78,1.741-1.741v-13.32c0-1.781-2.358-2.413-3.249-0.871
			l-7.69,13.32C136.828,212.382,137.665,213.833,139.006,213.833z"/>
	</g>
</g>
</svg>
