<?xml version="1.0" encoding="utf-8"?>
<!-- Generator: Adobe Illustrator 25.4.1, SVG Export Plug-In . SVG Version: 6.00 Build 0)  -->
<svg version="1.2" baseProfile="tiny" id="Layer_1" xmlns="http://www.w3.org/2000/svg" xmlns:xlink="http://www.w3.org/1999/xlink"
	 x="0px" y="0px" viewBox="0 0 61.211 70.092" overflow="visible" xml:space="preserve">
<g>
	<g>
		<path fill="#FFFFFF" d="M23.106,58.402c-0.006-0.006-0.012-0.012-0.019-0.019c-0.785-0.804-1.453-1.725-1.96-2.739
			c-0.513,1.014-1.175,1.935-1.96,2.732c0,0-0.006,0-0.012,0.006c-0.105,0.105-0.21,0.21-0.315,0.309
			c-0.507,0.55-0.81,1.28-0.81,2.077c0,1.706,1.385,3.091,3.091,3.091c1.712,0,3.091-1.385,3.091-3.091
			c0-0.797-0.303-1.527-0.804-2.077C23.31,58.6,23.205,58.501,23.106,58.402z"/>
		<path fill="#FFFFFF" d="M32.591,58.402c-0.006-0.006-0.012-0.012-0.019-0.019c-0.785-0.804-1.453-1.725-1.96-2.739
			c-0.513,1.014-1.175,1.935-1.96,2.732c0,0-0.006,0-0.012,0.006c-0.105,0.105-0.21,0.21-0.315,0.309
			c-0.507,0.55-0.81,1.28-0.81,2.077c0,1.706,1.385,3.091,3.091,3.091c1.712,0,3.091-1.385,3.091-3.091
			c0-0.797-0.303-1.527-0.804-2.077C32.795,58.6,32.69,58.501,32.591,58.402z"/>
		<path fill="#FFFFFF" d="M41.852,58.402c-0.006-0.006-0.012-0.012-0.019-0.019c-0.785-0.804-1.453-1.725-1.96-2.739
			c-0.513,1.014-1.175,1.935-1.96,2.732c0,0-0.006,0-0.012,0.006c-0.105,0.105-0.21,0.21-0.315,0.309
			c-0.507,0.55-0.81,1.28-0.81,2.077c0,1.706,1.385,3.091,3.091,3.091c1.712,0,3.091-1.385,3.091-3.091
			c0-0.797-0.303-1.527-0.804-2.077C42.056,58.6,41.951,58.501,41.852,58.402z"/>
	</g>
	<path fill="#FFFFFF" d="M30.606,0h-0.003c-0.144,0-0.286,0.003-0.433,0.003C14.467,0.219,1.635,12.329,0.144,27.625
		c-0.106,1.094-0.155,2.2-0.142,3.322c0.008,0.794,0.049,1.584,0.119,2.365c0.307,3.529,1.223,6.933,2.667,10.078
		c1.473,3.206,3.498,6.147,6.002,8.685c0.978,0.993,2.027,1.924,3.147,2.786l0.028,5.961c0,0.371,0.046,0.73,0.132,1.078
		c0.307,2.621,1.71,4.909,3.735,6.394c0.743,0.549,1.571,0.985,2.458,1.292c0.949,0.328,1.965,0.506,3.023,0.506
		c0.629,0,1.243-0.062,1.839-0.183c1.003-0.204,1.947-0.567,2.809-1.065c1.367,0.792,2.956,1.248,4.645,1.248
		c1.69,0,3.278-0.457,4.643-1.248c0.485,0.279,0.998,0.518,1.535,0.709c0.975,0.348,2.022,0.539,3.113,0.539
		c1.403,0,2.737-0.312,3.928-0.872c1.545-0.725,2.858-1.862,3.792-3.271c0.797-1.187,1.326-2.564,1.501-4.05
		c0.08-0.343,0.126-0.707,0.126-1.078l0.023-4.369l0.008-1.589c5.442-4.184,9.26-10,10.952-16.529
		c0.647-2.489,0.983-5.081,0.983-7.728C61.211,13.733,47.483,0,30.606,0z M44.646,52.454l-0.036,8.017l-0.003,0.335H44.54
		c0,2.566-2.079,4.645-4.643,4.645c-2.566,0-4.648-2.079-4.648-4.645c0,2.566-2.079,4.645-4.643,4.645
		c-2.566,0-4.645-2.079-4.645-4.645c0,2.566-2.082,4.645-4.648,4.645c-2.564,0-4.643-2.079-4.643-4.645h-0.067l-0.034-8.352
		C9.466,47.881,4.743,39.947,4.642,30.898c-0.028-2.499,0.304-4.924,0.949-7.225c1.256-4.504,3.707-8.53,6.988-11.705l1.705,1.687
		l-2.628,2.879l-0.704,0.774l0.498,0.565l0.684,0.774l4.083,4.63l-2.636-5.559l3.031-1.767l3.162,3.124l0.872,0.859l0.769-0.776
		l4.137-4.189l4.302,12.167l-3.245-13.81l-0.271-1.158l-0.993,0.802l-4.542,3.694l-3.436-4.222l-2.182-2.683
		c4.222-3.144,9.422-5.038,15.051-5.115c0.124,0,0.248-0.005,0.369-0.005c12.899,0,23.601,9.404,25.624,21.731
		c0.227,1.377,0.346,2.793,0.346,4.238C56.573,39.774,51.819,47.835,44.646,52.454z"/>
	<g>
		<path fill="#FFFFFF" d="M25.693,31.283c-0.17-0.305-0.334-0.6-0.512-0.872c-0.189-0.266-0.351-0.531-0.544-0.761
			c-0.365-0.472-0.736-0.869-1.082-1.2c-0.342-0.334-0.673-0.59-0.941-0.798c-0.268-0.209-0.501-0.348-0.653-0.446
			c-0.155-0.094-0.241-0.14-0.241-0.14s0.177,0.339,0.485,0.932c0.13,0.255,0.276,0.561,0.433,0.903
			c-0.365-0.198-0.752-0.369-1.162-0.508l-2.739-0.93c-4.439-1.508-9.143,1.444-9.717,6.097l-0.086,0.698
			c-0.443,3.591,1.778,6.975,5.249,7.997l2.506,0.738c1.014,0.299,2.051,0.368,3.051,0.237c-0.425,0.278-0.845,0.503-1.224,0.706
			c-0.395,0.199-0.75,0.379-1.051,0.507C16.867,44.707,16.5,44.85,16.5,44.85s0.095,0.023,0.276,0.049
			c0.18,0.022,0.448,0.068,0.789,0.073c0.342,0.014,0.761,0.015,1.241-0.031c0.478-0.052,1.023-0.134,1.606-0.301
			c0.295-0.073,0.589-0.191,0.903-0.299c0.303-0.133,0.624-0.26,0.935-0.437c0.638-0.329,1.253-0.776,1.853-1.33
			c0.15-0.151,0.304-0.304,0.452-0.465l0.112-0.12l0.085-0.105l0.169-0.21l0.17-0.211l0.085-0.106l0.124-0.18
			c0.118-0.174,0.228-0.355,0.335-0.538c0.429-0.735,0.744-1.55,0.949-2.382c0.096-0.418,0.167-0.841,0.212-1.257
			c0.047-0.391,0.04-0.837,0.057-1.247c-0.03-0.834-0.131-1.651-0.351-2.401C26.313,32.591,26.003,31.907,25.693,31.283z"/>
		<path fill="#FFFFFF" d="M52.191,33.56c-0.573-4.653-5.277-7.605-9.717-6.097l-2.739,0.93c-0.409,0.139-0.797,0.31-1.162,0.508
			c0.158-0.342,0.304-0.648,0.433-0.903c0.309-0.593,0.485-0.932,0.485-0.932s-0.087,0.046-0.242,0.14
			c-0.152,0.099-0.385,0.238-0.653,0.446c-0.268,0.208-0.599,0.464-0.941,0.798c-0.346,0.33-0.717,0.727-1.082,1.2
			c-0.193,0.23-0.356,0.495-0.544,0.761c-0.178,0.272-0.342,0.567-0.512,0.872c-0.31,0.624-0.62,1.308-0.81,2.067
			c-0.22,0.75-0.321,1.568-0.351,2.401c0.018,0.41,0.01,0.856,0.057,1.247c0.045,0.416,0.116,0.838,0.212,1.257
			c0.206,0.833,0.521,1.648,0.949,2.382c0.107,0.183,0.217,0.364,0.335,0.538l0.124,0.18l0.085,0.106l0.17,0.211l0.169,0.21
			l0.085,0.105l0.112,0.12c0.147,0.161,0.302,0.313,0.452,0.465c0.601,0.554,1.215,1.001,1.853,1.33
			c0.311,0.177,0.632,0.305,0.935,0.437c0.314,0.108,0.608,0.226,0.903,0.299c0.583,0.167,1.127,0.249,1.606,0.301
			c0.48,0.046,0.899,0.045,1.241,0.031c0.341-0.005,0.609-0.051,0.789-0.073c0.18-0.026,0.276-0.049,0.276-0.049
			s-0.366-0.143-0.967-0.407c-0.301-0.129-0.655-0.308-1.051-0.507c-0.379-0.203-0.799-0.428-1.224-0.706
			c1,0.132,2.038,0.062,3.051-0.237l2.506-0.738c3.471-1.022,5.692-4.406,5.249-7.997L52.191,33.56z"/>
		<path fill="#FFFFFF" d="M31.35,50.528h1.822c0.318,0,0.516-0.437,0.357-0.786l-1.822-4.009c-0.211-0.464-0.77-0.274-0.77,0.262
			v4.009C30.937,50.293,31.122,50.528,31.35,50.528z"/>
		<path fill="#FFFFFF" d="M28.041,50.109h1.822c0.228,0,0.412-0.185,0.412-0.412v-3.155c0-0.422-0.559-0.572-0.77-0.206
			l-1.822,3.155C27.525,49.766,27.724,50.109,28.041,50.109z"/>
	</g>
</g>
</svg>
