<?xml version="1.0" encoding="utf-8"?>
<!-- Generator: Adobe Illustrator 26.0.2, SVG Export Plug-In . SVG Version: 6.00 Build 0)  -->
<svg version="1.1" baseProfile="tiny" id="Layer_1" xmlns="http://www.w3.org/2000/svg" xmlns:xlink="http://www.w3.org/1999/xlink"
	 x="0px" y="0px" width="2301.111px" height="768.398px" viewBox="0 0 2301.111 768.398" overflow="visible" xml:space="preserve">
<g>
	<g>
		<polygon points="698.916,768.398 0,768.398 0,0 698.916,0 698.916,183.925 183.925,183.925 183.925,584.473 514.991,584.473 
			514.991,482.801 282.019,482.801 282.019,298.876 698.916,298.876 		"/>
	</g>
	<g>
		<path d="M2301.111,768.398h-698.916V0h600.82v342.011l98.096,18.792V768.398z M1786.12,584.473h331.066v-71.635l-331.066-63.426
			V584.473z M1786.12,262.141l232.969,44.632V183.925H1786.12V262.141z"/>
	</g>
	<g>
		<path d="M801.098,0v768.398h183.926V614.335l331.063-107.097v261.16h183.925V0H801.098z M985.024,421.028V183.925h331.063v130.004
			L985.024,421.028z"/>
	</g>
</g>
</svg>
