<?xml version="1.0" encoding="utf-8"?>
<!-- Generator: Adobe Illustrator 26.0.2, SVG Export Plug-In . SVG Version: 6.00 Build 0)  -->
<svg version="1.0" id="Layer_1" xmlns="http://www.w3.org/2000/svg" xmlns:xlink="http://www.w3.org/1999/xlink" x="0px" y="0px"
	 width="2921.989px" height="975.724px" viewBox="0 0 2921.989 975.724" style="enable-background:new 0 0 2921.989 975.724;"
	 xml:space="preserve">
<g>
	<g>
		<polygon style="fill:#FFFFFF;" points="887.495,975.724 0,975.724 0,0 887.495,0 887.495,233.551 233.551,233.551 
			233.551,742.173 653.944,742.173 653.944,613.069 358.113,613.069 358.113,379.518 887.495,379.518 		"/>
	</g>
	<g>
		<path style="fill:#FFFFFF;" d="M2921.989,975.724h-887.495V0h762.931v434.291l124.564,23.863V975.724z M2268.045,742.173h420.393
			V651.21l-420.393-80.54V742.173z M2268.045,332.871l295.828,56.674V233.551h-295.828V332.871z"/>
	</g>
	<g>
		<path style="fill:#FFFFFF;" d="M1017.248,0v975.724H1250.8V780.093l420.389-135.994v331.625h233.551V0H1017.248z M1250.8,534.628
			V233.551h420.389v165.081L1250.8,534.628z"/>
	</g>
</g>
</svg>
