<?xml version="1.0" encoding="utf-8"?>
<!-- Generator: Adobe Illustrator 26.2.1, SVG Export Plug-In . SVG Version: 6.00 Build 0)  -->
<svg version="1.1" id="Layer_1" xmlns="http://www.w3.org/2000/svg" xmlns:xlink="http://www.w3.org/1999/xlink" x="0px" y="0px"
	 width="256px" height="256px" viewBox="0 0 256 256" style="enable-background:new 0 0 256 256;" xml:space="preserve">
<style type="text/css">
	.st0{fill:#FFFFFF;}
</style>
<g>
	<path class="st0" d="M197.3,235.7c-2.8,1.8-5.6,3.4-8.5,5c0-0.1,0-0.1-0.1-0.1c-0.2-0.2-9.6-12.7-20.9-28l-20.5-27.7l-25.7-38
		C107.6,126.1,96,109,95.9,109c-0.1,0-0.2,16.8-0.2,37.4c-0.1,36.1-0.1,37.5-0.5,38.4c-0.7,1.2-1.2,1.7-2.2,2.3
		c-0.8,0.4-1.5,0.5-5.3,0.5h-4.3l-1.2-0.7c-0.8-0.5-1.3-1.1-1.7-1.8l-0.5-1.1l0-50.2l0.1-50.2l0.8-1c0.4-0.5,1.3-1.2,1.9-1.5
		c1-0.5,1.4-0.5,5.8-0.5c5.1,0,6,0.2,7.3,1.7c0.4,0.4,14.3,21.3,30.9,46.5c16.6,25.2,39.3,59.6,50.5,76.5L197.3,235.7z"/>
	<g>
		<path d="M256,126.4c0-8.1-0.2-10.4-1.1-17c-7-48.1-41.2-88.4-87.6-103.4c-8.2-2.6-16.9-4.5-26.6-5.6c-0.9-0.1-3.5-0.2-6.6-0.2
			h-0.2c-2.4-0.1-5.1-0.1-7.5-0.1c0,0-0.1,0-0.1,0c-3.2,0-5.8,0-6.6,0.1c-0.5,0-2.3,0.2-3.9,0.3c-36.4,3.3-70.4,22.9-92,53
			C11.7,70.2,4,89.2,1.2,109.4c-1,7-1.2,9.1-1.2,18.6v0.1c0,9.5,0.1,11.6,1.2,18.6c7,48.1,41.2,88.4,87.6,103.4
			c8.3,2.7,17.1,4.5,27,5.6c1.7,0.2,6,0.3,10.6,0.3c1.1,0,2.2,0,3.3,0c4.6,0,8.9-0.1,10.6-0.3c17.2-1.9,31.8-6.1,46.1-13.5
			c1.8-0.9,2.4-1.3,2.4-1.5c0-0.1,0-0.1-0.1-0.1c-0.2-0.2-9.6-12.7-20.9-28l-20.5-27.7l-25.7-38C107.6,126.1,96,109,95.9,109
			c-0.1,0-0.2,16.8-0.2,37.4c-0.1,36.1-0.1,37.5-0.5,38.4c-0.7,1.2-1.2,1.7-2.2,2.3c-0.8,0.4-1.5,0.5-5.3,0.5h-4.3l-1.2-0.7
			c-0.8-0.5-1.3-1.1-1.7-1.8l-0.5-1.1l0-50.2l0.1-50.2l0.8-1c0.4-0.5,1.3-1.2,1.9-1.5c1-0.5,1.4-0.5,5.8-0.5c5.1,0,6,0.2,7.3,1.7
			c0.4,0.4,14.3,21.3,30.9,46.5c16.6,25.2,39.3,59.6,50.5,76.5l20.2,30.5l0.1,0.2l1-0.7c9.1-5.9,18.7-14.3,26.3-23.1
			c16.2-18.6,26.6-41.2,30.1-65.4c1-7,1.2-9.1,1.2-18.6C256,127.4,256,126.9,256,126.4z M174.8,126.4l-0.1,45l-7.9-12.2l-8-12.2
			v-32.7c0-21.1,0.1-33,0.2-33.6c0.4-1.4,1.3-2.5,2.5-3.2c1-0.5,1.4-0.6,5.3-0.6c3.7,0,4.3,0.1,5.2,0.5c1.2,0.6,2.2,1.8,2.5,3
			C174.8,81.1,174.8,95,174.8,126.4z"/>
		<path class="st0" d="M174.8,126.4l-0.1,45l-7.9-12.2l-8-12.2v-32.7c0-21.1,0.1-33,0.2-33.6c0.4-1.4,1.3-2.5,2.5-3.2
			c1-0.5,1.4-0.6,5.3-0.6c3.7,0,4.3,0.1,5.2,0.5c1.2,0.6,2.2,1.8,2.5,3C174.8,81.1,174.8,95,174.8,126.4z"/>
	</g>
</g>
</svg>
