<?xml version="1.0" encoding="utf-8"?>
<!-- Generator: Adobe Illustrator 26.2.1, SVG Export Plug-In . SVG Version: 6.00 Build 0)  -->
<svg version="1.1" id="Layer_1" xmlns="http://www.w3.org/2000/svg" xmlns:xlink="http://www.w3.org/1999/xlink" x="0px" y="0px"
	 width="256px" height="310px" viewBox="0 0 256 310" style="enable-background:new 0 0 256 310;" xml:space="preserve">
<style type="text/css">
	.st0{fill:#FFFFFF;}
</style>
<g>
	<path d="M254.3,235.5L254.3,235.5L148,9.8c-2.7-5.7-8.3-9.4-14.5-9.7c-6.3-0.4-12.3,2.7-15.5,8.1L2.6,194.8
		c-3.6,5.8-3.5,13.1,0.2,18.7l56.4,87.3c4.4,6.7,12.7,9.8,20.4,7.5L243.2,260c5-1.5,9.1-5,11.3-9.7
		C256.6,245.6,256.5,240.2,254.3,235.5z M234.7,241.6c-0.8,1.8-2.3,3.1-4.2,3.6l-138.8,41c-4.2,1.3-8.3-2.4-7.4-6.7l49.6-237.5
		c0.9-4.4,7.1-5.1,9-1l91.8,195C235.5,237.8,235.5,239.8,234.7,241.6z"/>
	<path class="st0" d="M234.7,241.6c-0.8,1.8-2.3,3.1-4.2,3.6l-138.8,41c-4.2,1.3-8.3-2.4-7.4-6.7l49.6-237.5c0.9-4.4,7.1-5.1,9-1
		l91.8,195C235.5,237.8,235.5,239.8,234.7,241.6z"/>
</g>
</svg>
