<?xml version="1.0" encoding="utf-8"?>
<!-- Generator: Adobe Illustrator 26.2.1, SVG Export Plug-In . SVG Version: 6.00 Build 0)  -->
<svg version="1.1" id="Layer_1" xmlns="http://www.w3.org/2000/svg" xmlns:xlink="http://www.w3.org/1999/xlink" x="0px" y="0px"
	 width="78.2px" height="102.8px" viewBox="0 0 78.2 102.8" style="enable-background:new 0 0 78.2 102.8;" xml:space="preserve">
<style type="text/css">
	.st0{fill:#F04939;}
	.st1{fill:#F37368;}
</style>
<g>
	<path class="st0" d="M8.3,13.2c0,13.8,8.6,22,25.7,26.4l18.1,4.2c16.2,3.8,26.1,13.1,26.1,28.1c0.1,6.5-2,12.9-5.9,18.1
		c0-15.1-7.8-23.2-26.5-28.1l-17.8-4.1C13.5,54.7,2.5,47,2.5,30.6C2.5,24.4,4.5,18.1,8.3,13.2"/>
	<path class="st1" d="M61.1,68.2c7.7,4.9,11.2,11.9,11.2,21.9c-6.5,8.3-17.7,12.8-30.9,12.8c-22.2,0-38-11-41.3-30h21.3
		c2.8,8.7,10,12.8,19.9,12.8C52.9,85.7,60.9,79.3,61.1,68.2 M8.3,13.1C14.5,4.9,25.2,0,38.3,0c22.8,0,35.8,12,39.2,28.9H56.9
		c-2.3-6.7-8-11.9-18.3-11.9c-11.2,0.1-18.7,6.5-19.1,16.7C12,29.5,8,21.5,8.3,13.1z"/>
</g>
</svg>
