<?xml version="1.0" encoding="utf-8"?>
<!-- Generator: Adobe Illustrator 26.2.1, SVG Export Plug-In . SVG Version: 6.00 Build 0)  -->
<svg version="1.1" id="Layer_1" xmlns="http://www.w3.org/2000/svg" xmlns:xlink="http://www.w3.org/1999/xlink" x="0px" y="0px"
	 width="512px" height="121px" viewBox="0 0 512 121" style="enable-background:new 0 0 512 121;" xml:space="preserve">
<style type="text/css">
	.st0{fill:#444444;}
</style>
<g>
	<path class="st0" d="M0,64.5c0.1,31.1,25.4,56.5,56.5,56.5c31.2,0,56.4-25.3,56.5-56.5v-8c0.1-17.9,19.6-29,35-20
		c2.4,1.4,4.5,3.2,6.2,5.3h36.5C184.1,17.2,161.8,0,136.2,0C105,0,79.8,25.3,79.8,56.5v8c0,12.9-10.4,23.3-23.3,23.3
		c-12.8,0-23.2-10.4-23.3-23.3c0-3.7-3-6.7-6.7-6.7H6.6C3,57.8,0,60.8,0,64.5z M216.1,120.9c-25.5-0.1-47.8-17.2-54.5-41.8h36.5
		c11.2,13.9,33.3,10.4,39.7-6.2c1-2.7,1.6-5.5,1.6-8.4v-8c0-31.2,25.3-56.4,56.5-56.5c30.8,0,55.8,24.7,56.5,55.3l0.2,9.2
		c0.1,17.9,19.6,29,35,20c2.4-1.4,4.5-3.2,6.2-5.3h36.5c-6.7,24.6-29,41.8-54.5,41.8c-31.1,0-56.4-25.4-56.5-56.5l-0.2-8.3v-0.4
		c-0.4-12.6-10.7-22.6-23.3-22.6c-12.8,0-23.2,10.4-23.3,23.3v8C272.6,95.6,247.3,120.9,216.1,120.9z M437.5,41.8
		c11.2-13.9,33.3-10.4,39.7,6.2c1,2.7,1.6,5.5,1.6,8.4c0,3.7,3,6.7,6.7,6.7h19.9c3.7,0,6.6-3,6.6-6.7C512,25.3,486.7,0,455.5,0
		C430,0,407.6,17.2,401,41.8H437.5z"/>
</g>
</svg>
