<?xml version="1.0" encoding="utf-8"?>
<!-- Generator: Adobe Illustrator 26.2.1, SVG Export Plug-In . SVG Version: 6.00 Build 0)  -->
<svg version="1.2" baseProfile="tiny" id="Layer_1" xmlns="http://www.w3.org/2000/svg" xmlns:xlink="http://www.w3.org/1999/xlink"
	 x="0px" y="0px" width="80.222px" height="80.222px" viewBox="0 0 80.222 80.222" overflow="visible" xml:space="preserve">
<linearGradient id="SVGID_1_" gradientUnits="userSpaceOnUse" x1="1.4454" y1="78.7768" x2="78.7768" y2="1.4454">
	<stop  offset="0" style="stop-color:#E3FFFC"/>
	<stop  offset="0.28" style="stop-color:#E7F9F6"/>
	<stop  offset="0.6628" style="stop-color:#F2E7E6"/>
	<stop  offset="1" style="stop-color:#FFD2D2"/>
</linearGradient>
<path fill="url(#SVGID_1_)" d="M75.556,80.111H4.667c-2.516,0-4.556-2.04-4.556-4.556V4.667c0-2.516,2.04-4.556,4.556-4.556h70.889
	c2.516,0,4.556,2.04,4.556,4.556v70.889C80.111,78.072,78.072,80.111,75.556,80.111z"/>
<g>
	<path fill="#333333" d="M28.597,32.352c-1.215,0.068-2.101,0.203-2.658,0.405c-0.557,0.203-0.937,0.591-1.139,1.165
		c-0.203,0.575-0.304,1.503-0.304,2.785v25.725c0,1.08,0.084,1.865,0.253,2.354c0.169,0.49,0.464,0.819,0.886,0.988
		c0.422,0.169,1.105,0.253,2.051,0.253h2.481c2.295,0,4.279-1.029,5.95-3.089c1.671-2.059,2.76-4.793,3.266-8.204h1.165
		c-0.101,1.148-0.152,2.633-0.152,4.456c0,3.241,0.118,5.908,0.355,8.001c-2.296-0.101-6.162-0.152-11.597-0.152
		c-7.36,0-12.862,0.051-16.508,0.152v-1.013c1.114-0.067,1.932-0.202,2.456-0.405c0.523-0.203,0.877-0.591,1.064-1.165
		c0.185-0.574,0.279-1.502,0.279-2.785V36.707c0-1.282-0.093-2.211-0.279-2.785c-0.186-0.574-0.541-0.962-1.064-1.165
		c-0.524-0.203-1.342-0.337-2.456-0.405v-1.013c1.722,0.101,4.388,0.152,8.001,0.152c3.443,0,6.093-0.051,7.95-0.152V32.352z"/>
	<path fill="#333333" d="M60.695,15.208c2.683,1.452,4.769,3.554,6.254,6.305c1.485,2.752,2.228,6.035,2.228,9.849
		c0,3.714-0.76,7.005-2.279,9.875c-1.519,2.87-3.638,5.098-6.355,6.684c-2.718,1.587-5.816,2.38-9.292,2.38
		c-3.579,0-6.71-0.725-9.394-2.177c-2.684-1.451-4.769-3.553-6.254-6.305c-1.486-2.751-2.228-6.034-2.228-9.85
		c0-3.713,0.759-7.005,2.279-9.875c1.519-2.869,3.638-5.097,6.355-6.684c2.717-1.586,5.815-2.38,9.292-2.38
		C54.88,13.03,58.011,13.757,60.695,15.208z M46.187,16.195c-1.418,1.502-2.507,3.604-3.266,6.305
		c-0.76,2.701-1.139,5.79-1.139,9.267c0,3.512,0.431,6.601,1.291,9.267c0.861,2.667,2.026,4.727,3.494,6.178
		c1.468,1.452,3.097,2.177,4.887,2.177c1.857,0,3.494-0.751,4.912-2.254c1.418-1.501,2.507-3.603,3.266-6.305
		c0.759-2.7,1.139-5.789,1.139-9.267c0-3.511-0.43-6.6-1.291-9.267c-0.861-2.666-2.025-4.726-3.494-6.178
		c-1.469-1.451-3.098-2.178-4.887-2.178C49.242,13.942,47.605,14.694,46.187,16.195z"/>
</g>
</svg>
