<?xml version="1.0" encoding="utf-8"?>
<!-- Generator: Adobe Illustrator 19.0.0, SVG Export Plug-In . SVG Version: 6.00 Build 0)  -->
<svg version="1.1" baseProfile="tiny" id="Layer_1" xmlns="http://www.w3.org/2000/svg" xmlns:xlink="http://www.w3.org/1999/xlink"
	 x="0px" y="0px" width="237.308px" height="271.74px" viewBox="0 0 237.308 271.74" xml:space="preserve">
<metadata><?xpacket begin="﻿" id="W5M0MpCehiHzreSzNTczkc9d"?>
<x:xmpmeta xmlns:x="adobe:ns:meta/" x:xmptk="Adobe XMP Core 5.6-c067 79.157747, 2015/03/30-23:40:42        ">
   <rdf:RDF xmlns:rdf="http://www.w3.org/1999/02/22-rdf-syntax-ns#">
      <rdf:Description rdf:about=""
            xmlns:dc="http://purl.org/dc/elements/1.1/"
            xmlns:xmp="http://ns.adobe.com/xap/1.0/"
            xmlns:xmpGImg="http://ns.adobe.com/xap/1.0/g/img/"
            xmlns:xmpMM="http://ns.adobe.com/xap/1.0/mm/"
            xmlns:stRef="http://ns.adobe.com/xap/1.0/sType/ResourceRef#"
            xmlns:stEvt="http://ns.adobe.com/xap/1.0/sType/ResourceEvent#"
            xmlns:illustrator="http://ns.adobe.com/illustrator/1.0/"
            xmlns:pdf="http://ns.adobe.com/pdf/1.3/"
            xmlns:xmpTPg="http://ns.adobe.com/xap/1.0/t/pg/"
            xmlns:stDim="http://ns.adobe.com/xap/1.0/sType/Dimensions#"
            xmlns:xmpG="http://ns.adobe.com/xap/1.0/g/">
         <dc:format>image/svg+xml</dc:format>
         <dc:title>
            <rdf:Alt>
               <rdf:li xml:lang="x-default">logo</rdf:li>
            </rdf:Alt>
         </dc:title>
         <xmp:CreatorTool>Adobe Illustrator CC 2015 (Windows)</xmp:CreatorTool>
         <xmp:CreateDate>2022-02-26T08:30:26+02:00</xmp:CreateDate>
         <xmp:ModifyDate>2022-02-26T08:30:27+02:00</xmp:ModifyDate>
         <xmp:MetadataDate>2022-02-26T08:30:27+02:00</xmp:MetadataDate>
         <xmp:Thumbnails>
            <rdf:Alt>
               <rdf:li rdf:parseType="Resource">
                  <xmpGImg:width>224</xmpGImg:width>
                  <xmpGImg:height>256</xmpGImg:height>
                  <xmpGImg:format>JPEG</xmpGImg:format>
                  <xmpGImg:image>/9j/4AAQSkZJRgABAgEASABIAAD/7QAsUGhvdG9zaG9wIDMuMAA4QklNA+0AAAAAABAASAAAAAEA&#xA;AQBIAAAAAQAB/+4ADkFkb2JlAGTAAAAAAf/bAIQABgQEBAUEBgUFBgkGBQYJCwgGBggLDAoKCwoK&#xA;DBAMDAwMDAwQDA4PEA8ODBMTFBQTExwbGxscHx8fHx8fHx8fHwEHBwcNDA0YEBAYGhURFRofHx8f&#xA;Hx8fHx8fHx8fHx8fHx8fHx8fHx8fHx8fHx8fHx8fHx8fHx8fHx8fHx8fHx8f/8AAEQgBAADgAwER&#xA;AAIRAQMRAf/EAaIAAAAHAQEBAQEAAAAAAAAAAAQFAwIGAQAHCAkKCwEAAgIDAQEBAQEAAAAAAAAA&#xA;AQACAwQFBgcICQoLEAACAQMDAgQCBgcDBAIGAnMBAgMRBAAFIRIxQVEGE2EicYEUMpGhBxWxQiPB&#xA;UtHhMxZi8CRygvElQzRTkqKyY3PCNUQnk6OzNhdUZHTD0uIIJoMJChgZhJRFRqS0VtNVKBry4/PE&#xA;1OT0ZXWFlaW1xdXl9WZ2hpamtsbW5vY3R1dnd4eXp7fH1+f3OEhYaHiImKi4yNjo+Ck5SVlpeYmZ&#xA;qbnJ2en5KjpKWmp6ipqqusra6voRAAICAQIDBQUEBQYECAMDbQEAAhEDBCESMUEFURNhIgZxgZEy&#xA;obHwFMHR4SNCFVJicvEzJDRDghaSUyWiY7LCB3PSNeJEgxdUkwgJChgZJjZFGidkdFU38qOzwygp&#xA;0+PzhJSktMTU5PRldYWVpbXF1eX1RlZmdoaWprbG1ub2R1dnd4eXp7fH1+f3OEhYaHiImKi4yNjo&#xA;+DlJWWl5iZmpucnZ6fkqOkpaanqKmqq6ytrq+v/aAAwDAQACEQMRAD8A9U4q7FXYq7FXYq7FXYq7&#xA;FVO4uLe2hee4lSGCMVklkYKijxLGgGKvNvM//OQ/5caIXit7t9Yul29OwXnHX/jMxWMj3UtirzDX&#xA;v+cqvM1wzJomk2thEdhJcM9zL8xT0UHyKnFWCar+dP5o6mT6/mG5hU9FteFrQexgWM/jirGrzzJ5&#xA;ivW5XmqXly1a1mnlkNfH4mPjiqXYq2CQQQaEbgjFUxs/M3mSxYNZateWrDcGG4ljI3r+yw7jFWT6&#xA;T+d35o6YR6WvTzoNil2Euaj3aVXb7jirPNB/5ys8wQsqa7o9tex9DLas9vJTxIf1lY/8Dir1Hyx+&#xA;f/5b66Uie+Ok3b0HoagoiWvtMC0X3sPlir0WKWKaJZYXWSJwGSRCGUg9CCNjiq7FXYq7FXYq7FXY&#xA;q7FXYq7FXYq7FXYq7FXYqpXl5aWVrLd3k0dtawqXmnlYIiKOpZmoAMVeI+ff+cnNJsGksfKNuNSu&#xA;Vqp1GcMtsp6fAnwvJ8/hHzxV4H5p89+bfNNwZtc1Ka7UHkluTwgQ/wCREtEX50riqQ4q7FXYq7FX&#xA;Yq7FXYq7FXYq7FWR+U/zD84+U5g+ianLbw1q9ox9S3avXlE9UqfECvvir3/yF/zkxoGqtHZeaYRo&#xA;961FF6lWtHbp8VavF9NV8WGKvaLe4guII57eRZoJVDxSxsGRlIqGVhUEHFV+KuxV2KuxV2KuxV2K&#xA;uxV2KuxV2KsN/MX81PLPkay5X0n1nU5Fra6XER6r+DMd/TT/ACj9AOKvlPz9+aPmvztd89TuPSsE&#xA;atvpsBKwR+BI/bb/ACm+ig2xViGKuxVFaZpOqapdraaZaTXt0/2YLeNpHP8AsVBOKvUPLf8AzjR+&#xA;YGqBZdSNvosB6id/Vmoe4ji5D6GYYq9H0b/nFbyhbhW1XVLzUJB1EQjtoz/saSv/AMPirLrH8iPy&#xA;ps1HHQkmYdXnlnlJ+hnK/cMVTeH8sPy5hNU8s6Yainx2sL/8TVsVdP8Alf8AlzMfj8s6YNqfBaxR&#xA;/wDEFXFUnv8A8hvypvAeWhrA56PBNPFTp0VX4du4xViGs/8AOKvlO4DNpOq3lhIa0WYR3MY+QAhf&#xA;72xV5v5k/wCcbPzD0pWlsFg1m3Wp/wBFfhMAPGKXhv7IzYq8x1HTNR026e01G1ls7pPtwTo0bjtu&#xA;rAHFUNirsVZr+Xv5tea/JNwq2M31rSmas2lTkmE1PxGPvG5/mX6QcVfVvkD8y/LPnfT/AKxpU3C7&#xA;iAN3p0tBPEelSB9pK9GG3yO2KsrxV2KuxV2KuxV2KuxV2KuxV5R+cf532Xk+OTR9GKXXmWRfirRo&#xA;rVWGzSb7yEbqn0ttQMq+U9T1PUNUv59Q1G4e6vbli808p5MzH3/UO2KoXFUZpOkapq9/FYaXay3l&#xA;7MaRwQqXY+JoOgHc4q988hf84vqBHe+dLip2YaTaPsP8maYfqj/4LFXumheXNB0CyFlo1hDYWwpV&#xA;IUCliO7t9pz7sScVTHFXYq7FXYq7FXYq7FXYqlmv+WPL/mGzNnrenw39vvxWZQWWvdH+0h91IOKv&#xA;CfP3/OL7osl95LuC9KsdJumHL5QzGg+iT/gsVeC6npeo6XfS2GpW0lpeQHjLBMpR1PyP4HFULiqN&#xA;0bWtV0TUoNT0q5e0vrduUU8ZoR4g9iD0IOxxV9aflB+c2n+drYaffBLPzJAlZbcGiXCqN5Ya/wDD&#xA;J1HuMVemYq7FXYq7FXYq7FXYq8o/O/8AOOPyfZHRtHkWTzLdJXlsy2sTA/vGHQyH9hT/AKx2oGVf&#xA;JtxcT3M8lxcSNNPMxkllkJZ2djVmZjuSTiqnirh79MVfZ/5L6b5Bh8n2195RhAS5UC9nlIa79Zft&#xA;xzsO6nooovdRQ4qz7FUFqetaXpkfO9uFi7qnV2+Sjc5i6rXYcAvJID7/AJN2HTzyGoi2Han+Z7VK&#xA;abaCnaW4P/Gin/jbOZ1XtSeWKPxl+ofrdti7I/nn5JVB+Y3mJJucjRSp3iZABT2K0Oa6HtJqhKzw&#xA;kd1OTLsvERtYZt5e836ZrIEan0Lym9s53P8AqNty/XnV9ndsYtTsPTP+af0d7p9VoZ4t+ce9Pc2z&#xA;hOxV2KoS+1fS7GgvLqKBj0V2AY/7HrmNn1mHF9chH4tuPBOf0glbp2t6TqJYWV0kzKKsimjAePE0&#xA;ODT67Dm/u5CScunnj+oUjcyml2KsY88/lz5X86WH1bWLYG4RSLW/jotxCT/I/cf5LVX2xV8m/mT+&#xA;VfmLyLfhL1frWlzNSz1OJSI36kK434SUH2SfkTirC8VVrO8urK6hu7SVoLq3dZIZoyVdHU1VlI6E&#xA;HFX15+TH5vW3nfTTZX5SHzJZpW5iXZZ4xQevGO25o69j7HFXpeKuxV2KuxV2KsN/NT8xLPyP5Zkv&#xA;24yancVh0y1J+3LTdmHXhHWrfQO+Kvi7U9Tv9U1C41HUJ2ub26cyzzOaszN1/sHbFULirPPy/wDy&#xA;b81+ddOvdRsAltZ26sLaa4qq3E6/7qjI/FugO3jRVhmp6ZqGl6hPp+oQPbXts5jngkFGVh/nse+K&#xA;sx/KT8z77yLr3qtym0W8KpqVou5KjpLGCQPUT8Rt7hKvoG+/M+/1OBZNJKW9nMoaOZDzkZT35HYf&#xA;QK++cL2h7QagyMIjw6/034/FvQ6bs3HQkTxfcxmaaaaRpZnaSVzVnclmJ9yc5yc5SNyNl2kYgChy&#xA;WZBKWa95h0zRLM3N7JQmoihXd5GHZR/HoMzdFocmpnwwHvPQNOfURxRuSO0+9Fxa219ASgmRJomB&#xA;3HIBhuMoyQliyGP8UTXyZxkJxB6EM70H8x54EWDVkadF2W5Snqf7IGgb5/rzpOz/AGllAcOYcQ7x&#xA;z+Pe6vU9lCW8NvJPpvzF8uRx8kaWZuyLGQfvbiM3E/aTSgWDI/D9bgx7LzE70GLaz+YmrXgaKyAs&#xA;oDtyU8pSP9ft9A+nOf1vtHmy7Y/RH7fn+p2WDsvHDeXqP2MVd3dy7sWdjVmY1JPuTnPykSbPN2YF&#xA;claxvrmxu4ru2cpNE3JT/A+IPfLMGeeKYnA1IMMmMTiYnkXtGkalDqemwXsWyzLVl/lYbMv0HPUd&#xA;HqY58Ucg6j+15HPiOOZieiMzJanYqhNX0jTNY0240zU7dLqxulKTwSCqsPo3BB3BG4O4xV8i/nB+&#xA;T9/5H1D65Z87ny5dPS1uTu0LHf0Zqd/5W/a+eKvN8VR2h63qeh6ta6tpkxgvrNxJDIPEbEEd1YbE&#xA;dxir7X/Ljz7p3nby1Bq1rSO5WkWoWlamGcD4l/1T1U9x71xVlGKuxV2KqV3d21naTXd1IsNtbo0s&#xA;8rbKqIOTMfYAYq+JvzS8/XfnbzXcamxZLCKsGmW5/YgU7Ej+d/tN77dAMVYhirOPyl/LO889eYRb&#xA;nlDo9nxk1O7XqqE/DGhO3OShp4bntir7Fgg0Xy7oYiiWLT9I02EmgoscUUYqSf1k98VfH35yfmDZ&#xA;edvNjX1hapDYWqfV7WcoFnnQGvqSnr1+wvYe9cVYHirN/wAu/Of6NuBpd/JTT52/cyN0ikPv/I3f&#xA;wO/jnN9vdk+NHxcY/eDn5j9Y/HR2nZ2t4DwS+k/Y9azg3omN+bfO9hoMRhSlxqTCsduDstejSEdB&#xA;7dTm57L7Hyao2fTj7/1OFq9dHEK5y7v1vH9T1LUtWupb68dppNuTU+FFJ2UAbKPDO+0+nx4IiEBQ&#xA;+/8AW83lySyEylu9e/Li/wDrflS1BNXti8D/AOxNV/4RhnBdv4fD1Uu6VH8fG3o+zcnFhHlsyfNK&#xA;5zsVdirsVdirOfyz1jhNPpUrfDJ++t6/zAUdR8xv9Gdb7MaypHCeu4/T+PJ03a2CwJj3F6FnZuid&#xA;irsVQesaPpus6Zc6XqUC3NjdIY5oXFQQe48CDuD2O+KvjD80/wAub/yN5jexflNplxWXTLxh/eRV&#xA;+yxG3OOtG+/ocVYbirOvyf8AzEn8k+a4riVydHvSsGqRCpHpk/DKB/NETX5VHfFX2jFLHLEksTB4&#xA;pFDI6moZWFQQR2OKrsVdirwz/nJ3z61hpFv5RspCt1qYE+oMpoVtlaiJt/vx139lp3xV8y4qjNI0&#xA;m/1fVLXS7CIzXt5KsMEY7s5oKnsB3OKvt78v/JWneTPLFto1pRnQepe3NKGadgPUkPttRR2UAYq+&#xA;cvzy/OOXzVeSaBoshTy5ayfvJBVWu5U/aYGn7tT9le/2j2oq8y0fQdV1i49CwgaUj7b9EUeLMdhm&#xA;Lqtbi08eLIa+/wCTdhwTyGohnJ/KMLpD0vOerfaSgpBsPsbjlv8AzfhnMj2ovKPTWL/Ze/8AZ9rt&#xA;f5I9HP1/Y87urW4tLiS2uY2iniYrJGwoQRnW48kZxEom4l004GJo82VWX5lazaaANNQBrpPghvWN&#xA;WWKmw4nqw7E5o83s/hnn8Q/T1j5/qdhDtKccfD170h0rStU17UxbwcpriUl5pnJIUV+J3Y1zaanU&#xA;4tLi4pbRHIfoDiYsU8s6G5es/wCBtPtvKl3o9svOeePk9w2zPMnxIT4AMNh4Zwv8s5J6qOaX0xPL&#xA;uj1+x6D8jGOEwHM/ex78ob0qdR059iOEyKeoO6Pt/wADm19qcN8GQeY/SP0uH2RP6o/F6TnHu7di&#xA;rsVdirsVVbS6ntLmK5gbhNCwdG9xluHLLHMTj9QNsZwEgQeRep6X580K7tVe5nFpcU/eRPWgP+S1&#xA;KEZ3+k7f0+SAMjwS6gvN5uzcsZbDiDr3z/5btgeEz3Lj9mFCf+Gbiv44c/tDpYciZHyH66XH2Zml&#xA;zFe9j95+aN2WIs7KNF7GZmcn6F4U+/NNm9qpn6IAe/f7qc6HY8f4pH4K+j/mY0k4j1WBI42NPXhD&#xA;UX/WVixp8jluj9p7lWaIA7x0+G7DP2TQuB+BTD8x/I+neefKc2muyC4K+vpl4NxHOB8DVFfgavFv&#xA;Y+NM66MhIWNwXSkEGi+JtR0+806/uLC9iaC8tZGhuIW6q6HiwP0jChD4q+qf+cavPZ1nyxJ5cvJe&#xA;V/ogAt+R3ezbZP8AkU3wew44q9kxVZcTw28ElxO4jhhVpJZG2CqoqxPyAxV8Kee/NVx5q826lrkx&#xA;bjdSn6vG37ECfDEn0IBX3xVIMVfQ/wDzi/5CFLnzpexgmr2mkhh07TzD/k2P9lir6GxV81f85Gfl&#xA;lZWd+nmXRIuD3vqSapZoPh5Jx/fooH7XI8/+C8cxM2tx48kccjRndfCvvbseCU4mQ/hY1+U+trNY&#xA;T6RJQS2xMsPYtG5+L58W/WM5P2n0ZjkGUcpbH3j9Y+53PZOe4mHcz/OWduxrzj5MtNetjLGFh1OM&#xA;fuZ+zAfsPTt79s3PZXa09LKjvjPMfpH43cLWaKOYWNpPJ7HyxrN5rJ0hIGS7RqTB9ljUdWY/y/r7&#xA;Z3ObtHDjw+KTcDy8/J56GlnKfBW72fy35bsNBsBbWw5SNQ3FwR8UjeJ8AOw7Z552h2hk1WTily6D&#xA;uem02mjijQTbMByHmtvB+gvzS9MDjbakGKfKYFqf8jVpnYZJ/mezL/ix/wC9/wCOl0kY+Fq/KX6f&#xA;2vSs493bsVdirsVdirsVdirsVdirsVZt+X3mYwzDSLt/3Mp/0Rj+y5/Y+Tdvf551fs72pwy8CZ9J&#xA;+nyPd8fv97p+09JY8SPMc3mn/OUHkNbe8tvONlHSO7ItdU4jYSqv7mU/6yrxJ9h452roXgWKsq/L&#xA;Dze/lLztpusFiLVZPRv1Fd7aX4ZNh14j4x7gYq+41ZWUMpBUioI3BBxV5n/zkN5nOiflvdwRPxut&#xA;YdbCOnXg4LTfQY0ZfpxV8fYqitK0261TU7TTbRed1ezR28C+LysEX8Tir7x8taDZ6BoFhotmKW9h&#xA;CkKGlCxUfE5p3dqsfc4qmWKvNvzPnD6ra2/URwciP9diP+Nc4f2oyXmjHuj95/Y9B2RH0E95eC69&#xA;oMnlXXoPMemRk6b6n+l26f7rD7OAP5GB28D9GZGi1o1uA6fKf3lek99cvj394a9RgOnyDLD6er0W&#xA;KWOaJJY2DRyKHRh0KsKg5yMomJIPMO5BBFhfkUrBFEJGkCKJHADOAORC1oCfapyRkaq9loXa/Iq7&#xA;FWE/mZZvFBp+uwr++02dC5H8jMCCfk6gfTnSez2USlPBLlkifn/Z9zq+04UI5BziWZxSpLEkqGqS&#xA;KGU+IIqM52UTEkHmHaA2LX5FXYq7FXYq7FXYq7FXYq7FXAkEEGhG4Iwg0rOFurPz15S1DyrqhVb6&#xA;6t2jjlbozqOUco/yo3UMR7VzvuxO2BqB4c/7wf7L9vf83nNfofDPFH6fufHV3aXFndzWlyhjuLeR&#xA;opoz1V0JVlPyIzoXWKWKvs/8jfM7eYPy20uaVud1YA6fcnvyt6BCfcxFCcVeRf8AOVeum48zaToi&#xA;NWOwtWuJAD/uy5elCPEJCD9OKvDcVem/8492elnz+mqanKIrbSoJJoywJBnf90goAegdm+jMbU6z&#xA;FgAOSXDbbiwTyfSLfVC+b/LTCo1CKh8ag/cRmKO2NKf8oG78jm/mlD3nnvy1bxsVufrEg6RxKxJ+&#xA;kgL+OU5u39LAbS4j3AfgM8fZ2aR5V73mOs6pNqmpTX0o4tKfhQbhVAoq/QM4PW6uWoynJLq9Hgwj&#xA;HARHRL5oYponhlQSRSKVkRhUMpFCCMxoyMSCNiGwgEUUJo+nHTrT6mr87aJj9VqSWWI7hCT14dB7&#xA;Uy/VZ/Glx1Uj9Xv7/j97Xhx8A4enRHZjNrsVdirsVQer6dHqOmXVjJ9m4jZK+BI+E/Qd8yNLnOHL&#xA;GY/hLXmxicDE9UB5MuZJ/LdksoKz26m2mQ9Q0DGOh/4HMrtbGI6mVfTL1D/O3adFInEL5jb5bJ3m&#xA;tcp2KuxV2KuxV2KuxV2KuxV2KqtpdTWlzFcwNxmhYOje4Ncsw5ZY5iceYNsZwEgQeReW/nvpUNt5&#xA;6fVLZAlpr1vFqMajoHcGOZT/AJXqxsT889V02cZccZjlIW8flxmEjE9HnWXtb6A/5xQ10rfa5oLt&#xA;8Mscd9CvgY29KT7/AFE+7FXm351ap+kvzR8wTVqsNx9VUVqB9WRYD/w0ZxVhGKvV/wAo7ER6Nd3h&#xA;FGuJ+APisSin4uc4b2ozXmjD+bH7/wCwPQdkQqBl3n7md5zDtnYq7FXYq7FXYq7FXYq7FXYqlOl2&#xA;/wBT1XU7cCkVw6XsfhWUcJAP9nHyP+tmdqZ+Jixy6xBh8tx9hr4NGKPDOQ79/nz+5NswW92KuxV2&#xA;KuxV2KuxV2KuxV2KuxVhf5yIlx5a0idv77T7mWBfExXK+oB/sHhb/gs7f2Y1fFjOI847j3H9v3ug&#xA;7Ww1ITHV5DnUuoejf84/aobD81NJUkiO9Wa1lp35xMyD/kYi4qwnzDfNf6/qd+1eV3dzzmvWskjP&#xA;v18cANi0kJfhQ9w/L63EPlDTx3dXkJ8ecjEfhnm3bk+LVz8qHyAeq7PjWGLIs1DmOxVA6vremaRb&#xA;fWNQnWFOig7sx8FUbnMrS6PLnlw4xZas2eGMXI0wLUvzefmy6ZYjiPsy3LGp/wBghH/Es6fT+ywq&#xA;8s/hH9Z/U6nL2v8AzI/NKx+a/mblX07UitePpvT5fbrmb/oZ03fP5j9Tj/ytl8vx8U30z83lLBdT&#xA;seI7y2zV/wCEf/mrMDUey3XFP4S/WP1OTi7X/nx+TL9O826BqqcbG+jFwwISKX4HDU/kbiW+jNDq&#xA;Oy8+A3OB4e8bj5h2OPV48n0y3UNA822+oXUumXiC01i2Zkltifhcp1aInqO9Ovz65Zruy5YojLD1&#xA;Ypcj3e9jp9WJkwltMdP1MgzVOW7FVNoVM6TftorIPk5Un/iIyYmeEx7/AMfpRw72qZBLsVdirHtY&#xA;82Q2+pQ6NpyrdavcMF4V/dwjqWlI/lG/Eb/LNtpOzDLGc2T04o/OXkPutw82rAkIR3mfs96tqnnL&#xA;y5pYK3N6jzL1hi/ePXwIWvH6cr03ZOozbxga7zsPt/Qyy6zFj5ndiGpfm83IrplgOPaS5bc/7BD/&#xA;AMbZv9P7Lf6pP/S/rP6nXZe2P5kfmlX/ACtjzNyr6drStePpvT5fbrmb/oZ01c5/Mfqcf+Vsv9H8&#xA;fFN9L/N5S6pqljxU9Zrc1p/sG/5qzA1PstteKfwl+sfqcnF2v/PHyZ5per6dqlsLmwnWeI7Er1U+&#xA;DKd1PzzmNTpcmGXDkHCXbYs0cguJsIzMdsdirFfzMg9Xyjcv3heKQf8ABhP+N83ns9k4dXEfzgR9&#xA;l/ocDtON4T5U8Xz0R5hkH5fXhsvPfl26rQRalaF+n2fWUN1/ya4qx/FXYq998qIU8s6UD3tYW2/y&#xA;kB/jnlvaZvU5P68vvev0grFH+qE1zBb0p8zeYLbQtLkvZvikPwW8Pd5CNh8u5zP7O0MtTlEBy6nu&#xA;Dj6nUDFDiLw/VtXv9VvXvL6UyzP0/lUdlUdgM9J02lx4ICEBQ/HN5bLmlklxSO6DzIanYq7FXYqq&#xA;rd3S3CXImf6xGVKS8jyBX7ND12ptlZxRMTGhwnoy4zd3u9o8j+a117TaTEDULai3KjbkP2ZAP8rv&#xA;75532z2YdLk2/u5cv1PT6HV+LHf6hzZLmnc12KuxV2KsU8/ebf0JYC3tWH6SugfS/wCK06GQ/qX3&#xA;+Wb3sTsv8zPil/dx5+Z7v1/tdfr9X4UaH1F44Li4EjyCVxJJX1H5GrcvtVPevfPQOCNAUKDzXEea&#xA;nk0OxV2KuxVMNE1zUNGvku7KQqw/vIzXg6/yuO4zF1mjx6iHBMfrHubsGeWKXFF7joGuWmtaZFfW&#xA;xoH2ljJqUcfaU/L9Wea67Rz0+Uwl8PMd71WnzjLASCY5htyReeUD+U9SB7RV2/yWB/hmz7GNarH7&#xA;3F1wvDL3PCs9NeTRuizejrNhNTl6VxE/HpXi4NK4qgiCCQRQjYg4q7FXvnlOTn5Z0ttjS1iXb/JQ&#xA;L/DPLu041qcn9c/e9dpDeKPuCbZgOQ8b/M3WHvfMT2in/R7BREg7FyAzt8/2foz0L2d0ox6cT/in&#xA;v8On6/i812nm4stdIsRzfOudirsVdirsVdiqb+VNbk0bXLe8BIh5encr4xPs33faHuMwO09GNRgl&#xA;DrzHv/Gzk6TP4WQS6dfc96BDAMpqDuCOhGeXkU9a3gV2KrJZY4onlkbjHGpZ2PQKBUnJRiZEAcyp&#xA;IAsvAfMGsTaxq9zfyE0lY+kp/ZjGyL9Az1PQ6UafFHGOnP39Xj9RmOSZkUuzLaXYq7FXYq7FXYqz&#xA;f8qtYe21t9OZv3N8hKr4SxgsD9K8h92c37S6UTwjIOcD9h/bTtOys3Dk4ekvvet5wb0SQ+eXCeUt&#xA;SJFaxBf+CYD+ObTsYXq8fv8A0OJrjWGXueF56Y8ojdEhE2s2EJPESXMKV8OTgYqq+ZrH9H+Y9VsK&#xA;U+qXlxBQ9vTlZO/ywAUpS3Cr2/8AL249fyjYH9qMPG3+wkYD8KZ5t27j4dXPzo/YHquz5XhiyPNQ&#xA;5j551i4Nzq97cE19aeV6/wCs5OesaSHBihHuiPueNzS4pk95KDzIa3Yq7FXYq7FXYq7FXvHky9a8&#xA;8r6bOxq3oiNj4mImM/8AEM8w7Ww+Hqpx/pX89/0vW6KfFiifL7tk6zXOS7FWO/mBem08p3zKaPMq&#xA;wj5SMFb/AIWubfsPDx6qF9N/l+1w+0J8OGXns8Pz0l5V2KuxV2KuxV2KuxVNPK85g8x6ZKO1zED8&#xA;mcKfwOYXaUOLT5B/RP3N+llWWJ8w9+zyx69in5m3Ai8pXCV3nkijH0OH/wCNM3ns7j4tWD/NBP2V&#xA;+lwO05VhPnTxjPRHmGQ/l3Zm88++XbYdJNSteVP5RMpY/wDAg4qnH53aSdM/NHXoqUSecXaEdD9Z&#xA;RZWP/BORirBsVerflHfCTSLyzJ+K3mEgH+TKtB+KHOH9qMNZoz/nRr5f2vQdkTuBj3H72eZy7tnz&#xA;xq9s1tqt5bsKGGeRCP8AVcjPWdLk48UZd8QfseNzR4ZkdxQmXtbsVdirsVdirsVdir2v8tgw8n2R&#xA;Y7Fpivy9Vh+vPOfaAj83L/N/3Ieo7N/uR8fvZPmlc52KsR/NEE+VH3pSaKv3nN/7N/40P6pdd2p/&#xA;c/EPG89BeadirsVdirsVdirsVTPyxbtceYtNiXvcxE/6quGb8BmF2jkENPkP9E/c36WN5YjzD3/P&#xA;LHr3nf5v3oFrp9iDu7vOw8OA4r9/M51vsrh9U59wA+e/6HTdsT2jH4vMc7N0T0j/AJx70o3/AOae&#xA;luRyjsUnupNq/ZiZFP8AyMdcVZZ/zlZoJg8w6RriLRL22a1lI/35bvyBPuVlp9GKvC8VZf8Alfqg&#xA;tPMgt3NI76NovbmvxofwI+nNB7R6bxNNxDnA38OR/Hk7LsvLw5a/nPY88+ekeR/mloL2msDU41/0&#xA;a+A5kdFmUUI/2Siv353ns3rRkw+Efqh937P1PO9qYOGfGOUvvYTnSOrdirsVdirsVdirsVe/eV7B&#xA;rDy9p9o44yRwqZF8Hb4mH/BNnlvaOcZdROY5GX2cg9fpcfBjiPJNMwW92KpH52sGvvK2oQIKusfq&#xA;oO9YiJKD5haZs+x84xaqEjyuvns4utx8eKQ/GzwnPTXk3Yq7FXYq7FXYq7FWfflRoTzahLrEq0ht&#xA;gYrcnvK4oxH+qh/HOW9ptaI4xhHOW5937T9zt+ycFyMzyH3vVM4h37xT8x9TF95puFU1jswLZfml&#xA;S/8Aw7EZ6N2Bp/C0ovnP1fPl9jzHaWXjyny2Yxm6cB9Bf84n6HW617XXSnBIrGB/HmTLMPo4R4L3&#xA;pNPQ/wDnIDyw2u/lvevEnK60ll1CGgqeMQIlH/IpmP0YUPjrFVW1uZrW5iuYW4zQuskbeDKajIZM&#xA;YnExPIimUZGJBHMPoLSdRg1LTba+hNY7hA4Hgf2l/wBids8q1OCWHJKEucS9hiyCcRIdWtW0qz1W&#xA;wlsbxOcMo7faUjoynsRjpdTPBkE4HcLlxRyRMZcnivmbylqeg3JWZDJaMf3N2o+Bh2Dfyt7HPRuz&#xA;u1MWqjttPrH8cw8vqtJPEd+XekebJxXYq7FXYq7FWTeQfLj6xrcbyL/oVmVluG7Eg1RP9kR91c03&#xA;bevGnwkD657D9J+H3udoNN4mT+iOb2zPOHqHYq7FWiARQ9MKvDPOnl19E1qWFVpZzEy2jduBP2a+&#xA;KdM9L7I141OEH+MbS9/f8XlNbp/CnXQ8khzaOI7FXYq7FXYqyHyp5N1HXrhW4tDp6n99dEbUHVUr&#xA;9pv1Zqe0+1seljXPJ0j+vyczSaKWU90e97Rp2n2mnWUVnaRiO3hXiij8ST3JO5zzvPnnlmZzNyL0&#xA;+PGIREY8goa/q0ek6PdX8n+6UJjU/tOdkX6WIy3RaY580cY6n7OrHUZRjgZdz5/kkeWR5JDykcln&#xA;Y9SSak56pGIAocg8eTZsrcKH2j+SHlj/AA/+W+lQSJwur5Tf3XjzuKMlR2KxBFPyyMe9JZzNDFPC&#xA;8MyCSKVSkiMKhlYUII8CMkh8LfmB5Vm8q+cNT0NwfTtpibV26vbv8cLV8ShFffACrHsKvR/yo8wg&#xA;GXQ52+1WazJ8eroP+JD6c5D2m0HLPH3S/Qf0fJ3fZOo54z8Hpecc7tZLDFNG0UyLJE4o8bgMpHgQ&#xA;djkoyMTYNFBAIosU1T8sfLV4S8CvYynesLVSv+o3If8AA0zeab2i1OPaVTHnz+Y/Tbr8vZmKXL0+&#xA;5imo/lNrcJJsbiK7TsrVif7jyX/hs3uD2nwy+uJifmP1/Y6/J2TkH0kH7GPaj5S8wabCZr61EES7&#xA;c2kioT4CjGp+WbXT9qafMeGEuI+4/qcPJpMkBchXxCT5sHGTry35U1TXrkJbIUtlNJrph8CDvT+Z&#xA;vYZru0O08Wljcjcukep/Z5uVptJPKduXe9o0PRbLRtOjsbNaIm7uftO5G7t7nPOtZrJ6jIZz5/cO&#xA;56fBgjijwxTDMVtdirsVdiqWeYPL9jrmntZ3YoftQzD7Ub9mH8RmboddPTZOOHxHeGjUaeOWPCXi&#xA;vmDy1quh3RhvI/3ZP7q4Wpjcex8fY756Loe0MWpjcDv1HUPMajTTxGpfNKsznHTrT/JvmPUYUnsr&#xA;QTQv0kWWLj9PxbH2zXZ+1tPiJjOVH3S/U5WPR5Zi4ix7wyHTfyl1iajX9zFaIeqJWV/w4r/wxzU6&#xA;j2nwx/u4mX2D9f2OZj7JmfqIH2ss0v8ALTyzZMryxveyrvWdqrX/AFFCr99c0ep9odTk2BEB5fr/&#xA;AFOwxdmYo8/V72UpGkaKkahEUUVVFAAOwAzSSkSbPN2AFLsiryz81fMAuLyLRoHrFbfvLmnQykfC&#xA;v+xU/j7Z2/s1oeGBzS5y2Hu/b+h0PauouQgOnP3sAzqXTsr/ACu8oP5s876bpBQtaep69+d6C2h+&#xA;KSpANOX2B7kZGSQ+4lUKAqiijYAdAMkh2KvEP+cnPIh1HRLfzXZx8rvSh6N9xG7WrtVWP/GKQ/cx&#xA;PbInY2kPmHJIVbS6ntLmK5t3Mc8LB43HYg1yvLijkiYyFgsoTMSCOYe8eWdft9c0mK9iosn2biIf&#xA;sSDqPl3HtnmPaGhlpspgeXQ94et02oGWAkPimuYLe7FUHqcWqS25TTriO2mPWSWMy0H+SAyivzrm&#xA;Rp5YoyvIDIeRr9DXlEyPSaLB7v8ALPW9TufrGqa360h/a9MvQeCgsgX5DOlxe0OHDHhxYqHv/YXV&#xA;T7MyTNznaZ6X+V3l2zYSXJkvpBvSQ8Y6/wCotPxJzC1PtHqMgqNQHlz+Zb8XZeKO59TLYIIYIlhg&#xA;jWKJBRI0AVQPAAZopzMjcjZLsYxAFDkqZBLsVdiqCsdY0y+uLq2tJ1lns39O5QAgo1SKbgV3B6Zk&#xA;5tJkxxjKYqMxY82uGaMyQDvHmjcxmx2KqVxbW9zC0NxEs0LijxuAyke4OTx5JQPFE0fJEoiQoiwx&#xA;HU/yr8vXTF7R5bFz+yh5x/8AAtv9zZv9P7S6iG06n9h+z9TrcvZWOXK4pfYfltr2lXHraXrYhY/a&#xA;PplQwHTkvJ1b6cys3tBgzxrLiv4/poNWPs3JjNwnTOdPj1GO3C380c846yRRmMEe4LPvnNZ5YzK8&#xA;YMY+Zv8AQHa4xID1GyisoZuxVJPNvmOHQdJe5JDXUlUtIj+057keC9Tmy7L0B1OUR/hH1Hy/a42r&#xA;1IxQvr0eFzTSzzPNMxeWRi8jtuSzGpJz0yEBEADYB5ORJNlZkkPqv/nGzyGdF8ryeYbyPjqGthWg&#xA;5D4ks13j+XqN8fuOORG5tJexZJDsVU7q2t7q2ltbmNZbedGimicVVkccWUjwINMBFq+J/wA1fy/u&#xA;vJPmufTiGbTZ6z6XcHfnAx2Un+eM/C339CMET0KSw7JITzyl5nuNA1ITrV7SWi3cI/aXsR/lL2zW&#xA;9qdnR1WPh5SH0n8dC5Wk1Rwyvp1e32d5a3trHdWsglt5l5RyL0IzzbLiljkYyFSD1UJiQscir5Uy&#xA;dirsVdirsVdirWKvLLrzXPqv5gWAtZmWwguEghCkgOC1Hc068/1Z2+PsyODQT4h65RJPl3D4fe6C&#xA;WrOTUxo+kGkv0LXP0R57uZZG42s9zNBc16BXkNGP+q1DmXrdH4+hiB9UYxI+A/S04M/h6gk8iSD8&#xA;3smeevSuxV2KuxV2KuxV2KobUdRtNOspby7kEdvCKux/AAdye2XYME8sxCAuRYZMkYRMpcg8N8z+&#xA;YrrXtTe7m+CJfgtoK1CJ4fM9znpfZ2gjpcXAOfU95eV1WpOWfEeXRKMz3GZ5+Tn5dS+dfNccEyH9&#xA;DWBWfVJRsClfhhB/mlIp8qntkZdyQ+z4444o1jjUJGgCoigBVUCgAA6AZJC7FXYq7FWIfmh+Xtj5&#xA;48sy6bLxiv4ay6bdkf3cwHQ9+D/Zb7+oGRkOqQXxZq+k6jo+p3OmalA1tfWjmOeF+qsP1gjcEbEb&#xA;4QbQUJhVk/kvzpc6DcejNyl0yU1liG5Qn9tPfxHfNL2v2RHVR4o7ZByPf5Fz9FrTiNHeL2SyvbW+&#xA;tY7q0lWaCUckdeh/ofbPPs2GWORjMVIPSwmJCwbCvlTJ2KuxV2KuxVjfn661SDy9LHpsEk01ywhd&#xA;olLMkbA8mou+/wBn6c3HYmLFLUA5CAI779T+N3C7QnMYzwiydnm3lHQta/xLpztYzokUyySO8bIo&#xA;VDUklgBnYdqa3D+WmOOJJiRzt0mjwT8WPpPNKNeBXXNRBFCLmaoP/GQ5n6I3gh/Vj9zjZ/7yXvL2&#xA;TyLq8mqeW7aaapmhrBKx/aMewb6VpX3zz3tnSjBqZRHI7j4vTaHMcmIE8xsyDNU5bsVdirsVdiqG&#xA;1HUbLTrSS7vJRDbxirOfwAHcnwy7BgnlmIQFyLDJkjCPFI0Hi/m/zfd+YLvvFp8RP1e3r9HN6dWP&#xA;4Z6J2V2VDSw78h5n9A8vveY1mslml/R6Bj2bZw0w0DQdU1/WLXSNLhNxfXj8Iox08SzHsqgEseww&#xA;E0kB9r/l35F03yV5Zt9Hs6STf3t9dUoZrhgOb+w2oo7AeO+ICksmwodirsVdirsVeW/nZ+T0PnLT&#xA;zqmlIsfma0SkZqFW5jXf0nJ/aH7DH5HbcRIrcJfJN3aXVndS2t3E8FzA5jmhkUq6OpoVZTuCDkkK&#xA;WKp35Z82anoFxyt29S1c1mtXPwN7j+VvcZre0ezMWqj6tpDkfxzDlabVzwnbl3PYPL3mjStdt/Us&#xA;5KSqKzWz7SJ8x3HuM4DXdnZdNKpjboehek0+qhlFx59yb5gOQ7FXYq7FXYq7FUJLpGkzSNLNZQSS&#xA;NuzvEjMT7kjMiOqyxFCUgPeWs4YE2QPkrwwQwRiKCNYol+yiAKo77AbZVOcpG5GyzjEAUFTIJdir&#xA;sVdiqS+ZPNmlaDBW6fncutYbVPtt2r/krUdTmx7P7My6qXpFR6y6f2uNqdXDCN+fc8e8xeZ9T166&#xA;9a7fjElfQtk+wgPh4nxOegaDs7FpY1Dn1PUvN6nVTym5cu5KMz3GROnadfalfQWFhA9zeXLiOCCM&#xA;VZmPQAYCaUB9e/k3+Ulr5H0s3N5wn8xXqgXdwu4iQ0PoRnwBFWP7R9gMAHUpL0fJIdirsVdirsVd&#xA;irsVeY/m9+Sum+dIG1LT+Fl5kiX4bgikdwFFFjmp37K/Ue46Kvk3WdF1XRNSn0zVbZ7S+t24ywSC&#xA;hHgR2IPUEbHFUFirO/yi/wCO3ef8w3/Mxc5j2p/uY/1v0F23ZH94fc9XzhnoHYq7FXYq7FXYq7FX&#xA;Yq7FXYq7FXYq8k/Nv/lJLb/mDT/k7Lneey/+Ly/rn7ovO9r/AN6P6v6SwjOkdWmGg+X9Z8wapDpe&#xA;j2r3l9OaJEg6DuzMaKqjuzGgwE0kB9bflL+TeleR7X65clb3zFOnG4vKfBEp6xwVAIHi3VvYbYAO&#xA;pW3o+SQ7FXYq7FXYq7FXYq7FXYq+Z/8AnLBV/wAR6E1ByNnICe9BLt+vFXhWKs7/ACi/47d5/wAw&#xA;3/Mxc5j2p/uY/wBb9Bdt2R/eH3PV84Z6Bjuuec9P0nWrHTJSD9YP+kyV/ulbaMn5t18Bm30fZOTP&#xA;hnkH8PLz7/x3uHn1sceSMD15+TIs1DmOxV2KpZ5j1yDRdImvpaFlHGCM/tyH7K/19szdBo5ajKID&#xA;4+QaNTnGKBkVTRNXttX0uC/tz8Ey/EndHGzKfkchrNLLBlOOXT7fNlgzDJASHVH5itrsVU554YIZ&#xA;J5nEcUSl5HPQKoqScnCBlIRG5KJSAFnkknlPzZa+YIbhkX05reVgYj19Ik+m/wBI6++bHtPsyWll&#xA;G9xIc/PqPx0cXSasZge8H+xP81blvIvzacN5lgA6raID/wAjJD/HO99mBWmP9c/dF53tY/vR/V/W&#xA;wrOjdW+hv+cSFXl5qag5AWADdwD9ZqPwxV9D4q7FXYq7FXYq7FXYq7FXYq7FXzR/zlh/ykOg/wDM&#xA;JL/ydxV4TirO/wAov+O3ef8AMN/zMXOY9qf7mP8AW/QXbdkf3h9zOvNvmu08v2PqOBLeS1Ftb+JH&#xA;7TeCjOZ7L7Mnqp0NoDmfx1dtq9WMMb6nk8Rvb25vruW7unMlxMxeRz3J/h4Z6ThwxxwEIioh5Wcz&#xA;ImR5l6X+XfndblItF1F/9JUcbSc/tqBsjH+YdvH59eN7e7H4Cc2Men+Id3n7vu+7e9na7irHLn0e&#xA;gZyrt1G8vLaztZbq5kEUEKlpJG6ADLMWKWSQjEXIsZzERZ5B4n5y81z+YNQ5KDHYwVFrCetD1dv8&#xA;pvwz0fsnsyOlx1zmeZ/R7nl9Zqzml/RHJW8keb5dAvTHNV9NuCPXjG5U9BIo8R38R9GV9sdlDVQs&#xA;bZI8v1MtDrDhlR+k/i3tFvcQ3MEdxA4khlUPG69CpFQRnneSEoSMZCiHp4yEhY5KmQS8o/MLzwuo&#xA;M2k6a/8AoSNS5nHSVlP2V/yAfv8Al17nsLsfwv3uQes8h3ft+55/tDXcfoj9PXzYpoOt3mi6lHfW&#xA;p+JdpIz9l0P2kb55vNbo4ajGYS/sPe6/BnlilxB7joWuWOtacl7Zt8DfDJGftI46q2ea63Rz0+Qw&#xA;n/aO96rBnjljxReYfmt/yk6f8w0f/EnztPZn/Fv84/odF2r/AHvwYbnQusfQ/wDziR/01f8A27/+&#xA;xnFX0NirsVdirsVdirsVdirsVdirsVfNH/OWAP8AiDQTTY2koB+UgxV4TirOvyiZf07eLX4jakge&#xA;wkSv685n2pH7iJ/p/oLtuyD+8P8AV/Sln5j3c1x5tu0c1S3CRRL4KEDH72YnM3sDEIaSJH8Vk/Nx&#xA;+0pk5j5MYzcuCuilkilSWNikkbBkYdQymoIyMoiQIPIpBINh9E21wJLOCeSimVEJ8KuBQfec8myY&#xA;6mYjoT9j2cZXEFhf5t3c0ejWlshIjuJqy07hFqAfpNfozovZfEDmlI84x2+LrO15kQA7y8ozuXnn&#xA;Yq9e/Km7lm8tyQyElba4dIieysqvT/gmOcD7TYhHUAj+KIv7Q9H2TMnFXcU4833zw+U7+6tm3aCk&#xA;bjbaUhaj6GzA7LwiWqhGX877t3J1mSsMiO773hOemvJuxVnv5Q3cy6ve2YP7mS39Yj/KjdVH4SHO&#xA;X9qcQOKM+olXzB/U7fsiZ4zHpSD/ADVYHzQAOq28YPzqx/jmR7ND/Bf84/oau1T+9+DDs6B1r6H/&#xA;AOcSP+mr/wC3f/2M4q+hsVdirsVdirsVdirsVdirsVdirwX/AJyw0lpNG0HVlXa2uJrWRh/y8Irr&#xA;X/kQcVfNmKp/5G1iPSvMltPM3G3krDMx6BZNgT7BqE5q+2dKc+mlEfUNx8P2OZocwx5QTy5Mn/M/&#xA;ytcvdfpy0QyxOqreKoqVKCiybfs8aA+FM0vs52lER8CZo/w/qc7tTSm/Ej8XnOdc6VPfKXli713U&#xA;o41RhYxsDdz9FCjcqD/M3QZrO1O0YabGTfrP0j8dHL0mlOWVfw9XpP5h6+ukaNHDAQLueRPRUdli&#xA;YOzfL4Qv05x/YWh8fMTL6Yg38RX7Xd9o6jw4UOZ/Qu8yadD5u8qxTWDAykC4tKkfaAIaNj2O5Hzw&#xA;dn6g6DVGOTl9Mv1/p9ydTjGowgx94/U8buLee3meCeNopozxeNwVYHwIOegwnGYEomwXmZRMTR5r&#xA;rS0ury4S2tYmmnkPFI0FSTgy5Y44mUjUQmEDI0BZeyaXbQeTvJ7tcspmiVppqdHnfZUH4L+Oee6n&#xA;JLtDVgR5HYeUR1+8vTYojTYd+fP4qHlC8t/Mnk59PuX5TJG1rc/zAGvpuP8AY0p7jLe1MUtJrPEi&#xA;NieIfpDDRzGfBwnnyLyvWdF1DR757S9jKOpPB6Hg69mQ9wc7fSazHqICcD+zyLz+bBLHLhkgQCSA&#xA;BUnYAZlEtT1r8tvLM+k2M+pX6+jcXSgLG+xjhXerV6FjvT2zg/aDtGOeYx494x+0/sei7N0xxxMp&#xA;bE/c88826uureYby9jNYWbhB/qIOKn6aVzrey9KcGnjA863953dNq8viZDIcknzPcZ9Q/wDOK2kt&#xA;b+T9U1N1Km+vfTQn9pLeMUI9ucjDFXtmKuxV2KuxV2KuxV2KuxV2KuxVi35neUB5t8k6loyAfW5E&#xA;9WxY9riI849+3KnEnwOKvh6WKWGV4ZUMcsbFJI2FGVlNCCD0IOKrMVZ75Q/MlrCBNP1hWmtkHGK5&#xA;X4nReysP2gPv+ecv2r7P+LI5MO0jzHQ/qdvo+0uAcM9x3spW6/LS9JuWOnFm+JjIqRsfmrhST9Ga&#xA;Q4+0sfp/e/Cz9zn8ellv6FLU/wAw/K+k23oaaFupFFI4LdeEQPu1AtP9WuT0/YOpzy4snpHfLc/L&#xA;9dMcvaOLGKjv7uTyzWtav9Yv3vb1+UrbKo2VFHRVHYDO30mkhp8YhAbff5l0GbNLJLiknHk/zvea&#xA;A5hdTcadI3J4a0ZT3ZCe/t3zX9q9jw1Q4h6cg6/rcnR66WHbnF6CPMX5f64qSXb2rSDYC8RUdfbk&#xA;4p9xzlToNfpiRATr+ibH2fqdx+Y02Xc18Wn80eQtCjc2bW4c9UskVmenbkg4/e2I7O12pI4+Kv6Z&#xA;5fP9SnVafEPTXwedebfOV95hnVWX0LGI1htga79OTnu36s63svsmGlj/ADpnmf0DydLq9ZLMe6Pc&#xA;gNA8wX+h34vLNhWnGWJvsOvg38Mytdocepx8E/ge5q0+olilxRen2fnrydrdqsWprHC/7VvdoGQH&#xA;uVcgr99DnGZextZppXjsjvid/lz+93sNdgyip7e9XXUvy50pvrMMlhHIBUPAEkkHy9MMwyo6ftDP&#xA;6ZDIR52B9rMZNNj3HD8GH+cfzGk1SF9P0xWgsn2mmfaSQfygD7K/ic3/AGV2AMMhky7zHIdB+sut&#xA;1naRyDhhtFg+dK6pWs7O6vbyCztI2murmRYoIV3Z3chVUe5JxV90+RPLEXlfyjpehIQWs4QJ3Xo0&#xA;zkvKw9jIzUxVPsVdirsVdirsVdirsVdirsVdirsVfO3/ADkH+Ttwbi485+X4DIjgya1ZxirBh1uU&#xA;UdQf92f8F40VfPeKuxV2KuxV2KuxV2KuxV2KuxV2KuxV2KuxV9Jf84+fk9c6dJF5x8wQmO6ZK6RZ&#xA;OKNGrihnkXszKaIOwNetKRBv3JOz3vJIdirsVdirsVdirsVdirsVdirsVdirsVeMfmR/zjho+vTy&#xA;6p5alTSdSkJeW0cH6pKx7gKOURPfiCPYdcjRS8G8w/lP+YegSML/AEO5aJf+Pi2T6xCR2POHmBX/&#xA;ACqHCCpYo6OjFHUq42KsKEfQcKEbpnl/XtVkWPTNOub53+ytvDJLWhp+wDgJATT1Dyj/AM4z+ddX&#xA;UT61LHoVsVJVZAJ7gkj4f3SMFUePJwfbBZPJaSPzV+RH5jeX5HYac2q2YPw3Wn1nqOu8QHqr7/DT&#xA;3x4u9aYDcW1zbSGK4ieGQdUkUqw+g0wiQPJSKbtbO8u5RFawSXEpIAjiRnYk9NlBOJkBzUC3oXlT&#xA;8gfzG1+RWnsTo1mT8dxqFYmA78YKeqT4VUD3wX3LSaeb/wDnGvzxo7tLoxTXbIbgxUhuBsK8oXah&#xA;36cGY+wwglXmOp6DrmlSGPU9PubGQGhW4heI/wDDgYUIOKKWVxHEjSSN9lFBJPyAxVmPlv8AJ78x&#xA;fMLp9T0aeC3Yj/S7wG2iAP7QMnFnH+oDir3z8tv+cd9B8tTRanrsiaxq8dGijK0tYWHdUbeRh2Z/&#xA;+BB3yNXzTfc9eySHYq7FXYq7FXYq7FX/2Q==</xmpGImg:image>
               </rdf:li>
            </rdf:Alt>
         </xmp:Thumbnails>
         <xmpMM:RenditionClass>proof:pdf</xmpMM:RenditionClass>
         <xmpMM:OriginalDocumentID>uuid:65E6390686CF11DBA6E2D887CEACB407</xmpMM:OriginalDocumentID>
         <xmpMM:DocumentID>xmp.did:18021ffe-dc7f-e842-b47c-232337cc693f</xmpMM:DocumentID>
         <xmpMM:InstanceID>xmp.iid:18021ffe-dc7f-e842-b47c-232337cc693f</xmpMM:InstanceID>
         <xmpMM:DerivedFrom rdf:parseType="Resource">
            <stRef:instanceID>uuid:8e7ed5aa-edab-49b8-8860-63107cf1b048</stRef:instanceID>
            <stRef:documentID>xmp.did:c0e0ceb4-5a75-ea4d-a2f8-dfc9e49d5860</stRef:documentID>
            <stRef:originalDocumentID>uuid:65E6390686CF11DBA6E2D887CEACB407</stRef:originalDocumentID>
            <stRef:renditionClass>proof:pdf</stRef:renditionClass>
         </xmpMM:DerivedFrom>
         <xmpMM:History>
            <rdf:Seq>
               <rdf:li rdf:parseType="Resource">
                  <stEvt:action>saved</stEvt:action>
                  <stEvt:instanceID>xmp.iid:892ea85b-cdd6-6944-8025-e7979106b4f5</stEvt:instanceID>
                  <stEvt:when>2021-07-11T21:46:25+03:00</stEvt:when>
                  <stEvt:softwareAgent>Adobe Illustrator 25.0 (Windows)</stEvt:softwareAgent>
                  <stEvt:changed>/</stEvt:changed>
               </rdf:li>
               <rdf:li rdf:parseType="Resource">
                  <stEvt:action>saved</stEvt:action>
                  <stEvt:instanceID>xmp.iid:18021ffe-dc7f-e842-b47c-232337cc693f</stEvt:instanceID>
                  <stEvt:when>2022-02-26T08:30:27+02:00</stEvt:when>
                  <stEvt:softwareAgent>Adobe Illustrator CC 2015 (Windows)</stEvt:softwareAgent>
                  <stEvt:changed>/</stEvt:changed>
               </rdf:li>
            </rdf:Seq>
         </xmpMM:History>
         <illustrator:StartupProfile>Web</illustrator:StartupProfile>
         <illustrator:CreatorSubTool>AIRobin</illustrator:CreatorSubTool>
         <pdf:Producer>Adobe PDF library 15.00</pdf:Producer>
         <xmpTPg:NPages>1</xmpTPg:NPages>
         <xmpTPg:HasVisibleTransparency>False</xmpTPg:HasVisibleTransparency>
         <xmpTPg:HasVisibleOverprint>False</xmpTPg:HasVisibleOverprint>
         <xmpTPg:MaxPageSize rdf:parseType="Resource">
            <stDim:w>237.308153</stDim:w>
            <stDim:h>271.740280</stDim:h>
            <stDim:unit>Pixels</stDim:unit>
         </xmpTPg:MaxPageSize>
         <xmpTPg:PlateNames>
            <rdf:Seq>
               <rdf:li>Cyan</rdf:li>
               <rdf:li>Magenta</rdf:li>
               <rdf:li>Yellow</rdf:li>
               <rdf:li>Black</rdf:li>
            </rdf:Seq>
         </xmpTPg:PlateNames>
         <xmpTPg:SwatchGroups>
            <rdf:Seq>
               <rdf:li rdf:parseType="Resource">
                  <xmpG:groupName>Default Swatch Group</xmpG:groupName>
                  <xmpG:groupType>0</xmpG:groupType>
               </rdf:li>
            </rdf:Seq>
         </xmpTPg:SwatchGroups>
      </rdf:Description>
   </rdf:RDF>
</x:xmpmeta>
                                                                                                    
                                                                                                    
                                                                                                    
                                                                                                    
                                                                                                    
                                                                                                    
                                                                                                    
                                                                                                    
                                                                                                    
                                                                                                    
                                                                                                    
                                                                                                    
                                                                                                    
                                                                                                    
                                                                                                    
                                                                                                    
                                                                                                    
                                                                                                    
                                                                                                    
                                                                                                    
                           
<?xpacket end="w"?>
	</metadata>
<g>
	<circle fill="#FFFFFF" cx="118.376" cy="113.906" r="101.952"/>
	<g>
		<path fill="#E59D0E" d="M95.289,36.549c-8.161,1.5-16.781,6.851-24.22,9.651c-1.321,0.499-2.561,1.19-3.741,2.03
			c-5.819,4.059-10.34,11.42-15.959,14.87c-2.731,1.679-3.761,5.199-4.33,9.19c-0.9,6.31-0.64,13.829-4.16,17.19
			c-2.875,2.75-8.874,2.557-14.801,2.364c-2.198-0.071-4.385-0.143-6.399-0.065c-3.87,0.141-7.11,0.841-8.57,3.14
			c-2.641,4.17-8.111,8.061-12.551,12.181c-0.409,4.239-0.599,8.529-0.55,12.88c0.03,3.08,0.19,6.14,0.46,9.17
			c4.02,5.04,8.45,10.16,8.501,14.379c0.119,8.751-0.961,16.411,1.769,24.46c0.031,0.081,0.051,0.151,0.07,0.231
			c5.71,12.43,13.561,23.829,23.271,33.67c3.099,0.619,5.909,1.52,7.88,3.199c6.389,5.441,10.829,15.161,18.599,19.271
			c3.111,9.59-0.23,10.719-0.189,20.79c0.039,9.91,0.8,10.03,1.009,19.62c2.88,2.13,6.091,3.819,9.53,5.009
			c2.781-0.52,5.98-1.059,9.46-1.059c3.371,0,6.561,1.05,9.39,2.31c3.891-0.791,7.55-2.201,10.891-4.13
			c5.299,3.07,11.46,4.84,18.009,4.84c6.551,0,12.711-1.77,18-4.84c1.88,1.08,3.871,2.009,5.951,2.75
			c1.159-3.771,1.81-7.25,1.81-9.771c0,9.691,9.55,8.221,21.349,8.221c1.38,0,2.771,0.1,4.14,0.259
			c5.991-2.81,11.08-7.219,14.7-12.679c-5.85-2.721-12.05-5.29-12.03-10.591c0.021-3.73,0.06-6.649,0.261-9.349
			c0.03-0.44,0.069-0.871,0.11-1.3c0.389-4.061,1.229-7.78,3.009-13.231c3.221-1.7,8.961-2.099,15.05-2.35l0.031-6.159
			c21.099-16.22,35.9-38.77,42.459-64.08c0.031-1.92,0.021-3.94,0.021-6.12c0-8.39,3.899-15.4,1.489-23.171
			c-2.43-7.83-12.279-9.879-16.85-16.83c-0.06-0.09-0.119-0.179-0.17-0.269c-4.269-6.7-4.25-14.53-10.35-20.141
			c-5.929-5.449-8.81-14.029-16.069-18.279c-3.65-2.14-8.593-0.647-13.616,0.846c-4.53,1.346-9.125,2.692-12.895,1.373
			c-7.599-2.669-9.929-23.74-18.239-25.07c-7.951-1.269-16.97,7.71-25.401,7.811c-3.957,0.043-8.305-3.06-12.619-6.163
			c-4.283-3.081-8.533-6.164-12.33-6.163C96.07,36.444,95.677,36.478,95.289,36.549"/>
		<g>
			<path fill="#353535" d="M93.871,235.598c0,6.615-5.345,11.983-11.983,11.983c-6.615,0-11.983-5.368-11.983-11.983
				c0-3.091,1.174-5.919,3.139-8.052c0.408-0.384,0.815-0.791,1.223-1.199c0.023-0.023,0.047-0.023,0.047-0.023
				c3.044-3.092,5.609-6.664,7.598-10.593c1.965,3.929,4.553,7.501,7.597,10.616c0.024,0.024,0.048,0.048,0.072,0.072
				c0.383,0.384,0.79,0.767,1.174,1.127C92.697,229.679,93.871,232.507,93.871,235.598"/>
			<path fill="#353535" d="M130.642,235.598c0,6.615-5.345,11.983-11.983,11.983c-6.615,0-11.983-5.368-11.983-11.983
				c0-3.091,1.174-5.919,3.139-8.052c0.408-0.384,0.815-0.791,1.223-1.199c0.023-0.023,0.047-0.023,0.047-0.023
				c3.044-3.092,5.609-6.664,7.598-10.593c1.965,3.929,4.553,7.501,7.597,10.616c0.024,0.024,0.048,0.048,0.072,0.072
				c0.383,0.384,0.79,0.767,1.174,1.127C129.468,229.679,130.642,232.507,130.642,235.598"/>
			<path fill="#353535" d="M166.546,235.598c0,6.615-5.344,11.983-11.983,11.983c-6.615,0-11.983-5.368-11.983-11.983
				c0-3.091,1.175-5.919,3.14-8.052c0.407-0.384,0.814-0.791,1.222-1.199c0.024-0.023,0.048-0.023,0.048-0.023
				c3.043-3.092,5.608-6.664,7.597-10.593c1.965,3.929,4.554,7.501,7.597,10.616c0.024,0.024,0.048,0.048,0.072,0.072
				c0.384,0.384,0.791,0.767,1.175,1.127C165.372,229.679,166.546,232.507,166.546,235.598"/>
			<path fill="#353535" d="M102.749,129.296c-0.735-2.943-1.937-5.596-3.139-8.014c-0.659-1.183-1.295-2.327-1.984-3.382
				c-0.731-1.03-1.361-2.059-2.11-2.949c-1.415-1.83-2.855-3.37-4.196-4.65c-1.326-1.293-2.608-2.287-3.648-3.094
				c-1.038-0.808-1.943-1.347-2.531-1.73c-0.6-0.367-0.936-0.543-0.936-0.543s0.685,1.314,1.882,3.614
				c0.503,0.987,1.069,2.176,1.68,3.501c-1.415-0.767-2.916-1.431-4.503-1.97l-10.62-3.607
				c-17.211-5.845-35.447,5.597-37.671,23.637l-0.333,2.706c-1.716,13.921,6.895,27.041,20.351,31.004l9.716,2.863
				c3.93,1.158,7.952,1.427,11.83,0.918c-1.648,1.078-3.274,1.95-4.744,2.736c-1.532,0.773-2.907,1.468-4.074,1.967
				c-2.328,1.023-3.748,1.578-3.748,1.578s0.369,0.09,1.069,0.19c0.696,0.086,1.738,0.263,3.059,0.285
				c1.325,0.052,2.949,0.056,4.812-0.122c1.855-0.203,3.967-0.521,6.225-1.167c1.143-0.283,2.284-0.741,3.499-1.16
				c1.174-0.513,2.419-1.009,3.624-1.695c2.475-1.276,4.857-3.01,7.185-5.156c0.582-0.586,1.18-1.177,1.752-1.801l0.433-0.467
				l0.331-0.408l0.655-0.813l0.659-0.82l0.331-0.412l0.482-0.698c0.458-0.675,0.883-1.377,1.299-2.088
				c1.662-2.849,2.884-6.008,3.681-9.236c0.371-1.622,0.645-3.26,0.821-4.872c0.183-1.517,0.154-3.246,0.223-4.834
				C103.994,135.373,103.601,132.205,102.749,129.296"/>
			<path fill="#353535" d="M134.563,129.296c0.735-2.943,1.937-5.596,3.139-8.014c0.658-1.183,1.295-2.327,1.983-3.382
				c0.732-1.03,1.362-2.059,2.111-2.949c1.415-1.83,2.854-3.37,4.196-4.65c1.326-1.293,2.608-2.287,3.648-3.094
				c1.038-0.808,1.943-1.347,2.53-1.73c0.601-0.367,0.937-0.543,0.937-0.543s-0.685,1.314-1.882,3.614
				c-0.503,0.987-1.069,2.176-1.68,3.501c1.415-0.767,2.916-1.431,4.503-1.97l10.62-3.607c17.211-5.845,35.447,5.597,37.67,23.637
				l0.334,2.706c1.716,13.921-6.895,27.041-20.351,31.004l-9.716,2.863c-3.93,1.158-7.952,1.427-11.83,0.918
				c1.647,1.078,3.274,1.95,4.744,2.736c1.532,0.773,2.907,1.468,4.073,1.967c2.329,1.023,3.749,1.578,3.749,1.578
				s-0.369,0.09-1.069,0.19c-0.696,0.086-1.738,0.263-3.059,0.285c-1.325,0.052-2.95,0.056-4.812-0.122
				c-1.855-0.203-3.967-0.521-6.225-1.167c-1.143-0.283-2.284-0.741-3.5-1.16c-1.173-0.513-2.418-1.009-3.623-1.695
				c-2.475-1.276-4.857-3.01-7.186-5.156c-0.582-0.586-1.179-1.177-1.751-1.801l-0.433-0.467l-0.331-0.408l-0.655-0.813l-0.659-0.82
				l-0.331-0.412l-0.482-0.698c-0.459-0.675-0.883-1.377-1.299-2.088c-1.662-2.849-2.884-6.008-3.681-9.236
				c-0.371-1.622-0.645-3.26-0.821-4.872c-0.184-1.517-0.154-3.246-0.223-4.834C133.318,135.373,133.71,132.205,134.563,129.296"/>
			<path fill="#353535" d="M118.658,0h-0.01c-0.56,0-1.11,0.009-1.68,0.009C56.088,0.85,6.338,47.799,0.558,107.1
				c-0.41,4.239-0.6,8.53-0.55,12.88c0.03,3.08,0.19,6.14,0.46,9.17c1.19,13.68,4.74,26.88,10.34,39.07
				c5.71,12.43,13.56,23.829,23.27,33.67c3.79,3.85,7.86,7.46,12.2,10.8l0.11,23.109c0,1.441,0.18,2.831,0.51,4.181
				c1.19,10.16,6.63,19.029,14.48,24.79c2.88,2.13,6.09,3.819,9.53,5.01c3.68,1.269,7.62,1.96,11.72,1.96
				c2.44,0,4.82-0.24,7.13-0.71c3.89-0.79,7.55-2.2,10.89-4.13c5.3,3.07,11.46,4.84,18.01,4.84s12.71-1.77,18-4.84
				c1.88,1.08,3.87,2.01,5.95,2.75c3.78,1.35,7.84,2.09,12.07,2.09c5.44,0,10.61-1.21,15.23-3.38c5.99-2.811,11.08-7.22,14.7-12.68
				c3.09-4.6,5.14-9.94,5.82-15.7c0.31-1.33,0.49-2.74,0.49-4.181l0.09-16.939l0.03-6.16c21.1-16.22,35.9-38.77,42.46-64.08
				c2.51-9.65,3.81-19.7,3.81-29.96C237.308,53.24,184.088,0,118.658,0 M173.088,203.36l-0.14,31.08l-0.01,1.3h-0.26
				c0,9.95-8.06,18.01-18,18.01c-9.95,0-18.02-8.06-18.02-18.01c0,9.95-8.06,18.01-18,18.01c-9.95,0-18.01-8.06-18.01-18.01
				c0,9.95-8.07,18.01-18.02,18.01c-9.94,0-18-8.06-18-18.01h-0.26l-0.13-32.38c-27.54-17.73-45.85-48.49-46.24-83.57
				c-0.11-9.69,1.18-19.09,3.68-28.01c4.87-17.46,14.37-33.07,27.09-45.38l6.61,6.54L45.188,64.1l-2.73,3l1.93,2.19l2.65,3
				l15.83,17.95l-10.22-21.55l11.75-6.851l12.26,12.111l3.38,3.33l2.98-3.01l16.04-16.24l16.68,47.17l-12.58-53.54l-1.05-4.49
				l-3.85,3.11L80.648,64.6l-13.32-16.37l-8.46-10.4c16.37-12.19,36.53-19.531,58.35-19.83c0.48,0,0.96-0.02,1.43-0.02
				c50.01,0,91.5,36.46,99.34,84.25c0.88,5.34,1.34,10.83,1.34,16.43C219.328,154.2,200.898,185.45,173.088,203.36"/>
			<path fill="#353535" d="M119.941,178.318v15.543c0,1.122,0.716,2.031,1.6,2.031h7.063c1.231,0,2-1.692,1.384-3.048l-7.063-15.542
				C122.108,175.502,119.941,176.239,119.941,178.318"/>
			<path fill="#353535" d="M108.714,194.269h7.063c0.883,0,1.599-0.717,1.599-1.6v-12.233c0-1.636-2.166-2.217-2.984-0.8
				l-7.063,12.234C106.714,192.936,107.483,194.269,108.714,194.269"/>
		</g>
	</g>
</g>
</svg>
