<?xml version="1.0" encoding="utf-8"?>
<!-- Generator: Adobe Illustrator 26.2.1, SVG Export Plug-In . SVG Version: 6.00 Build 0)  -->
<svg version="1.1" id="Layer_1" xmlns="http://www.w3.org/2000/svg" xmlns:xlink="http://www.w3.org/1999/xlink" x="0px" y="0px"
	 width="370.7px" height="370.7px" viewBox="0 0 370.7 370.7" style="enable-background:new 0 0 370.7 370.7;" xml:space="preserve"
	>
<style type="text/css">
	.st0{fill:#07080E;}
	.st1{fill:#FAFAFF;}
</style>
<circle class="st0" cx="185.3" cy="185.3" r="185.3"/>
<path class="st1" d="M288.9,148.4c-8.2-49.8-51.4-87.8-103.5-87.8c-0.5,0-1,0-1.5,0c-22.7,0.3-43.7,8-60.8,20.7l8.8,10.8l13.9,17.1
	l18.4-14.9l4-3.2l1.1,4.7l13.1,55.8l-17.4-49.2l-16.7,16.9l-3.1,3.1l-3.5-3.5l-12.8-12.6l-12.2,7.2l10.7,22.5l-16.5-18.7l-2.8-3.1
	l-2-2.3l2.8-3.1L119.4,97l-6.9-6.8c-13.2,12.8-23.2,29.1-28.2,47.3c-2.6,9.3-4,19.1-3.8,29.2c0.4,34.3,17.3,64.7,43.1,83.6v39.2
	c0,11.4,9.2,20.6,20.6,20.6c9.6,0,17.7-6.6,20-15.5c0.4-1.6,0.7-3.3,0.7-5.1c0,1.1,0.1,2.2,0.3,3.2c1.6,9.8,10,17.4,20.3,17.4
	s18.8-7.5,20.3-17.4c0.2-1.1,0.3-2.1,0.3-3.2c0,1.8,0.3,3.5,0.7,5.1c2.2,8.9,10.3,15.6,20,15.6c11.4,0,20.6-9.2,20.6-20.6v-39.2
	c26.1-19.1,43.1-49.9,43.1-84.8C290.3,159.7,289.8,153.9,288.9,148.4z M143,299.8c-6.3,0-11.3-5.1-11.3-11.3c0-2.9,1.1-5.6,3-7.6
	c0.4-0.4,0.8-0.8,1.2-1.1c0,0,0,0,0,0c2.9-2.9,5.3-6.3,7.2-10c1.9,3.7,4.3,7.1,7.2,10.1c0,0,0,0,0.1,0.1c0.4,0.4,0.8,0.7,1.1,1.1
	c1.9,2,3,4.7,3,7.6C154.3,294.8,149.3,299.8,143,299.8z M171.4,196.7c-0.2,1.5-0.4,3.1-0.8,4.6c-0.7,3-1.9,6-3.5,8.7
	c-0.4,0.7-0.8,1.3-1.2,2l-0.4,0.6l-0.3,0.4l-0.6,0.8l-0.6,0.8l-0.3,0.4l-0.4,0.4c-0.5,0.6-1.1,1.1-1.7,1.7c-2.2,2-4.4,3.6-6.8,4.9
	c-1.1,0.6-2.3,1.1-3.4,1.6c-1.2,0.4-2.2,0.8-3.3,1.1c-2.1,0.6-4.1,0.9-5.9,1.1c-1.8,0.2-3.3,0.2-4.5,0.1c-1.2,0-2.2-0.2-2.9-0.3
	c-0.7-0.1-1-0.2-1-0.2s1.3-0.5,3.5-1.5c1.1-0.5,2.4-1.1,3.8-1.8c1.4-0.8,2.9-1.6,4.5-2.6c-3.6,0.5-7.4,0.2-11.1-0.9l-9.2-2.7
	c-12.7-3.7-20.8-16.1-19.2-29.2l0.3-2.5c2.1-17,19.3-27.8,35.5-22.3l10,3.4c1.5,0.5,2.9,1.1,4.2,1.9c-0.6-1.3-1.1-2.4-1.6-3.3
	c-1.1-2.2-1.8-3.4-1.8-3.4s0.3,0.1,0.9,0.5c0.5,0.4,1.4,0.9,2.4,1.6c1,0.8,2.2,1.7,3.5,2.9c1.3,1.2,2.6,2.7,4,4.4
	c0.7,0.8,1.3,1.8,2,2.8c0.6,1,1.2,2.1,1.9,3.2c1.1,2.3,2.3,4.8,2.9,7.6c0.8,2.7,1.2,5.7,1.3,8.8
	C171.6,193.7,171.6,195.3,171.4,196.7z M173.5,244.1l7.4-12.8c0.9-1.5,3.1-0.9,3.1,0.8v12.8c0,0.9-0.8,1.7-1.7,1.7H175
	C173.7,246.6,172.9,245.2,173.5,244.1z M185.3,299.8c-6.3,0-11.3-5.1-11.3-11.3c0-2.9,1.1-5.6,3-7.6c0.4-0.4,0.8-0.8,1.2-1.1
	c0,0,0,0,0,0c2.9-2.9,5.3-6.3,7.2-10c1.9,3.7,4.3,7.1,7.2,10.1c0,0,0.1,0,0.1,0.1c0.4,0.4,0.7,0.7,1.1,1.1c1.9,2,3,4.7,3,7.6
	C196.7,294.8,191.6,299.8,185.3,299.8z M195.7,248.3h-7.4c-0.9,0-1.7-0.9-1.7-2.1V230c0-2.2,2.3-2.9,3.1-1.1l7.4,16.2
	C197.8,246.5,197,248.3,195.7,248.3z M226.8,299.8c-6.2,0-11.3-5.1-11.3-11.3c0-2.9,1.1-5.6,3-7.6c0.4-0.4,0.8-0.8,1.2-1.1
	c0,0,0,0,0,0c2.9-2.9,5.3-6.3,7.2-10c1.9,3.7,4.3,7.1,7.2,10.1c0,0,0.1,0,0.1,0.1c0.4,0.4,0.7,0.7,1.1,1.1c1.8,2,2.9,4.7,2.9,7.6
	C238.2,294.8,233.1,299.8,226.8,299.8z M245.3,215.9l-9.1,2.7c-3.7,1.1-7.5,1.3-11.1,0.9c1.5,1,3.1,1.8,4.5,2.6
	c1.4,0.7,2.7,1.4,3.8,1.8c2.2,1,3.5,1.5,3.5,1.5s-0.4,0.1-1,0.2c-0.7,0.1-1.7,0.2-2.9,0.3c-1.3,0.1-2.8,0.1-4.5-0.1
	c-1.7-0.2-3.7-0.5-5.9-1.1c-1.1-0.3-2.2-0.7-3.3-1.1c-1.1-0.5-2.3-0.9-3.4-1.6c-2.3-1.2-4.6-2.8-6.8-4.9c-0.5-0.6-1.1-1.1-1.7-1.7
	l-0.4-0.4l-0.3-0.4l-0.6-0.8l-0.6-0.8l-0.3-0.4l-0.5-0.6c-0.4-0.6-0.8-1.3-1.2-2c-1.6-2.7-2.7-5.7-3.5-8.7c-0.4-1.5-0.6-3.1-0.8-4.6
	c-0.2-1.4-0.1-3.1-0.2-4.6c0.1-3,0.5-6,1.3-8.8c0.7-2.8,1.8-5.3,2.9-7.6c0.6-1.1,1.2-2.2,1.9-3.2c0.7-1,1.3-1.9,2-2.8
	c1.3-1.7,2.7-3.2,4-4.4c1.2-1.2,2.4-2.2,3.4-2.9c1-0.8,1.8-1.3,2.4-1.6s0.9-0.5,0.9-0.5s-0.6,1.2-1.8,3.4c-0.5,0.9-1,2-1.6,3.3
	c1.3-0.7,2.7-1.4,4.2-1.9l10-3.4c16.2-5.5,33.4,5.3,35.5,22.3l0.3,2.5C266.1,199.8,258,212.2,245.3,215.9z"/>
</svg>
