<?xml version="1.0" encoding="utf-8"?>
<!-- Generator: Adobe Illustrator 26.2.1, SVG Export Plug-In . SVG Version: 6.00 Build 0)  -->
<svg version="1.2" baseProfile="tiny" id="Layer_1" xmlns="http://www.w3.org/2000/svg" xmlns:xlink="http://www.w3.org/1999/xlink"
	 x="0px" y="0px" width="265.675px" height="301.014px" viewBox="0 0 265.675 301.014" overflow="visible" xml:space="preserve">
<path fill="#22C55E" stroke="#22C55E" stroke-width="10" stroke-linecap="round" stroke-linejoin="round" stroke-miterlimit="10" d="
	M183.622,144.53c0,3.519-1.575,6.669-4.058,8.779c-2.009,1.715-4.624,2.751-7.472,2.751c-6.366,0-11.53-5.16-11.53-11.53
	c0-6.366,5.164-11.53,11.53-11.53c3.786,0,7.151,1.83,9.253,4.651C182.776,139.568,183.622,141.955,183.622,144.53z"/>
<path fill="#22C55E" d="M218.243,183.95v-82.12V89.085v-3.68C218.243,38.237,180.005,0,132.838,0h0
	C85.669,0,47.432,38.237,47.432,85.405v3.68v12.744v82.12c0,35.1-19.099,65.709-47.432,82.152
	c13.914,8.095,30.167,12.712,47.432,12.712c19.135,0,36.935-5.699,51.842-15.458c7.483,15.456,19.165,28.501,33.563,37.658
	c14.399-9.156,26.08-22.202,33.563-37.657c14.907,9.758,32.707,15.458,51.842,15.458c17.265,0,33.519-4.617,47.432-12.712
	C237.342,249.659,218.243,219.049,218.243,183.95z M93.584,170.81c-14.513,0-26.279-11.765-26.279-26.279
	s11.765-26.279,26.279-26.279s26.279,11.765,26.279,26.279S108.097,170.81,93.584,170.81z M172.091,170.81
	c-14.513,0-26.279-11.765-26.279-26.279s11.765-26.279,26.279-26.279s26.279,11.765,26.279,26.279S186.604,170.81,172.091,170.81z"
	/>
</svg>
