<?xml version="1.0" encoding="utf-8"?>
<!-- Generator: Adobe Illustrator 26.2.1, SVG Export Plug-In . SVG Version: 6.00 Build 0)  -->
<svg version="1.2" baseProfile="tiny" id="Layer_1" xmlns="http://www.w3.org/2000/svg" xmlns:xlink="http://www.w3.org/1999/xlink"
	 x="0px" y="0px" width="50.595px" height="44.096px" viewBox="0 0 50.595 44.096" overflow="visible" xml:space="preserve">
<g>
	<path fill="#80B3E5" d="M36.073,24.69c0.177,0.034,0.368-0.063,0.553,0.072c0.049,0.036,0.146,0.005,0.222,0.005
		c0.351,0,0.703,0.013,1.053-0.003c0.429-0.02,0.849-0.083,1.266-0.206c0.347-0.102,0.7-0.181,1.044-0.298
		c0.1-0.034,0.217-0.017,0.332-0.024c0.033,0.314,0.051,0.616,0.099,0.913c0.045,0.278,0.135,0.548,0.183,0.825
		c0.042,0.244,0.17,0.464,0.19,0.712c0.003,0.034,0.012,0.07,0.027,0.101c0.216,0.45,0.423,0.904,0.653,1.347
		c0.135,0.26,0.293,0.511,0.467,0.746c0.199,0.268,0.3,0.578,0.443,0.87c0.196,0.401,0.328,0.819,0.459,1.24
		c0.056,0.18,0.122,0.355,0.135,0.547c0.008,0.116,0.055,0.229,0.07,0.346c0.014,0.107-0.008,0.212,0.071,0.312
		c0.037,0.046,0.006,0.146,0.006,0.221c0,0.527,0.003,1.053-0.001,1.58c-0.003,0.361-0.088,0.712-0.175,1.057
		c-0.07,0.279-0.155,0.557-0.268,0.828c-0.158,0.38-0.513,1.168-0.736,1.462c-0.167,0.22-0.295,0.466-0.495,0.665
		c-0.084,0.083-0.154,0.137-0.263,0.177c-0.741,0.271-1.482,0.541-2.22,0.816c-0.378,0.141-0.763,0.275-1.138,0.429
		c-0.364,0.148-0.752,0.254-1.113,0.402c-0.482,0.198-0.999,0.314-1.451,0.583c-0.684,0.152-1.308,0.477-1.973,0.686
		c-0.496,0.156-0.969,0.387-1.46,0.559c-0.383,0.135-0.765,0.273-1.146,0.413c-0.37,0.136-0.738,0.278-1.107,0.415
		c-0.304,0.113-0.609,0.224-0.914,0.336c-0.37,0.136-0.74,0.272-1.11,0.408c-0.381,0.14-0.762,0.279-1.143,0.419
		c-0.272,0.1-0.553,0.181-0.813,0.306c-0.331,0.159-0.642,0.186-0.986,0.037c-0.34-0.147-0.711-0.226-1.044-0.385
		c-0.337-0.161-0.725-0.187-1.034-0.41c-0.615-0.138-1.164-0.473-1.782-0.602c-0.727-0.368-1.523-0.556-2.268-0.881
		c-0.324-0.141-0.672-0.255-1.015-0.365c-0.485-0.156-0.961-0.343-1.436-0.528c-0.54-0.21-1.078-0.434-1.624-0.616
		c-0.661-0.22-1.306-0.485-1.967-0.707c-0.492-0.165-0.98-0.355-1.46-0.559c-0.373-0.159-0.765-0.271-1.147-0.408
		c-0.306-0.11-0.608-0.23-0.92-0.324c-0.139-0.042-0.274-0.166-0.366-0.287c-0.372-0.485-0.688-1.007-0.94-1.565
		c-0.197-0.436-0.378-0.875-0.462-1.353c-0.025-0.14-0.011-0.31-0.077-0.414c-0.095-0.15-0.023-0.292-0.064-0.428
		c-0.14-0.461-0.047-0.933-0.072-1.399c-0.007-0.143-0.006-0.283,0.067-0.423c0.058-0.112-0.052-0.27,0.072-0.385
		c0.02-0.018,0.013-0.071,0.009-0.107c-0.035-0.347,0.119-0.649,0.238-0.955c0.065-0.167,0.108-0.336,0.132-0.508
		c0.021-0.148,0.054-0.272,0.15-0.392c0.124-0.156,0.212-0.329,0.243-0.54c0.018-0.128,0.127-0.25,0.216-0.358
		c0.1-0.121,0.221-0.221,0.228-0.397c0.002-0.042,0.031-0.091,0.063-0.122c0.408-0.399,0.63-0.914,0.811-1.432
		c0.13-0.371,0.304-0.737,0.341-1.142c0.005-0.053,0.066-0.121,0.061-0.197c-0.023-0.329,0.122-0.632,0.152-0.953
		c0.003-0.033,0.019-0.077,0.044-0.092c0.115-0.073,0.101-0.185,0.106-0.297c0.011-0.214,0.086-0.252,0.309-0.18
		c0.199,0.065,0.405,0.112,0.602,0.182c0.201,0.071,0.4,0.129,0.615,0.156c0.165,0.021,0.326,0.065,0.496,0.073
		c0.165,0.008,0.321,0.09,0.496,0.073c0.174-0.017,0.351-0.004,0.526-0.004s0.352,0.008,0.526-0.003
		c0.129-0.008,0.251-0.006,0.388-0.058c0.301-0.115,0.492,0.083,0.393,0.391c-0.03,0.092-0.063,0.178-0.063,0.273
		c-0.001,0.451-0.011,0.903,0.003,1.354c0.011,0.356,0.112,0.705,0.246,1.025c0.262,0.623,0.641,1.183,1.163,1.623
		c0.452,0.381,0.969,0.65,1.541,0.819c0.205,0.06,0.406,0.084,0.609,0.063c0.147-0.015,0.301-0.056,0.353-0.244
		c0.03-0.11,0.126-0.206,0.142-0.316c0.051-0.361-0.171-0.667-0.537-0.791c-0.209-0.07-0.421-0.12-0.628-0.21
		c-0.432-0.189-0.757-0.5-1.032-0.848c-0.179-0.226-0.288-0.52-0.372-0.821c-0.103-0.37-0.129-0.733-0.14-1.108
		c-0.005-0.164,0.059-0.305,0.077-0.458c0.017-0.142-0.003-0.284,0.075-0.422c0.106-0.187,0.086-0.4,0.076-0.606
		c0.158-0.151,0.297-0.297,0.534-0.356c0.18-0.045,0.318-0.229,0.505-0.317c0.22-0.104,0.371-0.338,0.647-0.348
		c0.028-0.001,0.057-0.044,0.083-0.07c0.34-0.351,0.722-0.666,0.961-1.106c0.04-0.074,0.12-0.127,0.183-0.188
		c0.149-0.142,0.272-0.295,0.352-0.494c0.107-0.267,0.347-0.437,0.559-0.621c0.053-0.046,0.126-0.072,0.174-0.123
		c0.279-0.293,0.524-0.405,0.918-0.405c1.141,0,2.282,0,3.423,0c0.038,0,0.076-0.004,0.113,0.001
		c0.105,0.015,0.216-0.037,0.316,0.061c0.04,0.038,0.169,0.043,0.212,0.008c0.123-0.1,0.257-0.066,0.388-0.067
		c0.439-0.005,0.878-0.006,1.316,0.001c0.116,0.002,0.25-0.058,0.347,0.07c0.014,0.018,0.08,0.016,0.108,0
		c0.256-0.142,0.532-0.064,0.798-0.069c0.589-0.012,1.179-0.011,1.768-0.002c0.741,0.012,1.299,0.33,1.652,0.999
		c0.31,0.588,0.68,1.139,1.188,1.574c0.369,0.316,0.75,0.618,1.193,0.836c0.228,0.113,0.442,0.26,0.683,0.351
		c0.165,0.063,0.253,0.164,0.25,0.355c-0.002,0.127,0.053,0.254,0.068,0.383c0.015,0.13-0.017,0.264,0.073,0.386
		c0.03,0.041,0.005,0.122,0.005,0.185c0,0.326-0.012,0.653,0.003,0.978c0.023,0.513-0.204,0.936-0.447,1.359
		c-0.232,0.404-0.605,0.647-0.992,0.864c-0.199,0.112-0.431,0.177-0.657,0.225c-0.148,0.031-0.287,0.064-0.374,0.185
		c-0.095,0.132-0.193,0.274-0.236,0.427c-0.076,0.269,0.289,0.727,0.575,0.749c0.33,0.026,0.642-0.022,0.935-0.195
		c0.291-0.171,0.593-0.322,0.891-0.481c0.02-0.011,0.047-0.013,0.064-0.027c0.265-0.238,0.543-0.465,0.791-0.721
		c0.352-0.364,0.557-0.809,0.654-1.308c0.029-0.146,0.105-0.283,0.145-0.428c0.037-0.137-0.063-0.3,0.078-0.42
		c-0.034-0.393,0.07-0.792-0.058-1.18c-0.004-0.011-0.016-0.02-0.017-0.03C36.108,25.219,36.092,24.968,36.073,24.69z
		 M25.245,23.425c-0.117-0.178-0.204-0.352-0.329-0.491c-0.39-0.433-0.815-0.82-1.378-1.029c-0.4-0.149-0.793-0.311-1.231-0.299
		c-0.188,0.005-0.377,0.009-0.564-0.001c-0.428-0.023-0.819,0.124-1.203,0.277c-0.648,0.258-1.199,0.665-1.643,1.199
		c-0.155,0.187-0.312,0.38-0.412,0.617c-0.118,0.277-0.28,0.534-0.35,0.834c-0.017,0.074-0.094,0.134-0.143,0.201
		c0.094,0.056,0.088,0.154,0.068,0.232c-0.032,0.127-0.087,0.245-0.073,0.384c0.024,0.241,0.02,0.48,0.061,0.724
		c0.058,0.343,0.177,0.658,0.305,0.969c0.201,0.489,0.612,0.97,0.997,1.314c0.279,0.249,0.583,0.449,0.908,0.628
		c0.353,0.194,0.739,0.281,1.124,0.374c0.112,0.027,0.233,0.077,0.34,0.06c0.225-0.036,0.402-0.188,0.515-0.371
		c0.075-0.121,0.146-0.276,0.116-0.439c-0.049-0.269-0.377-0.567-0.654-0.605c-0.129-0.018-0.259-0.037-0.382-0.076
		c-0.628-0.202-1.166-0.527-1.534-1.098c-0.173-0.269-0.333-0.561-0.349-0.866c-0.023-0.442-0.115-0.908,0.136-1.329
		c-0.012-0.207,0.124-0.332,0.255-0.458c0.284-0.274,0.545-0.571,0.869-0.803c0.153-0.11,0.296-0.21,0.489-0.182
		c0.14,0.02,0.294-0.002,0.374-0.087c0.131-0.138,0.275-0.13,0.435-0.145c0.347-0.031,0.653,0.115,0.97,0.208
		c0.085,0.025,0.214-0.034,0.259,0.1c0.36,0.131,0.448,0.561,0.787,0.716c0.005,0.002-0.003,0.025,0.001,0.036
		c0.088,0.24,0.284,0.433,0.3,0.703c0.155,0.081,0.033,0.249,0.116,0.369c0.06,0.087,0.02,0.238,0.036,0.359
		c0.017,0.129,0.053,0.255,0.073,0.383c0.056,0.371-0.089,0.729-0.074,1.097c-0.122,0.132-0.042,0.306-0.092,0.451
		c-0.084,0.241-0.185,0.476-0.262,0.719c-0.078,0.246-0.192,0.474-0.324,0.693c-0.247,0.41-0.522,0.804-0.852,1.15
		c-0.246,0.257-0.518,0.491-0.792,0.719c-0.191,0.158-0.395,0.31-0.614,0.424c-0.483,0.253-0.96,0.524-1.501,0.643
		c-0.275,0.061-0.549,0.173-0.825,0.179c-0.646,0.015-1.295,0.061-1.933-0.134c-0.334-0.102-0.675-0.189-0.99-0.337
		c-0.472-0.221-0.903-0.504-1.316-0.834c-0.389-0.311-0.7-0.68-1.02-1.048c-0.123-0.141-0.213-0.311-0.313-0.471
		c-0.155-0.247-0.249-0.526-0.386-0.779c-0.193-0.359-0.267-0.751-0.351-1.132c-0.072-0.326-0.123-0.671-0.098-1.019
		c0.024-0.333-0.139-0.563-0.458-0.716c-0.251-0.12-0.436-0.063-0.624,0.085c-0.098,0.077-0.181,0.173-0.266,0.256
		c0,0.071,0.022,0.147-0.004,0.195c-0.083,0.149-0.116,0.283,0.001,0.432c0.024,0.031,0.009,0.098,0.003,0.148
		c-0.059,0.432,0.153,0.83,0.151,1.254c0.203,0.369,0.235,0.802,0.449,1.169c0.205,0.352,0.36,0.736,0.59,1.07
		c0.269,0.39,0.557,0.774,0.922,1.089c0.039,0.034,0.056,0.093,0.107,0.181c-0.091,0-0.138,0.004-0.184-0.001
		c-0.228-0.024-0.455-0.057-0.684-0.072c-0.175-0.012-0.352-0.012-0.526,0c-0.179,0.013-0.355,0.061-0.533,0.069
		c-0.253,0.012-0.489,0.08-0.728,0.151c-0.36,0.106-0.699,0.255-1.015,0.455c-0.358,0.226-0.639,0.541-0.927,0.845
		c-0.103,0.108-0.159,0.259-0.244,0.386c-0.08,0.119-0.075,0.264-0.148,0.392c-0.072,0.126-0.104,0.308-0.074,0.45
		c0.032,0.155-0.119,0.252-0.06,0.411c0.053,0.143,0.006,0.322,0.053,0.468c0.161,0.492,0.359,0.971,0.727,1.353
		c0.213,0.221,0.624,0.502,1.066,0.696c0.278,0.122,0.557,0.201,0.861,0.192c0.213-0.006,0.426-0.001,0.64-0.001
		c0.1,0,0.202,0.01,0.301-0.003c0.079-0.01,0.157-0.043,0.232-0.073c0.292-0.116,0.611-0.194,0.838-0.424
		c0.239-0.243,0.489-0.49,0.664-0.778c0.253-0.416,0.433-0.869,0.391-1.381c-0.012-0.141-0.044-0.29,0.036-0.434
		c0.091-0.164-0.135-0.257-0.117-0.412c0.001-0.012,0.004-0.027,0-0.037c-0.09-0.22-0.24-0.398-0.441-0.514
		c-0.138-0.079-0.305-0.068-0.461-0.007c-0.221,0.087-0.383,0.224-0.453,0.462c-0.057,0.195-0.031,0.396,0.029,0.567
		c0.069,0.199,0.021,0.39,0.048,0.581c-0.131,0.082-0.009,0.342-0.252,0.354c-0.03,0.001-0.073,0.089-0.081,0.141
		c-0.043,0.293-0.295,0.372-0.501,0.492c-0.088,0.051-0.2,0.075-0.303,0.08c-0.243,0.013-0.494,0.044-0.729,0
		c-0.336-0.062-0.623-0.25-0.832-0.525c-0.197-0.258-0.328-0.55-0.309-0.886c0.005-0.091,0.068-0.18,0.068-0.27
		c0-0.335,0.21-0.561,0.425-0.76c0.114-0.105,0.286-0.162,0.407-0.276c0.138-0.131,0.332-0.124,0.492-0.171
		c0.317-0.093,0.639-0.205,0.987-0.169c0.236,0.024,0.479,0.026,0.714-0.001c0.252-0.03,0.477,0.082,0.722,0.085
		c0.37,0.004,0.723,0.1,1.062,0.249c0.041,0.018,0.116,0.051,0.124,0.04c0.09-0.128,0.161-0.032,0.247,0.005
		c0.096,0.041,0.205,0.048,0.306,0.08c0.421,0.132,0.843,0.264,1.241,0.454c0.388,0.186,0.776,0.379,1.14,0.607
		c0.383,0.24,0.76,0.5,1.097,0.799c0.421,0.374,0.845,0.745,1.27,1.114c0.308,0.268,0.64,0.502,1,0.679
		c0.31,0.152,0.652,0.282,0.991,0.319c0.371,0.04,0.762,0.082,1.134-0.059c0.065-0.025,0.14-0.026,0.203-0.054
		c0.732-0.327,1.066-0.538,1.613-1.009c0.105-0.09,0.182-0.094,0.283,0.002c0.205,0.194,0.386,0.414,0.635,0.558
		c0.202,0.117,0.394,0.26,0.609,0.346c0.281,0.114,0.584,0.176,0.883,0.227c0.392,0.067,0.78-0.057,1.172-0.072
		c0.02-0.001,0.039-0.026,0.06-0.036c0.317-0.142,0.639-0.275,0.95-0.43c0.184-0.091,0.388-0.166,0.476-0.389
		c0.025-0.064,0.093-0.127,0.157-0.158c0.362-0.175,0.617-0.474,0.893-0.749c0.071-0.071,0.134-0.135,0.253-0.121
		c0.16,0.018,0.262-0.085,0.312-0.22c0.091-0.246,0.25-0.412,0.499-0.496c0.054-0.018,0.11-0.044,0.154-0.08
		c0.249-0.201,0.537-0.333,0.816-0.482c0.206-0.11,0.413-0.189,0.658-0.141c0.136-0.222,0.351-0.335,0.57-0.439
		c0.083-0.04,0.175-0.062,0.261-0.096c0.222-0.087,0.441-0.177,0.691-0.153c0.13,0.013,0.254-0.013,0.386-0.063
		c0.226-0.087,0.475-0.116,0.693-0.235c0.309,0.052,0.604-0.075,0.909-0.075c0.339,0,0.677-0.002,1.016,0.001
		c0.349,0.003,0.673,0.111,0.983,0.259c0.106,0.05,0.192,0.14,0.298,0.19c0.236,0.111,0.478,0.343,0.617,0.537
		c0.171,0.241,0.128,0.505,0.151,0.768c0.022,0.258-0.076,0.47-0.212,0.665c-0.076,0.108-0.17,0.207-0.278,0.298
		c-0.366,0.309-0.783,0.398-1.243,0.366c-0.022-0.002-0.061-0.014-0.062-0.024c-0.018-0.218-0.184-0.107-0.283-0.12
		c-0.086-0.012-0.156-0.03-0.234-0.076c-0.203-0.121-0.36-0.277-0.478-0.482c-0.214-0.374-0.193-0.778-0.107-1.165
		c0.044-0.197,0.034-0.363-0.059-0.508c-0.132-0.207-0.345-0.414-0.577-0.387c-0.227,0.027-0.498,0.089-0.624,0.392
		c-0.111,0.268-0.143,0.544-0.208,0.816c-0.072,0.306,0.078,0.603,0.071,0.908c0.247,0.63,0.608,1.222,1.308,1.637
		c0.446,0.265,0.966,0.27,1.408,0.512c0.047,0.026,0.149,0.027,0.18-0.005c0.209-0.213,0.492-0.151,0.74-0.219
		c0.123-0.034,0.239-0.095,0.363-0.12c0.224-0.045,0.344-0.245,0.539-0.334c0.154-0.07,0.224-0.243,0.394-0.32
		c0.113-0.051,0.181-0.215,0.257-0.335c0.069-0.11,0.202-0.169,0.229-0.312c0.056-0.299,0.201-0.568,0.249-0.879
		c0.08-0.516,0.081-0.837-0.156-1.394c-0.201-0.474-0.504-0.875-0.939-1.191c-0.494-0.358-1.015-0.618-1.605-0.767
		c-0.181-0.046-0.37-0.018-0.532-0.076c-0.244-0.087-0.483-0.058-0.725-0.063c-0.242-0.005-0.487-0.027-0.723,0.069
		c-0.045,0.018-0.109-0.01-0.212-0.023c0.109-0.153,0.191-0.267,0.272-0.382c0.164-0.232,0.385-0.424,0.481-0.704
		c0.022-0.065,0.056-0.137,0.107-0.179c0.165-0.136,0.22-0.336,0.32-0.509c0.04-0.07,0.06-0.153,0.105-0.219
		c0.176-0.254,0.362-0.501,0.35-0.835c-0.001-0.03,0.031-0.061,0.048-0.092c0.197-0.356,0.266-0.756,0.313-1.146
		c0.042-0.349,0.131-0.698,0.092-1.059c-0.037-0.339-0.139-0.588-0.492-0.736c-0.23-0.096-0.395-0.051-0.566,0.061
		c-0.277,0.182-0.332,0.491-0.368,0.784c-0.038,0.301,0.009,0.607-0.076,0.91c-0.05,0.18-0.085,0.364-0.14,0.545
		c-0.132,0.437-0.323,0.842-0.536,1.247c-0.357,0.677-0.915,1.17-1.439,1.696c-0.107,0.108-0.248,0.183-0.377,0.268
		c-0.313,0.205-0.648,0.367-0.982,0.534c-0.504,0.253-1.042,0.388-1.586,0.429c-0.51,0.038-1.031,0.066-1.55-0.05
		c-0.367-0.082-0.725-0.18-1.078-0.309c-0.329-0.12-0.642-0.275-0.938-0.459c-0.304-0.189-0.606-0.386-0.865-0.637
		c-0.243-0.236-0.488-0.47-0.716-0.72c-0.152-0.167-0.276-0.36-0.411-0.543c-0.259-0.35-0.447-0.733-0.613-1.138
		c-0.196-0.476-0.283-0.968-0.362-1.467c-0.02-0.122-0.004-0.25-0.003-0.376c0.001-0.132,0.01-0.256,0.063-0.387
		c0.037-0.09-0.045-0.224-0.06-0.341c-0.007-0.056,0.013-0.118,0.03-0.174c0.062-0.212,0.108-0.432,0.198-0.632
		c0.095-0.211,0.134-0.455,0.308-0.624c0.149-0.145,0.257-0.316,0.365-0.489c0.032-0.051,0.065-0.117,0.114-0.138
		c0.543-0.229,1.072-0.517,1.692-0.453c0.092,0.009,0.18,0.068,0.27,0.069c0.259,0.004,0.479,0.11,0.696,0.231
		c0.059,0.033,0.147,0.08,0.154,0.131c0.025,0.177,0.192,0.213,0.289,0.229c0.129,0.021,0.199,0.083,0.276,0.159
		c0.349,0.342,0.56,0.743,0.66,1.234c0.088,0.429,0.061,0.91-0.146,1.428c-0.139,0.347-0.38,0.609-0.64,0.864
		c-0.33,0.325-0.705,0.56-1.174,0.618c-0.128,0.13-0.304,0.042-0.448,0.098c-0.296,0.115-0.472,0.394-0.465,0.742
		c0.007,0.348,0.242,0.556,0.586,0.595c0.549,0.062,1.03-0.16,1.531-0.309c0.043-0.013,0.082-0.051,0.114-0.086
		c0.264-0.286,0.596-0.476,0.929-0.665c0.052-0.029,0.13-0.063,0.138-0.107c0.028-0.137,0.133-0.207,0.222-0.284
		c0.162-0.139,0.245-0.327,0.307-0.513c0.034-0.1,0.07-0.201,0.119-0.289c0.232-0.413,0.305-0.865,0.341-1.326
		c0.013-0.162-0.011-0.327,0.005-0.489c0.047-0.484-0.15-0.91-0.329-1.332c-0.142-0.336-0.329-0.654-0.596-0.924
		c-0.123-0.124-0.196-0.297-0.367-0.38c-0.165-0.079-0.272-0.232-0.421-0.338c-0.281-0.2-0.576-0.366-0.894-0.484
		c-0.273-0.101-0.561-0.209-0.845-0.22c-0.64-0.026-1.28-0.053-1.904,0.205c-0.516,0.213-1.158,0.635-1.495,1.1
		C25.542,23.09,25.399,23.241,25.245,23.425z M32.882,38.513c-0.006-0.022-0.013-0.044-0.019-0.066
		c-0.135,0.03-0.268,0.078-0.404,0.087c-0.254,0.016-0.506-0.001-0.76,0.07c-0.18,0.05-0.377,0.017-0.571,0.073
		c-0.191,0.055-0.401,0.026-0.607,0.076c-0.31,0.075-0.635,0.093-0.952,0.15c-0.304,0.055-0.61,0.094-0.914,0.157
		c-0.326,0.068-0.662,0.09-0.988,0.161c-0.153,0.033-0.323,0.027-0.454,0.081c-0.235,0.098-0.482,0.106-0.717,0.174
		c-0.247,0.071-0.514,0.066-0.748,0.19c-0.165-0.053-0.311,0.108-0.455,0.067c-0.24-0.068-0.489-0.095-0.723-0.161
		c-0.558-0.158-1.128-0.24-1.692-0.358c-0.163-0.034-0.339-0.045-0.488-0.093c-0.342-0.111-0.696-0.133-1.043-0.197
		c-0.234-0.043-0.47-0.14-0.719-0.085c-0.151-0.115-0.357-0.014-0.487-0.089c-0.175-0.101-0.339-0.027-0.503-0.06
		c-0.036-0.007-0.089,0.01-0.108-0.009c-0.127-0.133-0.285-0.04-0.425-0.066c-0.152-0.028-0.304-0.063-0.458-0.073
		c-0.242-0.016-0.488,0.025-0.721-0.076c-0.02-0.009-0.055,0.019-0.11,0.039c0.278,0.106,0.526,0.201,0.775,0.295
		c0.63,0.237,1.267,0.453,1.91,0.654c0.196,0.061,0.408,0.076,0.6,0.186c0.176,0.101,0.403,0.11,0.6,0.181
		c0.23,0.083,0.489,0.073,0.697,0.223c0.454,0.016,0.857,0.248,1.302,0.31c0.164,0.023,0.377,0.066,0.453,0.253
		c0.146,0.361,0.414,0.649,0.566,1.006c0.059,0.139,0.142,0.272,0.238,0.389c0.23,0.279,0.617,0.347,0.864,0.014
		c0.158-0.214,0.329-0.432,0.445-0.677c0.144-0.303,0.28-0.611,0.422-0.922c0.317,0.064,0.583-0.203,0.905-0.156
		c0.202-0.132,0.45-0.109,0.667-0.204c0.222-0.098,0.491-0.094,0.704-0.204c0.22-0.114,0.46-0.091,0.677-0.184
		c0.138-0.059,0.28-0.117,0.426-0.149c0.4-0.088,0.789-0.196,1.162-0.373c0.197-0.093,0.405-0.17,0.616-0.238
		C32.196,38.796,32.537,38.647,32.882,38.513z M15.747,38.393c-0.027,0.105-0.087,0.202-0.065,0.274
		c0.086,0.272,0.299,0.363,0.585,0.279c0.04-0.012,0.101-0.026,0.125-0.006c0.176,0.147,0.283-0.033,0.41-0.088
		c0.036-0.015,0.062-0.106,0.055-0.157c-0.028-0.228-0.305-0.453-0.514-0.371C16.148,38.399,15.962,38.369,15.747,38.393z
		 M40.263,28.876c0.002-0.197-0.076-0.296-0.204-0.267c-0.144,0.033-0.289,0.081-0.416,0.154c-0.055,0.032-0.092,0.14-0.093,0.214
		c-0.002,0.136,0.161,0.225,0.223,0.215c0.152-0.025,0.295-0.117,0.433-0.197C40.245,28.971,40.254,28.895,40.263,28.876z
		 M35.25,39.156c0.095-0.043,0.196-0.063,0.254-0.124c0.038-0.04,0.014-0.14,0.018-0.213c0.001-0.012-0.001-0.025,0-0.037
		c0.033-0.263-0.073-0.353-0.307-0.318c-0.174,0.026-0.346,0.063-0.529,0.097c0.034,0.037,0.054,0.071,0.083,0.087
		c0.04,0.021,0.087,0.032,0.132,0.04c0.227,0.039,0.295,0.114,0.32,0.351C35.226,39.073,35.238,39.106,35.25,39.156z M16.143,35.808
		c-0.173,0.09-0.303,0.142-0.414,0.221c-0.046,0.033-0.084,0.141-0.064,0.185c0.029,0.062,0.157,0.147,0.173,0.134
		c0.168-0.131,0.358-0.033,0.53-0.071c0.04-0.009,0.069-0.068,0.127-0.13C16.382,36.037,16.263,35.924,16.143,35.808z
		 M35.091,36.654c-0.029,0.151-0.151,0.268-0.063,0.462c0.086,0.19,0.223,0.244,0.394,0.302
		C35.471,36.814,35.425,36.704,35.091,36.654z M26.614,38.68c0.111-0.143,0.112-0.311,0.104-0.48
		c0.183-0.177-0.004-0.203-0.094-0.285c-0.102,0.108-0.187,0.198-0.271,0.288c0,0.153,0,0.311,0,0.478
		C26.446,38.68,26.53,38.68,26.614,38.68z M27.787,26.021c0.141-0.022,0.172-0.233,0.308-0.343c0.096-0.077,0.068-0.21-0.03-0.278
		c-0.083-0.057-0.19-0.042-0.255,0.046c-0.091,0.123-0.177,0.251-0.277,0.395C27.61,25.895,27.69,25.951,27.787,26.021z
		 M20.843,25.968c-0.075,0.04-0.152,0.081-0.245,0.131c0.106,0.137,0.199,0.257,0.309,0.399c0.016,0,0.064-0.002,0.112,0
		c0.113,0.005,0.182-0.044,0.207-0.156c0.024-0.103-0.041-0.163-0.109-0.213C21.042,26.075,20.957,26.034,20.843,25.968z
		 M30.308,25.235c-0.383-0.019-0.433,0.006-0.429,0.217c0.003,0.206,0.053,0.228,0.438,0.195
		C30.396,25.448,30.396,25.448,30.308,25.235z M28.609,25.219c-0.224,0.161-0.136,0.305-0.048,0.451
		c0.074,0,0.149,0.005,0.223-0.001c0.131-0.011,0.187-0.077,0.191-0.212c0.005-0.162-0.047-0.225-0.204-0.237
		C28.699,25.214,28.625,25.219,28.609,25.219z M30.49,41.309c0.218,0.05,0.378-0.034,0.523-0.178
		c0.082-0.081,0.106-0.16,0.041-0.251c-0.229-0.062-0.379,0.114-0.564,0.166C30.49,41.136,30.49,41.22,30.49,41.309z M10.102,28.929
		c-0.19,0.189-0.282,0.35-0.223,0.566c0.25,0.087,0.294,0.062,0.438-0.237C10.256,29.164,10.193,29.067,10.102,28.929z
		 M18.291,36.055c0-0.1,0.003-0.162-0.001-0.223c-0.011-0.178-0.073-0.236-0.243-0.229c-0.157,0.006-0.219,0.091-0.21,0.263
		c0.006,0.118,0.073,0.172,0.175,0.186C18.096,36.064,18.181,36.055,18.291,36.055z M19.532,40.832
		c0.086-0.044,0.171-0.067,0.227-0.12c0.07-0.066,0.061-0.153-0.01-0.227c-0.092-0.096-0.342-0.096-0.434,0
		c-0.071,0.074-0.079,0.161-0.01,0.227C19.361,40.765,19.446,40.788,19.532,40.832z M25.895,37.825
		c-0.007-0.055-0.003-0.119-0.027-0.17c-0.018-0.04-0.066-0.084-0.108-0.092c-0.199-0.042-0.323,0.056-0.401,0.23
		C25.542,37.98,25.542,37.98,25.895,37.825z M13.926,37.968c-0.004-0.084-0.156-0.257-0.225-0.257c-0.07,0-0.222,0.172-0.226,0.257
		c-0.007,0.128,0.086,0.202,0.244,0.195C13.854,38.156,13.932,38.083,13.926,37.968z M33.223,39.5
		c-0.098,0.049-0.18,0.09-0.257,0.128c-0.004,0.129-0.028,0.27,0.11,0.33c0.07,0.031,0.165,0.005,0.239,0.005
		c0.04-0.093,0.072-0.167,0.094-0.218C33.342,39.658,33.284,39.58,33.223,39.5z M33.513,39.606c0.1,0.087,0.157,0.158,0.231,0.195
		c0.075,0.037,0.16,0.034,0.228-0.048c0.065-0.078,0.071-0.154,0.013-0.228c-0.051-0.065-0.116-0.119-0.18-0.183
		c-0.047,0.034-0.078,0.051-0.102,0.075C33.652,39.466,33.602,39.518,33.513,39.606z M33.894,38.225
		c-0.016,0.028-0.033,0.057-0.049,0.085c0.057,0.051,0.108,0.114,0.174,0.149c0.111,0.06,0.227,0.126,0.348,0.146
		c0.102,0.018,0.172-0.065,0.182-0.176C34.325,38.36,34.11,38.293,33.894,38.225z M31.081,36.968
		c0.099,0.192,0.235,0.142,0.355,0.127c0.069-0.127,0.075-0.24-0.006-0.356c-0.079,0-0.163,0-0.244,0
		C31.149,36.819,31.115,36.893,31.081,36.968z M32.004,37.465c0.059-0.132,0.104-0.212,0.131-0.298
		c0.033-0.103-0.045-0.175-0.119-0.201c-0.053-0.019-0.14,0.017-0.196,0.052c-0.086,0.054-0.083,0.149-0.033,0.224
		C31.831,37.311,31.902,37.363,32.004,37.465z M17.448,37.476c0.062-0.215-0.026-0.339-0.184-0.435
		c-0.055,0.086-0.255,0.063-0.174,0.226C17.155,37.398,17.246,37.523,17.448,37.476z M17.47,40.137
		c0.209-0.234,0.209-0.234-0.087-0.47C17.168,39.864,17.168,39.864,17.47,40.137z M27.51,42.15c0.04-0.08,0.079-0.161,0.118-0.239
		c-0.166-0.157-0.235-0.174-0.323-0.084c-0.075,0.077-0.086,0.265-0.018,0.323C27.36,42.15,27.433,42.15,27.51,42.15z M28.76,24.287
		c-0.137,0.099-0.214,0.19-0.141,0.306c0.086,0.137,0.223,0.118,0.345,0.077C29.028,24.463,28.86,24.41,28.76,24.287z
		 M14.548,38.177c-0.201-0.216-0.276-0.219-0.456-0.038C14.326,38.36,14.326,38.36,14.548,38.177z M34.5,34.721
		c0.194,0.091,0.333,0.196,0.508,0.089c-0.052-0.189-0.216-0.192-0.339-0.275C34.618,34.591,34.572,34.642,34.5,34.721z
		 M34.607,36.97c-0.084,0-0.143,0-0.195,0c0,0.155,0,0.297,0,0.446C34.62,37.311,34.62,37.311,34.607,36.97z M16.045,39.496
		c-0.228,0.216-0.224,0.249,0.017,0.396C16.221,39.704,16.221,39.704,16.045,39.496z M20.48,42.213c0.115,0,0.198,0,0.297,0
		c-0.005-0.105-0.009-0.198-0.013-0.277c-0.11,0-0.193,0-0.283,0C20.48,42.032,20.48,42.115,20.48,42.213z M21.758,41.373
		c0.117-0.057,0.209-0.076,0.253-0.132c0.039-0.05,0.026-0.142,0.035-0.207c-0.116,0-0.199,0-0.287,0
		C21.758,41.13,21.758,41.213,21.758,41.373z M22.131,25.671c-0.012,0.228,0.184,0.202,0.268,0.296
		c0.12-0.157,0.1-0.267-0.049-0.294C22.281,25.66,22.208,25.671,22.131,25.671z M8.834,31.246c-0.022,0.283-0.022,0.283,0.188,0.281
		c0-0.092,0-0.184,0-0.281C8.951,31.246,8.892,31.246,8.834,31.246z M9.405,28.828c-0.106,0.008-0.202,0.016-0.332,0.026
		c0.09,0.171,0.17,0.254,0.332,0.178C9.405,28.971,9.405,28.913,9.405,28.828z M22.968,26.812c-0.115,0-0.207,0-0.316,0
		c0.005,0.078,0.009,0.145,0.013,0.206C22.827,27.044,22.926,27.007,22.968,26.812z M32.588,39.673
		c-0.173-0.021-0.282,0.01-0.309,0.199c0.11,0,0.209,0,0.309,0C32.588,39.804,32.588,39.754,32.588,39.673z M18.203,36.988
		c0-0.129,0-0.186,0-0.287c-0.117,0.045-0.208,0.081-0.37,0.144C17.995,36.908,18.087,36.943,18.203,36.988z M25.678,38.265
		c-0.245-0.022-0.246-0.024-0.305,0.183C25.522,38.49,25.623,38.453,25.678,38.265z M10.836,29.296c-0.073,0-0.139,0-0.223,0
		c0.005,0.078,0.009,0.145,0.014,0.23C10.764,29.489,10.854,29.45,10.836,29.296z M10.768,27.667c0.15,0.127,0.15,0.127,0.283-0.018
		C10.911,27.542,10.911,27.542,10.768,27.667z M32.329,36.337c-0.066-0.09-0.109-0.148-0.163-0.222
		c-0.05,0.081-0.085,0.138-0.137,0.222C32.138,36.337,32.212,36.337,32.329,36.337z M15.993,34.82
		c-0.043-0.055-0.063-0.108-0.094-0.116c-0.085-0.02-0.104,0.042-0.089,0.11c0.009,0.039,0.037,0.075,0.056,0.112
		C15.903,34.895,15.94,34.865,15.993,34.82z M14.995,36.061c0.038-0.031,0.069-0.046,0.083-0.07
		c0.023-0.038,0.039-0.082,0.047-0.125c0.001-0.007-0.075-0.043-0.086-0.033c-0.029,0.027-0.048,0.069-0.058,0.108
		C14.975,35.972,14.989,36.008,14.995,36.061z M30.841,30.978c0.049-0.052,0.092-0.083,0.087-0.096
		c-0.013-0.035-0.043-0.068-0.075-0.091c-0.007-0.005-0.067,0.035-0.067,0.054C30.787,30.881,30.813,30.916,30.841,30.978z
		 M42.108,30.534c0.095,0.024,0.095,0.024,0.085-0.183C42.147,30.451,42.123,30.503,42.108,30.534z M16.081,37.016
		c0.012-0.204,0.012-0.204-0.066-0.185C16.023,36.856,16.043,36.911,16.081,37.016z M15.245,35.257
		c-0.183-0.015-0.183-0.015-0.163,0.08C15.113,35.321,15.163,35.297,15.245,35.257z M10.525,28.527
		c0.006-0.041,0.015-0.074,0.013-0.107c-0.001-0.01-0.031-0.019-0.047-0.028c-0.009,0.033-0.021,0.065-0.023,0.099
		C10.467,28.499,10.497,28.51,10.525,28.527z M40.787,29.041c-0.017-0.028-0.028-0.058-0.037-0.057
		c-0.033,0.002-0.066,0.015-0.099,0.023c0.009,0.017,0.018,0.046,0.028,0.047C40.713,29.056,40.746,29.047,40.787,29.041z
		 M23.923,43.004c-0.01-0.01-0.018-0.018-0.027-0.027c-0.008,0.017-0.02,0.033-0.024,0.051c-0.001,0.006,0.015,0.016,0.024,0.025
		C23.906,43.036,23.915,43.02,23.923,43.004z"/>
	<path fill="#80B3E5" d="M47.205,20.4c0.18,0.132,0.275,0.278,0.327,0.46c0.056,0.197,0.025,0.258-0.178,0.297
		c-0.369,0.071-0.721,0.189-1.047,0.377c-0.258,0.149-0.495,0.327-0.733,0.507c-0.324,0.245-0.56,0.558-0.782,0.88
		c-0.224,0.326-0.394,0.681-0.478,1.082c-0.041,0.194,0.002,0.406-0.075,0.567c-0.095,0.2-0.068,0.39-0.054,0.576
		c0.026,0.343,0.062,0.695,0.163,1.022c0.105,0.34,0.25,0.684,0.45,0.976c0.435,0.636,1.008,1.137,1.728,1.428
		c0.322,0.13,0.658,0.259,1.021,0.263c0.09,0.001,0.2,0.022,0.265,0.077c0.124,0.104,0.257,0.055,0.387,0.07
		c0.079-0.156,0.246-0.037,0.368-0.119c0.095-0.065,0.264-0.041,0.397-0.026c0.096,0.011,0.157-0.178,0.252-0.041
		c0.065,0.094,0.142,0.206,0.146,0.312c0.02,0.444,0.23,0.853,0.232,1.298c0.165,0.343,0.181,0.727,0.271,1.089
		c0.073,0.294,0.14,0.6,0.194,0.904c0.048,0.272,0.113,0.55,0.18,0.822c0.07,0.284,0.152,0.572,0.185,0.867
		c0.017,0.151,0.062,0.299,0.096,0.448c0.021,0.092,0.046,0.183,0.075,0.296c-0.384,0.044-0.707,0.219-1.042,0.345
		c-0.412,0.154-0.832,0.29-1.238,0.462c-0.405,0.172-0.817,0.338-1.234,0.469c-0.61,0.191-1.197,0.446-1.805,0.643
		c-0.458,0.148-0.912,0.334-1.358,0.521c-0.02-0.034-0.047-0.064-0.042-0.073c0.222-0.359,0.339-0.763,0.489-1.152
		c0.088-0.228,0.129-0.474,0.185-0.713c0.085-0.363,0.198-0.722,0.151-1.104c0.132-0.32,0.054-0.656,0.077-0.984
		c0.005-0.07,0.029-0.138,0.043-0.207c0.029-0.141,0.074-0.273-0.038-0.413c-0.06-0.074-0.068-0.199-0.079-0.303
		c-0.019-0.191,0.015-0.382-0.069-0.574c-0.048-0.11-0.05-0.276,0.123-0.36c0.34,0.175,0.69,0.357,1.042,0.536
		c0.61,0.309,1.277,0.514,1.901,0.682c0.27,0.073,0.548,0.114,0.817,0.2c0.216,0.069,0.477,0.045,0.709,0.007
		c0.409-0.066,0.597-0.716,0.316-1.055c-0.151-0.182-0.331-0.289-0.592-0.305c-0.216-0.013-0.439-0.078-0.656-0.125
		c-0.23-0.049-0.46-0.098-0.688-0.162c-0.63-0.177-1.223-0.445-1.79-0.761c-0.436-0.243-0.866-0.51-1.218-0.879
		c-0.098-0.103-0.237-0.168-0.337-0.27c-0.689-0.704-1.273-1.48-1.673-2.39c-0.188-0.428-0.336-0.866-0.45-1.319
		c-0.095-0.376-0.16-0.752-0.15-1.142c0.006-0.23-0.096-0.446-0.08-0.684c0.02-0.287,0.125-0.516,0.351-0.681
		c0.362-0.264,0.513-0.416,0.709-0.757c0.011-0.02,0.013-0.052,0.029-0.062c0.254-0.162,0.301-0.451,0.419-0.693
		c0.112-0.228,0.316-0.419,0.304-0.701c0.168-0.214,0.364-0.405,0.647-0.418c0.425-0.019,0.859-0.049,1.276,0.012
		c0.256,0.037,0.522,0.102,0.757,0.043C46.677,20.395,46.94,20.429,47.205,20.4z M46.635,35.069
		c0.059-0.069,0.126-0.149,0.188-0.222c-0.069-0.115-0.148-0.176-0.255-0.144c-0.127,0.038-0.154,0.143-0.131,0.264
		C46.499,34.999,46.561,35.031,46.635,35.069z M48.218,34.897c0.284,0.023,0.284,0.023,0.45-0.182
		C48.445,34.576,48.445,34.576,48.218,34.897z M46.197,35.652c-0.009-0.016-0.018-0.032-0.027-0.049
		c-0.008,0.008-0.025,0.019-0.024,0.025c0.004,0.018,0.015,0.034,0.024,0.051C46.178,35.67,46.187,35.662,46.197,35.652z"/>
	<path fill="#80B3E5" d="M5.09,20.549c0.128-0.136,0.292-0.15,0.466-0.147c0.313,0.006,0.627,0.002,0.918,0.002
		c0.298,0.123,0.286,0.441,0.453,0.638c0.066,0.424,0.349,0.738,0.564,1.081c0.244,0.389,0.603,0.685,0.926,1.008
		c0.039,0.039,0.101,0.056,0.166,0.091c0,0.428,0.044,0.871-0.012,1.3c-0.058,0.441-0.125,0.883-0.253,1.319
		c-0.159,0.542-0.384,1.045-0.635,1.544c-0.176,0.35-0.412,0.658-0.63,0.98c-0.302,0.445-0.702,0.804-1.096,1.159
		c-0.35,0.316-0.733,0.602-1.163,0.815c-0.199,0.098-0.374,0.246-0.577,0.332c-0.535,0.226-1.062,0.465-1.643,0.58
		c-0.37,0.073-0.738,0.158-1.112,0.219c-0.098,0.016-0.197,0.076-0.279,0.139c-0.099,0.075-0.18,0.174-0.252,0.246
		c-0.028,0.129-0.077,0.241-0.069,0.348c0.008,0.098,0.08,0.19,0.119,0.287c0.092,0.226,0.258,0.341,0.501,0.329
		c0.241-0.012,0.479,0.011,0.725-0.061c0.208-0.061,0.448-0.011,0.673-0.013c0.083-0.001,0.156,0,0.24-0.06
		c0.407-0.292,0.609-0.342,1.276-0.551c0.361-0.113,0.694-0.32,1.036-0.493c0.136-0.068,0.26-0.158,0.405-0.247
		c0.04,0.069,0.179,0.091,0.078,0.219c-0.015,0.019-0.038,0.038-0.04,0.058c-0.027,0.278-0.064,0.555-0.074,0.834
		c-0.013,0.376,0.002,0.752-0.005,1.128c-0.008,0.438,0.06,0.863,0.139,1.294c0.107,0.582,0.301,1.125,0.508,1.673
		C6.524,36.806,6.628,37,6.708,37.206c-0.072,0.083-0.141,0.058-0.227,0.024c-0.431-0.171-0.865-0.334-1.299-0.497
		c-0.369-0.139-0.739-0.274-1.109-0.409c-0.316-0.116-0.633-0.228-0.948-0.344c-0.359-0.132-0.717-0.267-1.075-0.4
		c-0.38-0.142-0.758-0.288-1.14-0.426c-0.229-0.083-0.466-0.147-0.695-0.229c-0.148-0.053-0.261-0.324-0.197-0.496
		c0.104-0.277,0.125-0.572,0.208-0.853c0.113-0.381,0.147-0.784,0.293-1.158c-0.049-0.334,0.175-0.619,0.167-0.948
		c-0.003-0.114,0.013-0.257,0.08-0.337c0.088-0.105,0.017-0.235,0.078-0.306c0.08-0.093,0.044-0.186,0.064-0.278
		c0.052-0.241,0.104-0.482,0.171-0.719c0.058-0.205,0.129-0.404,0.134-0.623c0.003-0.139,0.058-0.276,0.098-0.45
		c0.048,0,0.126-0.018,0.189,0.004c0.098,0.034,0.181,0.122,0.279,0.138c0.084,0.014,0.179-0.065,0.268-0.062
		c0.128,0.004,0.257,0.074,0.382,0.065c0.568-0.04,1.137-0.086,1.65-0.372c0.031-0.017,0.057-0.057,0.088-0.059
		c0.361-0.025,0.581-0.269,0.806-0.507c0.162-0.171,0.341-0.329,0.51-0.491c0.362-0.346,0.541-0.773,0.689-1.225
		c0.097-0.296,0.178-0.595,0.156-0.915c-0.012-0.167-0.011-0.331,0.061-0.5c0.038-0.088-0.037-0.226-0.065-0.34
		c-0.068-0.284-0.116-0.57-0.216-0.85c-0.108-0.303-0.255-0.578-0.435-0.835c-0.146-0.209-0.324-0.399-0.503-0.582
		c-0.421-0.432-1.234-0.902-1.814-1.065c-0.023-0.006-0.049-0.007-0.073-0.004c-0.12,0.014-0.243-0.004-0.264-0.137
		c-0.023-0.141-0.035-0.294,0.115-0.402c0.178-0.129,0.35-0.234,0.589-0.22c0.337,0.021,0.677,0.004,1.015,0.005
		C4.922,20.404,4.922,20.406,5.09,20.549z M3.607,34.558c0.12,0.192,0.323,0.267,0.392,0.471c0.028,0.084,0.172,0.062,0.221-0.023
		c0.019-0.033,0.15-0.556,0.15-0.61c0.001-0.311,0.043-0.631-0.199-0.893c-0.157,0.018-0.157,0.018-0.327,0.209
		c0,0.05-0.002,0.1,0,0.149c0.008,0.162,0.002,0.307-0.143,0.431C3.634,34.349,3.631,34.483,3.607,34.558z M2.857,34.201
		c-0.125-0.064-0.233-0.12-0.38-0.033c-0.128,0.076-0.189,0.203-0.2,0.309c-0.013,0.125,0.052,0.273,0.122,0.387
		c0.074,0.12,0.26,0.075,0.315-0.065c0.037-0.096,0.035-0.218,0.094-0.293C2.89,34.401,2.857,34.303,2.857,34.201z"/>
	<path fill="#80B3E5" d="M20.388,0.119c0.183-0.057,0.336-0.07,0.514-0.046c0.219,0.029,0.463,0.08,0.684-0.056
		c0.055-0.034,0.147-0.005,0.223-0.005c0.639,0,1.278-0.002,1.918,0.002c0.105,0.001,0.222-0.048,0.315,0.06
		c0.022,0.026,0.102,0.028,0.141,0.01c0.346-0.155,0.708-0.037,1.061-0.068c0.05-0.004,0.116,0.034,0.155,0.072
		c0.182,0.182,0.366,0.176,0.57,0.036c0.119-0.082,0.25-0.118,0.404-0.117c1.09,0.008,2.181,0.004,3.271,0.004
		c0.05,0,0.101-0.005,0.15,0.001c0.096,0.013,0.167,0.071,0.157,0.168c-0.022,0.204,0.073,0.42-0.062,0.613
		c-0.012,0.017-0.008,0.047-0.01,0.071c-0.025,0.353-0.046,0.706-0.077,1.059c-0.015,0.166-0.048,0.33-0.074,0.495
		c-0.026,0.165,0.063,0.347-0.073,0.497c-0.012,0.014-0.005,0.049-0.001,0.074c0.057,0.371-0.093,0.727-0.081,1.097
		c0.005,0.164-0.053,0.329-0.068,0.495c-0.015,0.167-0.01,0.329-0.071,0.497c-0.145,0.397-0.357,0.576-0.76,0.576
		c-2.331,0-4.662,0-6.993,0c-0.404,0-0.618-0.181-0.763-0.574c-0.053-0.144-0.057-0.28-0.07-0.423
		c-0.018-0.203-0.049-0.405-0.073-0.608c-0.022-0.191,0.057-0.394-0.075-0.571c-0.006-0.008,0-0.025-0.001-0.037
		c-0.025-0.353-0.045-0.707-0.077-1.059c-0.015-0.168,0.051-0.342-0.048-0.506c-0.088-0.146,0.052-0.346-0.1-0.485
		c-0.006-0.006,0-0.024-0.001-0.037C20.445,0.941,20.416,0.527,20.388,0.119z M25.464,3.548c0.105,0.091,0.196,0.169,0.266,0.23
		c0.222-0.068,0.119-0.243,0.176-0.353c0.064-0.123,0.157-0.23,0.255-0.368c-0.133-0.115-0.245-0.212-0.35-0.302
		c0.018-0.203,0.013-0.386-0.143-0.516c-0.048-0.04-0.129-0.039-0.189-0.055c-0.211,0.315-0.061,0.66-0.126,0.954
		c-0.112,0.057-0.207,0.101-0.296,0.153c-0.093,0.054-0.09,0.15-0.054,0.226c0.036,0.077,0.091,0.113,0.19,0.036
		C25.248,3.513,25.362,3.548,25.464,3.548z M22.994,1.441c-0.042,0-0.092-0.006-0.14,0.001c-0.192,0.028-0.238,0.119-0.162,0.3
		c0.04,0.096,0.066,0.198,0.116,0.289c0.067,0.123,0.135,0.255,0.234,0.348c0.055,0.052,0.177,0.034,0.301,0.053
		c0.031-0.212,0.058-0.397,0.082-0.56C23.265,1.713,23.133,1.58,22.994,1.441z M26.789,1.736c0.002-0.052,0.006-0.077,0.004-0.101
		c-0.01-0.153-0.109-0.317-0.216-0.343c-0.134-0.033-0.2,0.073-0.273,0.152c-0.062,0.068-0.096,0.176-0.169,0.214
		c-0.063,0.032-0.094,0.044-0.097,0.119c-0.008,0.227,0.143,0.346,0.355,0.244C26.543,1.948,26.668,1.826,26.789,1.736z
		 M25.022,1.294c-0.053,0.053-0.113,0.1-0.157,0.16c-0.064,0.088-0.02,0.254,0.079,0.277c0.181,0.042,0.366,0.065,0.553,0.096
		C25.523,1.345,25.471,1.291,25.022,1.294z M23.901,2.194c0.313-0.016,0.347-0.063,0.338-0.337
		c-0.006-0.188-0.177-0.174-0.268-0.253c-0.032-0.027-0.136,0.008-0.195,0.038c-0.095,0.048-0.086,0.146-0.052,0.225
		C23.768,1.972,23.833,2.069,23.901,2.194z M23.784,4.451c0,0.097-0.007,0.159,0.002,0.219c0.016,0.113,0.088,0.164,0.201,0.157
		c0.098-0.006,0.172-0.088,0.174-0.186c0.003-0.118-0.071-0.169-0.171-0.188C23.932,4.442,23.871,4.451,23.784,4.451z M21.903,2.037
		c0-0.094,0.017-0.162-0.005-0.215c-0.022-0.055-0.079-0.131-0.123-0.132c-0.057-0.002-0.116,0.061-0.16,0.087
		c0,0.092,0,0.173,0,0.26C21.712,2.037,21.794,2.037,21.903,2.037z M24.434,1.405c0.05-0.199,0.015-0.296-0.151-0.354
		c-0.044,0.053-0.092,0.112-0.166,0.202C24.234,1.309,24.323,1.351,24.434,1.405z M26.718,4.409
		c0.115,0.152,0.241,0.143,0.389,0.085C26.95,4.247,26.95,4.247,26.718,4.409z M23.674,3.486c0.238,0.18,0.285,0.177,0.329,0
		C23.908,3.486,23.817,3.486,23.674,3.486z M23.673,4.209c-0.062-0.028-0.097-0.055-0.133-0.055c-0.019,0-0.059,0.06-0.054,0.067
		c0.022,0.031,0.055,0.061,0.091,0.075C23.59,4.301,23.621,4.258,23.673,4.209z M23.059,4.565C23.035,4.66,23.035,4.66,23.242,4.65
		C23.142,4.604,23.091,4.58,23.059,4.565z"/>
	<path fill="#80B3E5" d="M29.992,14.737c0.098,0.485,0.071,0.932,0.129,1.364c0.058,0.432-0.004,0.865,0.07,1.284
		c0.063,0.356,0.057,0.707,0.061,1.061c0.004,0.359-0.167,0.527-0.526,0.527c-3.031,0.001-6.063,0.001-9.094,0
		c-0.362,0-0.531-0.167-0.535-0.52c-0.003-0.225-0.044-0.462,0.009-0.674c0.094-0.379,0.054-0.758,0.063-1.136
		c0.003-0.146,0.106-0.233,0.141-0.378c0.177,0,0.372,0.057,0.487-0.014c0.144-0.089,0.319,0.001,0.44-0.132
		c0.028-0.031,0.12-0.008,0.183-0.004c0.28,0.018,0.541-0.064,0.81-0.126c0.266-0.062,0.541-0.137,0.825-0.103
		c0.118,0.014,0.239,0.018,0.346-0.07c0.085-0.07,0.194-0.076,0.305-0.082c0.141-0.007,0.279-0.056,0.42-0.068
		c0.149-0.013,0.3-0.001,0.451-0.004c0.034-0.001,0.076-0.008,0.099-0.03c0.162-0.15,0.361-0.119,0.553-0.119
		c0.181,0,0.362,0.009,0.517-0.116c0.033-0.027,0.09-0.037,0.135-0.034c0.44,0.032,0.853-0.167,1.291-0.152
		c0.163-0.126,0.354-0.054,0.532-0.077c0.116-0.015,0.229-0.052,0.345-0.073c0.341-0.061,0.676-0.159,1.027-0.151
		c0.134-0.136,0.337-0.006,0.45-0.086C29.687,14.71,29.844,14.813,29.992,14.737z M25.311,17.482
		c-0.356-0.399-0.434-0.406-0.7-0.089C24.862,17.671,24.936,17.682,25.311,17.482z M24.159,17.433
		c0.022-0.13-0.018-0.225-0.144-0.264c-0.098-0.03-0.179,0.022-0.217,0.102c-0.056,0.118,0.003,0.21,0.123,0.28
		C23.997,17.514,24.079,17.473,24.159,17.433z M27.916,16.713c-0.128,0.015-0.253-0.022-0.389,0.041
		c0.078,0.218,0.223,0.21,0.389,0.167C27.916,16.859,27.916,16.801,27.916,16.713z M25.001,17.945
		c-0.317-0.023-0.317-0.023-0.376,0.181C24.783,18.163,24.933,18.185,25.001,17.945z M26.59,17.4
		c0.066,0.13,0.107,0.213,0.152,0.303c0.118-0.099,0.17-0.184,0.097-0.303C26.783,17.4,26.725,17.4,26.59,17.4z M28.973,16.503
		c-0.075,0-0.142,0-0.225,0c0.005,0.078,0.009,0.145,0.014,0.223C28.905,16.702,28.984,16.655,28.973,16.503z"/>
	<path fill="#80B3E5" d="M29.56,10.329c0.034,0.192,0.065,0.356,0.093,0.52c0.028,0.164-0.063,0.347,0.075,0.496
		c0.006,0.007,0.002,0.025,0.001,0.037c-0.054,0.346,0.082,0.677,0.08,1.021c-0.002,0.341,0.107,0.675,0.075,1.021
		c-0.004,0.046,0.056,0.098,0.083,0.143c-0.13,0.141-0.283,0.137-0.441,0.144c-0.116,0.005-0.229,0.048-0.345,0.071
		c-0.104,0.02-0.204-0.005-0.316,0.057c-0.139,0.076-0.32,0.017-0.49,0.081c-0.207,0.078-0.451,0.059-0.678,0.09
		c-0.116,0.016-0.229,0.056-0.345,0.071c-0.106,0.014-0.223-0.022-0.307,0.078c-0.224-0.051-0.427,0.089-0.645,0.073
		c-0.138-0.01-0.257,0.035-0.383,0.075c-0.124,0.038-0.251-0.01-0.39,0.06c-0.15,0.075-0.347,0.024-0.527,0.083
		c-0.213,0.07-0.461,0.028-0.677,0.093c-0.353,0.106-0.733,0.066-1.073,0.218c-0.224-0.054-0.427,0.066-0.645,0.082
		c-0.215,0.016-0.424,0.098-0.646,0.069c-0.162,0.166-0.416-0.019-0.576,0.15c-0.224-0.051-0.426,0.079-0.645,0.077
		c-0.082-0.001-0.156,0.003-0.243,0.05c-0.145,0.08-0.277-0.01-0.268-0.173c0.012-0.228-0.075-0.468,0.069-0.685
		c0.017-0.026,0-0.074,0.003-0.111c0.024-0.353,0.011-0.714,0.087-1.056c0.065-0.294,0.057-0.582,0.061-0.873
		c0.002-0.164,0.035-0.303,0.149-0.429c0.114-0.125,0.273-0.156,0.414-0.179c0.311-0.051,0.63-0.051,0.944-0.086
		c0.15-0.017,0.297-0.068,0.445-0.103c0.069-0.016,0.138-0.043,0.207-0.042c0.278,0.001,0.55,0.008,0.809-0.137
		c0.119-0.067,0.293,0.031,0.413-0.091c0.225,0.057,0.431-0.055,0.644-0.085c0.349-0.049,0.701-0.093,1.043-0.195
		c0.204-0.061,0.423-0.085,0.637-0.092c0.278-0.01,0.54-0.042,0.807-0.141c0.208-0.077,0.451-0.061,0.677-0.089
		c0.178-0.022,0.355-0.051,0.533-0.074c0.09-0.012,0.158,0.015,0.232,0.08c0.13,0.113,0.169,0.1,0.307-0.022
		C29.017,10.417,29.248,10.278,29.56,10.329z M25.945,12.254c0.029,0.104,0.06,0.215,0.097,0.347
		c0.201-0.186,0.555-0.167,0.524-0.526C26.33,11.993,26.161,12.106,25.945,12.254z M27.452,13.04
		c0.102-0.088,0.182-0.157,0.257-0.221c-0.105-0.249-0.293-0.138-0.444-0.171C27.19,12.861,27.346,12.93,27.452,13.04z
		 M23.807,12.661c-0.059,0.069-0.126,0.149-0.194,0.229c0.18,0.151,0.323,0.182,0.395,0.1c0-0.076,0-0.151,0-0.225
		C23.945,12.732,23.883,12.7,23.807,12.661z M27.03,12.661c-0.061-0.145-0.164-0.199-0.271-0.153
		c-0.099,0.043-0.161,0.145-0.104,0.27C26.889,12.797,26.889,12.797,27.03,12.661z M26.261,13.056
		c-0.19-0.124-0.194-0.13-0.293-0.062c-0.042,0.029-0.062,0.092-0.094,0.141c0.082,0.042,0.144,0.074,0.204,0.104
		C26.131,13.187,26.191,13.126,26.261,13.056z M24.229,11.931c-0.144-0.121-0.144-0.121-0.288,0
		C24.085,12.067,24.085,12.067,24.229,11.931z"/>
	<path fill="#80B3E5" d="M21.419,7.085c2.141,0,4.295,0,6.449,0.002c0.069,0,0.139,0.028,0.209,0.039
		c0.095,0.014,0.211,0.063,0.283,0.027c0.189-0.096,0.382-0.055,0.574-0.068c0.173,0.148,0.253,0.324,0.283,0.561
		c0.022,0.177,0.018,0.366,0.071,0.531c0.058,0.181,0.03,0.363,0.073,0.534c0.039,0.153,0.087,0.297,0.056,0.456
		c-0.174,0.15-0.406,0.094-0.607,0.165c-0.21,0.075-0.452,0.057-0.679,0.088c-0.092,0.013-0.179,0.054-0.27,0.072
		c-0.092,0.018-0.183-0.012-0.278,0.062c-0.063,0.049-0.193,0.003-0.291,0.017c-0.092,0.013-0.179,0.057-0.27,0.071
		c-0.202,0.031-0.431,0.002-0.6,0.09c-0.194,0.102-0.42-0.024-0.584,0.137c-0.198-0.039-0.38,0.061-0.57,0.072
		c-0.36,0.021-0.702,0.159-1.065,0.154c-0.106,0.135-0.256,0.048-0.382,0.077c-0.127,0.03-0.243,0.086-0.383,0.08
		c-0.113-0.005-0.228,0.053-0.345,0.067c-0.118,0.014-0.23,0.026-0.349,0.065c-0.164,0.053-0.352,0.018-0.531,0.081
		c-0.166,0.058-0.353,0.057-0.53,0.082c-0.178,0.025-0.355,0.048-0.532,0.076c-0.38,0.059-0.387,0.06-0.374-0.297
		c0.006-0.166,0.045-0.33,0.073-0.495c0.025-0.152-0.069-0.324,0.073-0.459c0.013-0.012,0-0.049,0.002-0.073
		c0.025-0.29,0.028-0.585,0.08-0.87c0.072-0.39,0.09-0.797,0.296-1.154C21.336,7.212,21.375,7.154,21.419,7.085z M26.129,9.122
		c0.169-0.085,0.151-0.228,0.124-0.375c-0.139-0.024-0.249-0.001-0.283,0.124C25.94,8.983,25.99,9.079,26.129,9.122z M23.144,8.187
		c-0.047,0.11-0.072,0.17-0.097,0.23c0.202,0.139,0.202,0.139,0.461-0.124C23.378,8.255,23.267,8.222,23.144,8.187z"/>
	<path fill="#80B3E5" d="M1.581,27.316c0.033-0.126,0.07-0.215,0.076-0.306c0.007-0.098,0.063-0.19,0.068-0.269
		c0.02-0.326,0.211-0.596,0.264-0.908c0.01-0.057,0.063-0.143,0.043-0.163c-0.127-0.127-0.013-0.241,0.007-0.355
		c0.1-0.576,0.267-1.137,0.432-1.697c0.05-0.171,0.022-0.349,0.078-0.529c0.059-0.188,0.117-0.377,0.192-0.578
		c0.324-0.011,0.602,0.122,0.892,0.264c0.262,0.128,0.442,0.331,0.652,0.511c0.301,0.26,0.457,0.599,0.581,0.962
		c0.007,0.022,0.027,0.041,0.029,0.063c0.027,0.277,0.095,0.559,0.067,0.831c-0.064,0.632-0.211,1.248-0.734,1.68
		c-0.335,0.277-0.703,0.485-1.144,0.594c-0.373,0.093-0.734,0.038-1.099,0.051C1.851,27.472,1.711,27.368,1.581,27.316z
		 M3.301,25.104c-0.028,0.062-0.055,0.097-0.055,0.133c0,0.019,0.06,0.059,0.067,0.054c0.031-0.022,0.061-0.055,0.075-0.091
		C3.392,25.187,3.35,25.156,3.301,25.104z"/>
	<path fill="#80B3E5" d="M48.927,27.386c-0.225,0.035-0.402,0.074-0.58,0.087c-0.187,0.014-0.378,0.025-0.563-0.001
		c-0.507-0.071-0.996-0.201-1.372-0.583c-0.147-0.149-0.297-0.299-0.428-0.462c-0.172-0.213-0.217-0.485-0.305-0.737
		c-0.077-0.22-0.138-0.433-0.008-0.657c0.024-0.042,0.016-0.134-0.015-0.171c-0.105-0.125-0.072-0.278-0.042-0.392
		c0.099-0.374,0.208-0.749,0.518-1.025c0.224-0.2,0.427-0.423,0.644-0.639c0.248,0.029,0.477-0.001,0.663-0.204
		c0.049-0.054,0.144-0.075,0.223-0.09c0.169-0.033,0.244,0.026,0.277,0.2c0.05,0.267,0.064,0.549,0.161,0.798
		c0.099,0.254,0.12,0.523,0.197,0.78c0.079,0.264,0.11,0.555,0.168,0.834c0.055,0.266,0.065,0.549,0.162,0.797
		c0.099,0.254,0.091,0.526,0.203,0.78C48.917,26.9,48.897,27.147,48.927,27.386z"/>
	<path fill="#80B3E5" d="M19.197,33.39c0.247-0.08,0.42-0.168,0.6-0.188c0.32-0.034,0.615-0.154,0.916-0.245
		c0.104-0.032,0.196,0.002,0.267-0.02c0.219-0.069,0.451-0.131,0.625-0.305c0.048-0.049,0.116-0.08,0.178-0.113
		c0.102-0.054,0.211-0.097,0.311-0.156c0.092-0.054,0.192-0.108,0.258-0.187c0.095-0.115,0.214-0.136,0.332-0.105
		c0.43,0.11,0.867,0.206,1.212,0.519c0.079,0.071,0.183,0.115,0.257,0.19s0.133,0.168,0.187,0.259
		c0.116,0.194,0.237,0.388,0.198,0.632c-0.004,0.024-0.001,0.05-0.001,0.075c0,0.537,0.004,0.539-0.255,1.021
		c-0.153,0.283-0.378,0.501-0.658,0.659c-0.101,0.057-0.203,0.115-0.31,0.158c-0.119,0.047-0.229,0.126-0.374,0.1
		c-0.079-0.014-0.17-0.028-0.24,0.057c-0.021,0.026-0.104,0.031-0.14,0.011c-0.193-0.107-0.421-0.066-0.614-0.151
		c-0.18-0.08-0.351-0.187-0.514-0.299c-0.168-0.117-0.322-0.253-0.48-0.384c-0.168-0.14-0.333-0.283-0.5-0.424
		c-0.167-0.141-0.305-0.308-0.494-0.434C19.699,33.884,19.484,33.647,19.197,33.39z"/>
	<path fill="#80B3E5" d="M31.443,33.376c-0.29,0.154-0.451,0.376-0.691,0.498c-0.032,0.016-0.055,0.048-0.082,0.073
		c-0.3,0.275-0.592,0.558-0.901,0.822c-0.388,0.33-0.777,0.659-1.268,0.84c-0.078,0.029-0.144,0.073-0.234,0.073
		c-0.105,0-0.205-0.01-0.315,0.059c-0.071,0.045-0.222-0.058-0.336-0.057c-0.162,0.002-0.3-0.067-0.441-0.12
		c-0.245-0.091-0.613-0.388-0.756-0.604c-0.155-0.232-0.335-0.439-0.388-0.744c-0.062-0.356-0.092-0.63,0.045-0.941
		c0.086-0.195,0.217-0.337,0.384-0.481c0.24-0.206,0.507-0.353,0.765-0.524c0.15-0.1,0.304-0.113,0.473-0.135
		c0.35-0.045,0.638,0.101,0.9,0.28c0.176,0.12,0.405,0.167,0.531,0.362c0.015,0.024,0.062,0.041,0.094,0.04
		c0.343-0.013,0.633,0.172,0.944,0.267c0.119,0.036,0.284-0.043,0.366,0.111C30.824,33.172,31.085,33.308,31.443,33.376z
		 M28.036,34.173c0.031-0.204,0.031-0.204-0.152-0.299C27.853,34.078,27.853,34.078,28.036,34.173z"/>
	<path fill="#80B3E5" d="M26.691,30.972c-0.541,0.282-1.032,0.574-1.438,1.022c-0.075-0.075-0.154-0.145-0.222-0.224
		c-0.256-0.295-0.597-0.476-0.92-0.679c-0.218-0.137-0.239-0.196-0.072-0.371c0.043-0.045,0.086-0.091,0.133-0.132
		c0.461-0.4,0.779-0.901,1.042-1.443c0.026-0.053,0.059-0.102,0.105-0.18C25.658,29.707,26.127,30.333,26.691,30.972z"/>
</g>
</svg>
