<?xml version="1.0" encoding="utf-8"?>
<!-- Generator: Adobe Illustrator 26.0.2, SVG Export Plug-In . SVG Version: 6.00 Build 0)  -->
<svg version="1.2" baseProfile="tiny" id="Layer_1" xmlns="http://www.w3.org/2000/svg" xmlns:xlink="http://www.w3.org/1999/xlink"
	 x="0px" y="0px" width="51.274px" height="53.079px" viewBox="0 0 51.274 53.079" overflow="visible" xml:space="preserve">
<g>
	<g>
		<polygon fill="#0BA6C1" points="45.677,15.592 32.466,15.592 31.106,0 25.633,0 20.175,0 18.815,15.592 5.604,15.592 0,42.567 
			25.633,53.079 51.274,42.578 		"/>
		<path id="XMLID_27_" fill="#FFFFFF" d="M11.206,22.569c0.045-0.047,0.088-0.091,0.126-0.131c0.478-0.078,0.953-0.032,1.426-0.04
			c0.485-0.007,0.969-0.002,1.454-0.002c0.478,0,0.957,0,1.435,0c0.478,0,0.957-0.001,1.435,0.001c0.148,0,0.29,0.036,0.427,0.093
			c0.065,0.027,0.116,0.069,0.153,0.122c0.091,0.128,0.178,0.259,0.257,0.396c0.135,0.238,0.294,0.461,0.428,0.699
			c0.12,0.212,0.248,0.419,0.372,0.628c0.133,0.225,0.273,0.446,0.407,0.67c0.086,0.144,0.163,0.293,0.252,0.436
			c0.135,0.217,0.247,0.452,0.473,0.608c0.21,0.036,0.335-0.089,0.436-0.262c0.111-0.191,0.228-0.378,0.342-0.567
			c0.09-0.149,0.179-0.299,0.27-0.447c0.142-0.233,0.287-0.465,0.428-0.699c0.084-0.139,0.16-0.282,0.244-0.421
			c0.141-0.234,0.294-0.462,0.426-0.7c0.085-0.153,0.185-0.288,0.302-0.417c0.056-0.062,0.138-0.043,0.184-0.102
			c0.117,0.024,0.221-0.041,0.338-0.041c1.796,0.005,3.591,0.005,5.387,0c0.105,0,0.201,0.033,0.301,0.047
			c0.051,0.007,0.118,0.033,0.15,0.107c0.029,0.067,0.018,0.111,0.001,0.178c-0.04,0.157-0.134,0.282-0.211,0.417
			c-0.093,0.161-0.192,0.318-0.289,0.477c-0.118,0.193-0.238,0.386-0.356,0.58c-0.093,0.154-0.183,0.31-0.277,0.463
			c-0.122,0.198-0.247,0.395-0.368,0.593c-0.115,0.188-0.226,0.379-0.344,0.566c-0.165,0.261-0.31,0.533-0.485,0.788
			c-0.092,0.133-0.164,0.28-0.248,0.419c-0.127,0.209-0.259,0.414-0.385,0.623c-0.087,0.144-0.164,0.293-0.252,0.436
			c-0.124,0.204-0.259,0.401-0.38,0.607c-0.115,0.196-0.236,0.387-0.356,0.58c-0.156,0.252-0.298,0.512-0.462,0.76
			c-0.093,0.14-0.166,0.292-0.254,0.435c-0.124,0.204-0.257,0.403-0.379,0.608c-0.098,0.164-0.201,0.327-0.272,0.502
			c-0.04,0.099-0.073,0.206-0.028,0.337c0.066,0.19,0.175,0.351,0.265,0.524c0.08,0.154,0.175,0.301,0.266,0.449
			c0.143,0.233,0.297,0.46,0.428,0.699c0.146,0.265,0.319,0.512,0.468,0.775c0.123,0.217,0.261,0.426,0.391,0.64
			c0.045,0.074,0.093,0.148,0.128,0.227c0.048,0.109,0.137,0.182,0.215,0.265c0.044,0.046,0.117,0.017,0.159,0.066
			c0.04-0.041,0.108-0.02,0.144-0.055c0.056-0.054,0.112-0.108,0.157-0.176c0.19-0.286,0.352-0.588,0.534-0.879
			c0.21-0.335,0.405-0.679,0.617-1.013c0.149-0.235,0.281-0.481,0.433-0.715c0.088-0.136,0.158-0.283,0.242-0.421
			c0.142-0.234,0.295-0.461,0.43-0.699c0.12-0.212,0.248-0.419,0.372-0.628c0.133-0.225,0.273-0.446,0.407-0.67
			c0.084-0.139,0.161-0.282,0.245-0.42c0.141-0.234,0.286-0.465,0.427-0.699c0.084-0.139,0.16-0.282,0.244-0.421
			c0.141-0.234,0.287-0.465,0.428-0.699c0.084-0.139,0.159-0.282,0.243-0.421c0.141-0.234,0.288-0.465,0.429-0.699
			c0.084-0.139,0.158-0.283,0.242-0.421c0.141-0.234,0.289-0.464,0.43-0.698c0.084-0.139,0.157-0.283,0.241-0.422
			c0.142-0.234,0.298-0.459,0.429-0.699c0.145-0.265,0.319-0.512,0.467-0.775c0.122-0.218,0.267-0.423,0.391-0.64
			c0.089-0.157,0.19-0.306,0.276-0.463c0.088-0.16,0.186-0.302,0.367-0.363l0.29-0.064c0.056,0,0.112,0,0.168,0
			c1.74,0,3.48,0.002,5.219-0.004c0.148-0.001,0.285,0.055,0.427,0.041c0.043,0.043,0.083,0.083,0.122,0.122
			c0.029,0.117-0.003,0.219-0.065,0.32c-0.121,0.198-0.23,0.403-0.355,0.598c-0.101,0.157-0.192,0.318-0.289,0.477
			c-0.121,0.199-0.247,0.395-0.368,0.593c-0.09,0.148-0.174,0.301-0.265,0.449c-0.121,0.199-0.247,0.395-0.368,0.593
			c-0.088,0.143-0.17,0.291-0.259,0.433c-0.13,0.207-0.247,0.422-0.385,0.624c-0.094,0.138-0.166,0.292-0.253,0.435
			c-0.16,0.263-0.326,0.524-0.487,0.787c-0.091,0.148-0.174,0.301-0.265,0.449c-0.121,0.199-0.247,0.395-0.368,0.593
			c-0.09,0.148-0.174,0.301-0.265,0.449c-0.121,0.199-0.247,0.395-0.368,0.593c-0.09,0.148-0.174,0.301-0.265,0.449
			c-0.121,0.199-0.247,0.395-0.368,0.593c-0.09,0.148-0.174,0.301-0.265,0.449c-0.161,0.263-0.326,0.523-0.487,0.787
			c-0.087,0.143-0.166,0.292-0.253,0.436c-0.124,0.204-0.255,0.404-0.38,0.607c-0.088,0.143-0.167,0.292-0.254,0.435
			c-0.124,0.204-0.254,0.404-0.379,0.608c-0.091,0.148-0.174,0.301-0.265,0.449c-0.121,0.199-0.247,0.395-0.368,0.593
			c-0.09,0.148-0.174,0.301-0.265,0.449c-0.161,0.263-0.326,0.523-0.487,0.787c-0.087,0.143-0.164,0.293-0.252,0.436
			c-0.124,0.204-0.256,0.403-0.381,0.607c-0.088,0.143-0.165,0.292-0.253,0.436c-0.124,0.204-0.256,0.403-0.38,0.607
			c-0.088,0.143-0.166,0.292-0.254,0.435c-0.164,0.268-0.333,0.533-0.498,0.801c-0.085,0.138-0.163,0.281-0.248,0.419
			c-0.128,0.208-0.247,0.421-0.384,0.625c-0.093,0.139-0.166,0.292-0.253,0.435c-0.124,0.204-0.256,0.403-0.381,0.607
			c-0.087,0.143-0.165,0.293-0.252,0.436c-0.124,0.204-0.256,0.403-0.381,0.607c-0.088,0.144-0.166,0.293-0.253,0.437
			c-0.16,0.263-0.326,0.524-0.487,0.787c-0.091,0.148-0.174,0.301-0.265,0.449c-0.121,0.199-0.247,0.395-0.368,0.593
			c-0.094,0.153-0.183,0.31-0.278,0.463c-0.086,0.139-0.164,0.285-0.266,0.411c-0.134,0.166-0.293,0.151-0.416-0.021
			c-0.059-0.083-0.121-0.169-0.172-0.262c-0.049-0.089-0.109-0.181-0.167-0.269c-0.162-0.247-0.3-0.509-0.453-0.762
			c-0.111-0.185-0.234-0.363-0.346-0.547c-0.088-0.143-0.165-0.293-0.252-0.436c-0.124-0.204-0.256-0.403-0.381-0.607
			c-0.087-0.143-0.165-0.293-0.252-0.436c-0.124-0.204-0.256-0.403-0.381-0.607c-0.087-0.143-0.165-0.293-0.252-0.436
			c-0.124-0.204-0.256-0.403-0.38-0.607c-0.088-0.143-0.166-0.292-0.253-0.435c-0.164-0.268-0.333-0.533-0.498-0.801
			c-0.085-0.138-0.162-0.281-0.248-0.419c-0.128-0.208-0.246-0.422-0.384-0.624c-0.091-0.134-0.164-0.28-0.25-0.418
			c-0.168-0.272-0.319-0.555-0.501-0.818c-0.095-0.138-0.166-0.291-0.253-0.435c-0.12-0.199-0.247-0.395-0.368-0.593
			c-0.09-0.148-0.174-0.301-0.265-0.449c-0.121-0.199-0.247-0.395-0.368-0.593c-0.09-0.148-0.174-0.301-0.265-0.449
			c-0.161-0.263-0.326-0.523-0.487-0.787c-0.087-0.143-0.166-0.292-0.253-0.435c-0.124-0.204-0.255-0.404-0.379-0.607
			c-0.091-0.148-0.174-0.301-0.265-0.449c-0.121-0.199-0.247-0.395-0.368-0.593c-0.09-0.148-0.174-0.301-0.265-0.449
			c-0.161-0.263-0.326-0.523-0.487-0.787c-0.087-0.143-0.164-0.293-0.252-0.436c-0.124-0.204-0.256-0.403-0.381-0.607
			c-0.087-0.143-0.165-0.293-0.252-0.436c-0.124-0.204-0.256-0.403-0.381-0.607c-0.088-0.143-0.162-0.295-0.254-0.435
			c-0.172-0.263-0.318-0.543-0.497-0.802c-0.092-0.133-0.162-0.281-0.248-0.418c-0.13-0.207-0.245-0.423-0.384-0.624
			c-0.092-0.133-0.164-0.28-0.25-0.418c-0.169-0.271-0.319-0.555-0.501-0.818c-0.095-0.138-0.166-0.291-0.253-0.435
			c-0.12-0.199-0.247-0.395-0.368-0.593c-0.09-0.148-0.174-0.301-0.265-0.449c-0.121-0.199-0.248-0.394-0.368-0.593
			c-0.114-0.188-0.22-0.382-0.333-0.57C11.195,22.732,11.209,22.648,11.206,22.569z"/>
	</g>
</g>
</svg>
