<?xml version="1.0" encoding="utf-8"?>
<!-- Generator: Adobe Illustrator 26.2.1, SVG Export Plug-In . SVG Version: 6.00 Build 0)  -->
<svg version="1.2" baseProfile="tiny" id="Layer_1" xmlns="http://www.w3.org/2000/svg" xmlns:xlink="http://www.w3.org/1999/xlink"
	 x="0px" y="0px" width="148.3px" height="148.3px" viewBox="0 0 148.3 148.3" overflow="visible" xml:space="preserve">
<g>
	<path fill="#EDEDED" d="M135.3,69.033c0.159-1.039,0.246-2.166,0.246-3.387v-2.662c0-11.586-7.566-18.502-20.238-18.502H96.039
		c-1.793,0-3.438,0.38-4.888,1.052c-1.449-0.672-3.095-1.052-4.887-1.052H55.713c-1.757,0-3.373,0.365-4.801,1.012
		c-1.428-0.647-3.044-1.012-4.801-1.012H29.91c-5.822,0-10.831,1.619-14.487,4.683c-4.082,3.421-6.33,8.513-6.33,14.34v6.076
		c0,2.701,0.444,6.3,2.282,9.623c-1.448,1.846-2.282,4.228-2.282,6.926v6.77c0,6.329,4.594,10.922,10.922,10.922H38.3
		c7.743,0,13.904-2.958,17.458-7.93c1.207,4.73,5.267,7.93,10.544,7.93h9.374c4.833,0,8.645-2.683,10.182-6.767
		c1.537,4.084,5.349,6.767,10.182,6.767h8.911c2.85,0,5.348-0.931,7.233-2.533c1.885,1.602,4.383,2.533,7.233,2.533h8.968
		c6.329,0,10.922-4.593,10.922-10.922V80.632C139.307,76.039,137.848,72.031,135.3,69.033z"/>
	<g>
		<path fill="#3A3A3A" d="M20.016,94.981c-1.447,0-2.083-0.636-2.083-2.083v-6.77c0-1.447,0.636-2.083,2.083-2.083h15.565
			c0.984,0,1.504-0.752,1.504-1.678c0-1.331-0.521-1.852-1.504-1.967l-8.679-1.215c-5.439-0.811-8.969-3.125-8.969-9.605v-6.076
			c0-6.596,4.455-10.183,11.977-10.183h16.201c1.447,0,2.083,0.636,2.083,2.083v6.885c0,1.446-0.636,2.083-2.083,2.083H32.63
			c-0.984,0-1.562,0.694-1.562,1.736c0,1.041,0.579,1.736,1.562,1.851l8.621,1.157c5.439,0.81,9.026,3.124,9.026,9.605v6.075
			c0,6.596-4.513,10.183-11.977,10.183H20.016z"/>
		<path fill="#3A3A3A" d="M66.302,94.981c-1.447,0-2.083-0.636-2.083-2.083v-28.41h-8.506c-1.447,0-2.083-0.636-2.083-2.083v-7.001
			c0-1.447,0.636-2.083,2.083-2.083h30.551c1.446,0,2.083,0.636,2.083,2.083v7.001c0,1.446-0.636,2.083-2.083,2.083h-8.506v28.41
			c0,1.446-0.637,2.083-2.083,2.083H66.302z"/>
		<path fill="#3A3A3A" d="M96.039,94.981c-1.447,0-2.083-0.636-2.083-2.083V55.404c0-1.447,0.636-2.083,2.083-2.083h19.268
			c8.68,0,11.399,3.935,11.399,9.663v2.662c0,3.24-0.81,5.554-3.241,6.596c4.224,0.463,7.001,3.53,7.001,8.39v12.267
			c0,1.446-0.636,2.083-2.083,2.083h-8.968c-1.447,0-2.083-0.636-2.083-2.083v-8.853c0-1.736-0.579-2.488-2.199-2.488h-8.101v11.341
			c0,1.446-0.636,2.083-2.083,2.083H96.039z M107.033,71.142h4.34c2.025,0,2.546-1.157,2.546-2.719v-1.967
			c0-1.562-0.521-2.72-2.546-2.72h-4.34V71.142z"/>
	</g>
</g>
</svg>
